G04*
G04 #@! TF.GenerationSoftware,Altium Limited,Altium Designer,21.0.8 (223)*
G04*
G04 Layer_Color=16711935*
%FSLAX25Y25*%
%MOIN*%
G70*
G04*
G04 #@! TF.SameCoordinates,24BCDA9A-42F1-41D6-B0A9-C8EBA0504D6D*
G04*
G04*
G04 #@! TF.FilePolarity,Positive*
G04*
G01*
G75*
%ADD10C,0.00787*%
%ADD12C,0.00394*%
%ADD13C,0.00500*%
%ADD14C,0.01000*%
%ADD104C,0.00197*%
D10*
X506004Y223622D02*
X505217D01*
X506004D01*
X596850Y241929D02*
Y249803D01*
X588976D02*
X596850D01*
X588976Y241929D02*
Y249803D01*
Y241929D02*
X596850D01*
D12*
X550886Y171752D02*
X550622Y172736D01*
X549902Y173457D01*
X548917Y173721D01*
X547933Y173457D01*
X547213Y172736D01*
X546949Y171752D01*
X547213Y170768D01*
X547933Y170047D01*
X548917Y169783D01*
X549902Y170047D01*
X550622Y170768D01*
X550886Y171752D01*
X610532Y247342D02*
X617421D01*
X610532Y259350D02*
X617421D01*
X610532Y247342D02*
Y259350D01*
X617421Y247342D02*
Y259350D01*
X610925Y257480D02*
X617815D01*
X610925Y245472D02*
X617815D01*
X610925D02*
Y257480D01*
X617815Y245472D02*
Y257480D01*
X545374Y168209D02*
X557579D01*
X545374Y181201D02*
X557579D01*
X545374Y168209D02*
Y181201D01*
X557579Y168209D02*
Y181201D01*
X617299Y224957D02*
Y237161D01*
X610213Y224957D02*
Y237161D01*
X617299D01*
X610213Y224957D02*
X617299D01*
D13*
X475886Y253425D02*
X501083D01*
X473917D02*
X475886D01*
X473917Y218228D02*
Y253425D01*
Y218228D02*
X475886D01*
X501083D01*
Y253425D01*
X475886D02*
Y274213D01*
Y218228D02*
Y253425D01*
X524921Y310728D02*
X580591D01*
Y251870D02*
Y310728D01*
X524921Y251870D02*
X580591D01*
X524921D02*
Y310728D01*
X547361Y209509D02*
X586336Y170534D01*
X547361Y209509D02*
X575200Y237348D01*
X614174Y198373D01*
X586336Y170534D02*
X614174Y198373D01*
D14*
X477067Y257480D02*
X479466D01*
Y258680D01*
X479066Y259080D01*
X478266D01*
X477867Y258680D01*
Y257480D01*
X479066Y261479D02*
X479466Y261079D01*
Y260279D01*
X479066Y259879D01*
X477467D01*
X477067Y260279D01*
Y261079D01*
X477467Y261479D01*
X479466Y262279D02*
X477067D01*
Y263478D01*
X477467Y263878D01*
X477867D01*
X478266Y263478D01*
Y262279D01*
Y263478D01*
X478666Y263878D01*
X479066D01*
X479466Y263478D01*
Y262279D01*
Y268677D02*
Y267077D01*
X477067D01*
Y268677D01*
X478266Y267077D02*
Y267877D01*
X479466Y269476D02*
X477067D01*
Y270676D01*
X477467Y271076D01*
X479066D01*
X479466Y270676D01*
Y269476D01*
X479066Y273475D02*
X479466Y273075D01*
Y272275D01*
X479066Y271876D01*
X477467D01*
X477067Y272275D01*
Y273075D01*
X477467Y273475D01*
X478266D01*
Y272675D01*
X479466Y275874D02*
Y274275D01*
X477067D01*
Y275874D01*
X478266Y274275D02*
Y275075D01*
D104*
X555610Y246555D02*
X556791D01*
X555610D02*
Y248721D01*
X556791Y246555D02*
Y248721D01*
X555610D02*
X556791D01*
X558563Y246555D02*
X559744D01*
X558563D02*
Y248721D01*
X559744D01*
Y246555D02*
Y248721D01*
X556791Y248716D02*
X558563D01*
X556791Y248715D02*
X558563Y248716D01*
X556791Y246559D02*
X558563Y246561D01*
X556791Y246559D02*
X558563Y246561D01*
X537884Y173435D02*
Y178337D01*
X531014Y173435D02*
X537884D01*
X535916D02*
Y178337D01*
X531014D02*
X537884D01*
X531014Y173435D02*
Y178337D01*
X537884D02*
X538091Y178543D01*
Y173228D02*
Y178543D01*
X537884Y173435D02*
X538091Y173228D01*
X530807Y178543D02*
X531014Y178337D01*
X530807Y178543D02*
X538091D01*
X530807Y173228D02*
X538091D01*
X530807D02*
X531014Y173435D01*
X530807Y173228D02*
Y178543D01*
X530413Y177854D02*
X530808D01*
X530413Y176870D02*
X530808D01*
X530413Y173917D02*
Y177854D01*
Y173917D02*
X530808D01*
X530413Y174902D02*
X530808D01*
X538090Y173917D02*
X538484D01*
X538090Y174902D02*
X538484D01*
Y173917D02*
Y177854D01*
X538090Y176870D02*
X538484D01*
X538090Y177854D02*
X538484D01*
X514075Y242421D02*
X515256D01*
Y240256D02*
Y242421D01*
X514075Y240256D02*
Y242421D01*
Y240256D02*
X515256D01*
X511122Y242421D02*
X512303D01*
Y240256D02*
Y242421D01*
X511122Y240256D02*
X512303D01*
X511122D02*
Y242421D01*
X512303Y240260D02*
X514075D01*
X512303D02*
X514075Y240262D01*
X512303Y242415D02*
X514075Y242417D01*
X512303Y242415D02*
X514075Y242417D01*
X619508Y262500D02*
Y265059D01*
X617500Y262500D02*
Y265059D01*
X617421Y262500D02*
X619587D01*
X617421Y261713D02*
X619587D01*
Y262500D01*
X617421Y261713D02*
Y262500D01*
X619587Y265059D02*
Y265846D01*
X617421Y265059D02*
Y265846D01*
Y265059D02*
X619587D01*
X617421Y265846D02*
X619587D01*
X610256Y262402D02*
Y264961D01*
X608248Y262402D02*
Y264961D01*
X608169Y262402D02*
X610335D01*
X608169Y261614D02*
X610335D01*
Y262402D01*
X608169Y261614D02*
Y262402D01*
X610335Y264961D02*
Y265748D01*
X608169Y264961D02*
Y265748D01*
Y264961D02*
X610335D01*
X608169Y265748D02*
X610335D01*
X620295Y238189D02*
Y240748D01*
X618287Y238189D02*
Y240748D01*
X618209D02*
X620374D01*
X618209Y241535D02*
X620374D01*
Y240748D02*
Y241535D01*
X618209Y240748D02*
Y241535D01*
X620374Y237402D02*
Y238189D01*
X618209Y237402D02*
Y238189D01*
X620374D01*
X618209Y237402D02*
X620374D01*
X610354Y238484D02*
Y241043D01*
X608347Y238484D02*
Y241043D01*
X608268D02*
X610433D01*
X608268Y241831D02*
X610433D01*
Y241043D02*
Y241831D01*
X608268Y241043D02*
Y241831D01*
X610433Y237697D02*
Y238484D01*
X608268Y237697D02*
Y238484D01*
X610433D01*
X608268Y237697D02*
X610433D01*
X528937Y168602D02*
Y170768D01*
X529724Y168602D02*
Y170768D01*
X528937D02*
X529724D01*
X528937Y168602D02*
X529724D01*
X532283Y170768D02*
X533071D01*
X532283Y168602D02*
X533071D01*
Y170768D01*
X532283Y168602D02*
Y170768D01*
X529724Y170689D02*
X532283D01*
X529724Y168681D02*
X532283D01*
X588110Y290354D02*
Y292913D01*
X586102Y290354D02*
Y292913D01*
X586024Y292913D02*
X588189Y292913D01*
X586024Y293701D02*
X588189D01*
X588189Y292913D02*
X588189Y293701D01*
X586024D02*
X586024Y292913D01*
X588189Y290354D02*
X588189Y289567D01*
X586024D02*
X586024Y290354D01*
X588189Y290354D01*
X586024Y289567D02*
X588189D01*
X596575Y287500D02*
Y293799D01*
X591024Y287500D02*
Y293799D01*
X590945D02*
X596654D01*
X590945Y294980D02*
X596654D01*
Y293799D02*
Y294980D01*
X590945Y293799D02*
Y294980D01*
X596654Y286319D02*
Y287500D01*
X590945Y286319D02*
Y287500D01*
X596654D01*
X590945Y286319D02*
X596654D01*
X594984Y259646D02*
X594986Y257874D01*
X594984Y259646D02*
X594986Y257874D01*
X597140Y259646D02*
X597142Y257874D01*
Y259646D01*
X594980Y256693D02*
X597146D01*
Y257874D01*
X594980D02*
X597146D01*
X594980Y256693D02*
Y257874D01*
X597146Y259646D02*
Y260827D01*
X594980Y259646D02*
X597146D01*
X594980Y260827D02*
X597146D01*
X594980Y259646D02*
Y260827D01*
X602553Y259646D02*
X602555Y257874D01*
X602553Y259646D02*
X602555Y257874D01*
X600398Y259646D02*
X600400Y257874D01*
X600398D02*
Y259646D01*
X600394Y260827D02*
X602559D01*
X600394Y259646D02*
Y260827D01*
Y259646D02*
X602559D01*
Y260827D01*
X600394Y256693D02*
Y257874D01*
X602559D01*
X600394Y256693D02*
X602559D01*
Y257874D01*
X606398Y242220D02*
X608169Y242218D01*
X606398Y242220D02*
X608169Y242218D01*
X606398Y240065D02*
X608169Y240063D01*
X606398D02*
X608169D01*
X609350Y240059D02*
Y242224D01*
X608169Y240059D02*
X609350D01*
X608169D02*
Y242224D01*
X609350D01*
X605217Y240059D02*
X606398D01*
Y242224D01*
X605217Y240059D02*
Y242224D01*
X606398D01*
X512402Y230604D02*
X514173Y230606D01*
X512402Y230604D02*
X514173Y230606D01*
X512402Y228449D02*
X514173Y228451D01*
X512402Y228449D02*
X514173D01*
X511221Y228445D02*
Y230610D01*
Y228445D02*
X512402D01*
Y230610D01*
X511221D02*
X512402D01*
X514173Y228445D02*
X515354D01*
X514173D02*
Y230610D01*
X515354Y228445D02*
Y230610D01*
X514173D02*
X515354D01*
X538091Y229030D02*
X539862Y229031D01*
X538091Y229030D02*
X539862Y229031D01*
X538091Y226874D02*
X539862Y226876D01*
X538091Y226874D02*
X539862D01*
X536909Y226870D02*
Y229035D01*
Y226870D02*
X538091D01*
Y229035D01*
X536909D02*
X538091D01*
X539862Y226870D02*
X541043D01*
X539862D02*
Y229035D01*
X541043Y226870D02*
Y229035D01*
X539862D02*
X541043D01*
X544095Y248715D02*
X545866Y248716D01*
X544095Y248715D02*
X545866Y248716D01*
X544095Y246559D02*
X545866Y246561D01*
X544095Y246559D02*
X545866D01*
X542913Y246555D02*
Y248721D01*
Y246555D02*
X544095D01*
Y248721D01*
X542913D02*
X544095D01*
X545866Y246555D02*
X547047D01*
X545866D02*
Y248721D01*
X547047Y246555D02*
Y248721D01*
X545866D02*
X547047D01*
X520575Y185138D02*
X520577Y183366D01*
X520575Y185138D02*
X520577Y183366D01*
X522730Y185138D02*
X522732Y183366D01*
Y185138D01*
X520571Y182185D02*
X522736D01*
Y183366D01*
X520571D02*
X522736D01*
X520571Y182185D02*
Y183366D01*
X522736Y185138D02*
Y186319D01*
X520571Y185138D02*
X522736D01*
X520571Y186319D02*
X522736D01*
X520571Y185138D02*
Y186319D01*
X543358Y196175D02*
X545130Y196177D01*
X543358Y196175D02*
X545130Y196177D01*
X543358Y194020D02*
X545130Y194022D01*
X543358Y194020D02*
X545130D01*
X542177Y194016D02*
Y196181D01*
Y194016D02*
X543358D01*
Y196181D01*
X542177D02*
X543358D01*
X545130Y194016D02*
X546311D01*
X545130D02*
Y196181D01*
X546311Y194016D02*
Y196181D01*
X545130D02*
X546311D01*
X588976Y233760D02*
X591142D01*
X588976Y234547D02*
X591142D01*
X588976Y233760D02*
Y234547D01*
X591142Y233760D02*
Y234547D01*
X588976Y237106D02*
Y237894D01*
X591142Y237106D02*
Y237894D01*
X588976D02*
X591142D01*
X588976Y237106D02*
X591142D01*
X589055Y234547D02*
Y237106D01*
X591063Y234547D02*
Y237106D01*
X589665Y260827D02*
X591831D01*
X589665Y260039D02*
X591831D01*
Y260827D01*
X589665Y260039D02*
Y260827D01*
X591831Y256693D02*
Y257480D01*
X589665Y256693D02*
Y257480D01*
Y256693D02*
X591831D01*
X589665Y257480D02*
X591831D01*
X591752D02*
Y260039D01*
X589744Y257480D02*
Y260039D01*
X542520Y162795D02*
Y164961D01*
X543307Y162795D02*
Y164961D01*
X542520D02*
X543307D01*
X542520Y162795D02*
X543307D01*
X545866Y164961D02*
X546654D01*
X545866Y162795D02*
X546654D01*
Y164961D01*
X545866Y162795D02*
Y164961D01*
X543307Y164882D02*
X545866D01*
X543307Y162874D02*
X545866D01*
X609138Y214996D02*
X611303D01*
X609138Y215784D02*
X611303D01*
Y214996D02*
Y215784D01*
X609138Y214996D02*
Y215784D01*
X611303Y218342D02*
Y219130D01*
X609138Y218342D02*
Y219130D01*
X611303D01*
X609138Y218342D02*
X611303D01*
X611224Y215784D02*
Y218342D01*
X609216Y215784D02*
Y218342D01*
X617394Y214890D02*
X619559D01*
X617394Y215677D02*
X619559D01*
Y214890D02*
Y215677D01*
X617394Y214890D02*
Y215677D01*
X619559Y218236D02*
Y219024D01*
X617394Y218236D02*
Y219024D01*
X619559D01*
X617394Y218236D02*
X619559D01*
X619480Y215677D02*
Y218236D01*
X617472Y215677D02*
Y218236D01*
X536221Y240256D02*
Y242421D01*
X537008Y240256D02*
Y242421D01*
X536221D02*
X537008D01*
X536221Y240256D02*
X537008D01*
X539567Y242421D02*
X540354D01*
X539567Y240256D02*
X540354D01*
Y242421D01*
X539567Y240256D02*
Y242421D01*
X537008Y242342D02*
X539567D01*
X537008Y240335D02*
X539567D01*
X532024Y196083D02*
X532028Y200807D01*
X528878D02*
X528882Y196083D01*
X532028Y195295D02*
Y196476D01*
X528878Y195295D02*
X532028D01*
X528882Y196083D02*
X532028D01*
X528878Y195295D02*
Y196476D01*
Y200413D02*
Y201594D01*
X532028D01*
Y200413D02*
Y201594D01*
X528878Y200807D02*
X532028D01*
X528886Y196087D02*
X532020D01*
X528886Y200803D02*
X532020D01*
X528886Y200432D02*
X532020D01*
X528886Y196087D02*
Y200803D01*
X532020Y196087D02*
Y200803D01*
X528886Y196458D02*
X532020D01*
X514416Y207710D02*
X515319Y206420D01*
X512255Y204275D02*
X515319Y206420D01*
X511352Y205565D02*
X514416Y207710D01*
X511352Y205565D02*
X512255Y204275D01*
X511367Y212064D02*
X512270Y210774D01*
X509206Y208629D02*
X512270Y210774D01*
X508303Y209918D02*
X509206Y208629D01*
X508303Y209918D02*
X511367Y212064D01*
X509210Y208631D02*
X511355Y205567D01*
X509210Y208631D02*
X511357Y205568D01*
X512265Y210770D02*
X514412Y207708D01*
X512265Y210770D02*
X514412Y207708D01*
X514307Y213954D02*
X515210Y212664D01*
X514307Y213954D02*
X517371Y216099D01*
X515210Y212664D02*
X518274Y214809D01*
X517371Y216099D02*
X518274Y214809D01*
X517356Y209600D02*
X518259Y208310D01*
X517356Y209600D02*
X520420Y211746D01*
X521323Y210455D01*
X518259Y208310D02*
X521323Y210455D01*
X518271Y214807D02*
X520416Y211743D01*
X518269Y214806D02*
X520416Y211743D01*
X515214Y212666D02*
X517360Y209604D01*
X515214Y212666D02*
X517360Y209604D01*
X564201Y237756D02*
X567263Y240819D01*
X566595Y235362D02*
X569657Y238425D01*
X569713Y238369D02*
X570548Y239204D01*
X567207Y240874D02*
X568043Y241710D01*
X570548Y239204D01*
X567207Y240874D02*
X569713Y238369D01*
X565816Y234472D02*
X566651Y235307D01*
X564145Y237812D02*
X566651Y235307D01*
X563310Y236977D02*
X564145Y237812D01*
X563310Y236977D02*
X565816Y234472D01*
M02*
