G04*
G04 #@! TF.GenerationSoftware,Altium Limited,Altium Designer,21.0.8 (223)*
G04*
G04 Layer_Color=65535*
%FSLAX25Y25*%
%MOIN*%
G70*
G04*
G04 #@! TF.SameCoordinates,24BCDA9A-42F1-41D6-B0A9-C8EBA0504D6D*
G04*
G04*
G04 #@! TF.FilePolarity,Positive*
G04*
G01*
G75*
%ADD10C,0.00787*%
%ADD11C,0.00984*%
%ADD12C,0.00394*%
%ADD13C,0.00500*%
%ADD14C,0.01000*%
%ADD15C,0.00591*%
D10*
X538150Y313347D02*
X537362D01*
X538150D01*
X581933Y173054D02*
X581145D01*
X581933D01*
X613386Y245374D02*
Y257579D01*
X615354Y245374D02*
Y257579D01*
X613386D02*
X615354D01*
X613386Y245374D02*
X615354D01*
X544783Y167618D02*
X545374D01*
X544783D02*
Y170571D01*
Y178839D02*
Y181791D01*
X545374D01*
X557579D02*
X558169D01*
Y178839D02*
Y181791D01*
X557579Y167618D02*
X558169D01*
Y170571D01*
X545563Y228902D02*
X556563D01*
Y243402D01*
X545563Y228902D02*
Y243402D01*
X556563D01*
X497492Y270693D02*
X520181Y293382D01*
X492481Y275704D02*
X497492Y270693D01*
X515169Y298393D02*
X520181Y293382D01*
X492481Y275704D02*
X515169Y298393D01*
X494405Y205291D02*
X517094Y182602D01*
X512083Y177591D02*
X517094Y182602D01*
X489394Y200280D02*
X494405Y205291D01*
X489394Y200280D02*
X512083Y177591D01*
D11*
X619587Y244390D02*
X618848Y244816D01*
Y243964D01*
X619587Y244390D01*
X545866Y165059D02*
X545128Y165485D01*
Y164633D01*
X545866Y165059D01*
D12*
X599213Y243110D02*
Y242717D01*
Y243110D01*
D13*
X553543Y245472D02*
Y249803D01*
X556693D01*
X558661D02*
X561811D01*
Y245472D02*
Y249803D01*
X558661Y245472D02*
X561811D01*
X553543D02*
X556693D01*
X537992Y179429D02*
Y180610D01*
X537598Y179429D02*
Y180610D01*
X538386D01*
X537992Y171161D02*
Y172343D01*
X537598Y171161D02*
Y172343D01*
Y171161D02*
X538386D01*
X532087Y179429D02*
X538386D01*
Y180610D01*
Y171161D02*
Y172343D01*
X532087D02*
X538386D01*
X517323Y239173D02*
Y243504D01*
X514173Y239173D02*
X517323D01*
X509055D02*
X512205D01*
X509055D02*
Y243504D01*
X512205D01*
X514173D02*
X517323D01*
X524921Y307008D02*
Y310728D01*
X580591D01*
Y307008D02*
Y310728D01*
X545669Y251870D02*
X568110D01*
X586336Y170534D02*
X614174Y198373D01*
X547361Y209509D02*
X547918Y208952D01*
X547361Y209509D02*
X549867Y212014D01*
X575200Y237348D02*
X575757Y236791D01*
X572694Y234842D02*
X575200Y237348D01*
X581046Y175824D02*
X586336Y170534D01*
X600533Y212014D02*
X614174Y198373D01*
X621260Y235335D02*
Y238484D01*
Y240453D02*
Y243602D01*
X617323D02*
X621260D01*
X617323Y240453D02*
Y243602D01*
Y235335D02*
Y238484D01*
Y235335D02*
X621260D01*
X611319Y235630D02*
Y238779D01*
Y240748D02*
Y243898D01*
X607382D02*
X611319D01*
X607382Y240748D02*
Y243898D01*
Y235630D02*
Y238779D01*
Y235630D02*
X611319D01*
X526870Y167717D02*
Y171653D01*
X530020D01*
X531988D02*
X535138D01*
Y167717D02*
Y171653D01*
X531988Y167717D02*
X535138D01*
X526870D02*
X530020D01*
X589075Y290650D02*
X589075Y287500D01*
X589075Y292618D02*
X589075Y295768D01*
X585138Y295768D02*
X589075Y295768D01*
X585138Y295768D02*
X585138Y292618D01*
X585138Y287500D02*
X585138Y290650D01*
X585138Y287500D02*
X589075Y287500D01*
X591235Y291239D02*
X596363D01*
X591235Y290061D02*
X596363D01*
X593898Y259744D02*
Y262894D01*
Y254626D02*
Y257776D01*
Y254626D02*
X598228D01*
Y257776D01*
Y259744D02*
Y262894D01*
X593898D02*
X598228D01*
X603642Y254626D02*
Y257776D01*
Y259744D02*
Y262894D01*
X599311D02*
X603642D01*
X599311Y259744D02*
Y262894D01*
Y254626D02*
Y257776D01*
Y254626D02*
X603642D01*
X514272Y231693D02*
X517421D01*
X509154D02*
X512303D01*
X509154Y227362D02*
Y231693D01*
Y227362D02*
X512303D01*
X514272D02*
X517421D01*
Y231693D01*
X539961Y230118D02*
X543110D01*
X534842D02*
X537992D01*
X534842Y225787D02*
Y230118D01*
Y225787D02*
X537992D01*
X539961D02*
X543110D01*
Y230118D01*
X545965Y249803D02*
X549114D01*
X540846D02*
X543996D01*
X540846Y245472D02*
Y249803D01*
Y245472D02*
X543996D01*
X545965D02*
X549114D01*
Y249803D01*
X519488Y185236D02*
Y188386D01*
Y180118D02*
Y183268D01*
Y180118D02*
X523819D01*
Y183268D01*
Y185236D02*
Y188386D01*
X519488D02*
X523819D01*
X545228Y197264D02*
X548378D01*
X540110D02*
X543260D01*
X540110Y192933D02*
Y197264D01*
Y192933D02*
X543260D01*
X545228D02*
X548378D01*
Y197264D01*
X588091Y231693D02*
X592028D01*
X588091D02*
Y234842D01*
Y236811D02*
Y239961D01*
X592028D01*
Y236811D02*
Y239961D01*
Y231693D02*
Y234842D01*
X588779Y262894D02*
X592717D01*
Y259744D02*
Y262894D01*
Y254626D02*
Y257776D01*
X588779Y254626D02*
X592717D01*
X588779D02*
Y257776D01*
Y259744D02*
Y262894D01*
X540453Y161909D02*
Y165847D01*
X543602D01*
X545571D02*
X548721D01*
Y161909D02*
Y165847D01*
X545571Y161909D02*
X548721D01*
X540453D02*
X543602D01*
X534154Y239370D02*
Y243307D01*
X537303D01*
X539272D02*
X542421D01*
Y239370D02*
Y243307D01*
X539272Y239370D02*
X542421D01*
X534154D02*
X537303D01*
X527795Y203760D02*
X528583Y204547D01*
X532323D01*
X528386Y204350D02*
X529075Y205039D01*
X531831D02*
X532421Y204449D01*
X532323Y204547D02*
X533110Y203760D01*
Y200217D02*
Y203760D01*
X527795Y200217D02*
Y203760D01*
Y192342D02*
X533110D01*
Y196673D01*
X527795Y192342D02*
Y196673D01*
X529075Y205039D02*
X531831D01*
X512778Y209578D02*
X513466Y208595D01*
X510156Y207743D02*
X510845Y206760D01*
X516160Y211778D02*
X516849Y210795D01*
X518782Y213614D02*
X519470Y212631D01*
X565108Y238921D02*
X567760Y236270D01*
X566098Y239911D02*
X568750Y237260D01*
D14*
X550563Y242902D02*
X551563D01*
X550063Y243402D02*
X550563Y242902D01*
X551563D02*
X552063Y243402D01*
X530709Y216142D02*
X536024Y221457D01*
X522047Y211516D02*
X529724Y219193D01*
X533588D01*
D15*
X557578Y252954D02*
X552855D01*
Y255315D01*
X553642Y256103D01*
X555217D01*
X556004Y255315D01*
Y252954D01*
Y254528D02*
X557578Y256103D01*
Y260038D02*
X552855D01*
X555217Y257677D01*
Y260825D01*
X539665Y171259D02*
X542814D01*
X541240Y172834D02*
Y169685D01*
X577560Y280316D02*
X576772Y279529D01*
Y277954D01*
X577560Y277167D01*
X580708D01*
X581495Y277954D01*
Y279529D01*
X580708Y280316D01*
X581495Y281890D02*
Y283464D01*
Y282677D01*
X576772D01*
X577560Y281890D01*
X581495Y288187D02*
X576772D01*
X579134Y285826D01*
Y288974D01*
X518406Y169489D02*
X517619Y168702D01*
Y167128D01*
X518406Y166340D01*
X521555D01*
X522342Y167128D01*
Y168702D01*
X521555Y169489D01*
X522342Y171063D02*
Y172638D01*
Y171851D01*
X517619D01*
X518406Y171063D01*
X517619Y178148D02*
Y174999D01*
X519980D01*
X519193Y176573D01*
Y177360D01*
X519980Y178148D01*
X521555D01*
X522342Y177360D01*
Y175786D01*
X521555Y174999D01*
X548622Y276673D02*
X547048D01*
X547835D01*
Y272737D01*
X547048Y271950D01*
X546261D01*
X545474Y272737D01*
X553345Y271950D02*
X550197D01*
X553345Y275098D01*
Y275885D01*
X552558Y276673D01*
X550984D01*
X550197Y275885D01*
X602362Y289664D02*
X603149Y290452D01*
Y292026D01*
X602362Y292813D01*
X599213D01*
X598426Y292026D01*
Y290452D01*
X599213Y289664D01*
X598426Y288090D02*
Y286516D01*
Y287303D01*
X603149D01*
X602362Y288090D01*
Y284154D02*
X603149Y283367D01*
Y281793D01*
X602362Y281006D01*
X601575D01*
X600787Y281793D01*
Y282580D01*
Y281793D01*
X600000Y281006D01*
X599213D01*
X598426Y281793D01*
Y283367D01*
X599213Y284154D01*
X578840Y253444D02*
Y249508D01*
X579627Y248721D01*
X581201D01*
X581988Y249508D01*
Y253444D01*
X586711D02*
X585137Y252657D01*
X583563Y251083D01*
Y249508D01*
X584350Y248721D01*
X585924D01*
X586711Y249508D01*
Y250295D01*
X585924Y251083D01*
X583563D01*
X583071Y236123D02*
X582284Y235336D01*
Y233762D01*
X583071Y232974D01*
X586220D01*
X587007Y233762D01*
Y235336D01*
X586220Y236123D01*
X587007Y237697D02*
Y239271D01*
Y238484D01*
X582284D01*
X583071Y237697D01*
Y241633D02*
X582284Y242420D01*
Y243994D01*
X583071Y244782D01*
X586220D01*
X587007Y243994D01*
Y242420D01*
X586220Y241633D01*
X583071D01*
X539908Y207301D02*
X536040Y204592D01*
X534685Y206527D01*
X534878Y207623D01*
X536168Y208526D01*
X537264Y208332D01*
X538619Y206398D01*
X537716Y207688D02*
X538102Y209880D01*
X537199Y211170D02*
X536297Y212459D01*
X536748Y211815D01*
X532879Y209106D01*
X533976Y208912D01*
X534942Y214394D02*
X534039Y215683D01*
X534490Y215039D01*
X530622Y212330D01*
X531718Y212136D01*
X604428Y264667D02*
X599706D01*
Y267029D01*
X600493Y267816D01*
X602067D01*
X602854Y267029D01*
Y264667D01*
Y266242D02*
X604428Y267816D01*
Y269390D02*
Y270964D01*
Y270177D01*
X599706D01*
X600493Y269390D01*
Y273326D02*
X599706Y274113D01*
Y275687D01*
X600493Y276474D01*
X603641D01*
X604428Y275687D01*
Y274113D01*
X603641Y273326D01*
X600493D01*
X544691Y212562D02*
X540822Y209853D01*
X539467Y211787D01*
X539661Y212883D01*
X540950Y213787D01*
X542047Y213593D01*
X543401Y211659D01*
X542498Y212948D02*
X542885Y215141D01*
X541982Y216431D02*
X541079Y217720D01*
X541530Y217075D01*
X537661Y214366D01*
X538758Y214173D01*
X537918Y222234D02*
X539724Y219654D01*
X535339Y220428D01*
X534694Y219976D01*
X534501Y218880D01*
X535404Y217590D01*
X536500Y217397D01*
X611417Y266438D02*
X606694D01*
Y268800D01*
X607481Y269587D01*
X609055D01*
X609842Y268800D01*
Y266438D01*
Y268013D02*
X611417Y269587D01*
X610629Y271161D02*
X611417Y271948D01*
Y273523D01*
X610629Y274310D01*
X607481D01*
X606694Y273523D01*
Y271948D01*
X607481Y271161D01*
X608268D01*
X609055Y271948D01*
Y274310D01*
X583564Y258957D02*
X582776Y258170D01*
Y256595D01*
X583564Y255808D01*
X586712D01*
X587499Y256595D01*
Y258170D01*
X586712Y258957D01*
Y260531D02*
X587499Y261318D01*
Y262893D01*
X586712Y263680D01*
X583564D01*
X582776Y262893D01*
Y261318D01*
X583564Y260531D01*
X584351D01*
X585138Y261318D01*
Y263680D01*
X527362Y243011D02*
X526575Y243798D01*
X525001D01*
X524214Y243011D01*
Y239863D01*
X525001Y239076D01*
X526575D01*
X527362Y239863D01*
X532085Y239076D02*
X528937D01*
X532085Y242224D01*
Y243011D01*
X531298Y243798D01*
X529724D01*
X528937Y243011D01*
X554036Y163484D02*
X553249Y164271D01*
X551674D01*
X550887Y163484D01*
Y160335D01*
X551674Y159548D01*
X553249D01*
X554036Y160335D01*
X555610Y163484D02*
X556397Y164271D01*
X557971D01*
X558759Y163484D01*
Y162697D01*
X557971Y161909D01*
X558759Y161122D01*
Y160335D01*
X557971Y159548D01*
X556397D01*
X555610Y160335D01*
Y161122D01*
X556397Y161909D01*
X555610Y162697D01*
Y163484D01*
X556397Y161909D02*
X557971D01*
X534548Y185137D02*
X533760Y185924D01*
X532186D01*
X531399Y185137D01*
Y181989D01*
X532186Y181202D01*
X533760D01*
X534548Y181989D01*
X536122Y185924D02*
X539270D01*
Y185137D01*
X536122Y181989D01*
Y181202D01*
X547245Y188090D02*
Y184154D01*
X548033Y183367D01*
X549607D01*
X550394Y184154D01*
Y188090D01*
X551968Y187303D02*
X552755Y188090D01*
X554330D01*
X555117Y187303D01*
Y186515D01*
X554330Y185728D01*
X553543D01*
X554330D01*
X555117Y184941D01*
Y184154D01*
X554330Y183367D01*
X552755D01*
X551968Y184154D01*
X613387Y266141D02*
Y262205D01*
X614174Y261418D01*
X615749D01*
X616536Y262205D01*
Y266141D01*
X620471Y261418D02*
Y266141D01*
X618110Y263779D01*
X621259D01*
X506202Y244784D02*
Y249507D01*
X508564D01*
X509351Y248720D01*
Y247146D01*
X508564Y246358D01*
X506202D01*
X507776D02*
X509351Y244784D01*
X510925Y249507D02*
X514074D01*
Y248720D01*
X510925Y245571D01*
Y244784D01*
X508958Y221162D02*
Y225885D01*
X511319D01*
X512107Y225098D01*
Y223524D01*
X511319Y222737D01*
X508958D01*
X510532D02*
X512107Y221162D01*
X516829Y225885D02*
X515255Y225098D01*
X513681Y223524D01*
Y221949D01*
X514468Y221162D01*
X516042D01*
X516829Y221949D01*
Y222737D01*
X516042Y223524D01*
X513681D01*
X551180Y252856D02*
X546457D01*
Y255217D01*
X547245Y256004D01*
X548819D01*
X549606Y255217D01*
Y252856D01*
Y254430D02*
X551180Y256004D01*
X547245Y257578D02*
X546457Y258366D01*
Y259940D01*
X547245Y260727D01*
X548032D01*
X548819Y259940D01*
Y259153D01*
Y259940D01*
X549606Y260727D01*
X550393D01*
X551180Y259940D01*
Y258366D01*
X550393Y257578D01*
X519640Y198418D02*
X524363D01*
Y196057D01*
X523576Y195270D01*
X522002D01*
X521214Y196057D01*
Y198418D01*
Y196844D02*
X519640Y195270D01*
Y190547D02*
Y193696D01*
X522789Y190547D01*
X523576D01*
X524363Y191334D01*
Y192908D01*
X523576Y193696D01*
X551182Y190650D02*
Y195373D01*
X553544D01*
X554331Y194586D01*
Y193012D01*
X553544Y192225D01*
X551182D01*
X552756D02*
X554331Y190650D01*
X555905D02*
X557479D01*
X556692D01*
Y195373D01*
X555905Y194586D01*
X485828Y267816D02*
Y272539D01*
X488190D01*
X488977Y271751D01*
Y270177D01*
X488190Y269390D01*
X485828D01*
X493700Y267816D02*
X490551D01*
X493700Y270964D01*
Y271751D01*
X492912Y272539D01*
X491338D01*
X490551Y271751D01*
X493013Y206891D02*
Y211613D01*
X495374D01*
X496161Y210826D01*
Y209252D01*
X495374Y208465D01*
X493013D01*
X497736Y206891D02*
X499310D01*
X498523D01*
Y211613D01*
X497736Y210826D01*
X539074Y202755D02*
X534351D01*
Y200393D01*
X535138Y199606D01*
X538287D01*
X539074Y200393D01*
Y202755D01*
X534351Y198032D02*
Y196458D01*
Y197245D01*
X539074D01*
X538287Y198032D01*
X606792Y229233D02*
X606005Y228445D01*
Y226871D01*
X606792Y226084D01*
X609940D01*
X610728Y226871D01*
Y228445D01*
X609940Y229233D01*
X606005Y233955D02*
X606792Y232381D01*
X608366Y230807D01*
X609940D01*
X610728Y231594D01*
Y233168D01*
X609940Y233955D01*
X609153D01*
X608366Y233168D01*
Y230807D01*
X617717Y229134D02*
X616930Y228347D01*
Y226773D01*
X617717Y225986D01*
X620866D01*
X621653Y226773D01*
Y228347D01*
X620866Y229134D01*
X616930Y233857D02*
Y230708D01*
X619291D01*
X618504Y232283D01*
Y233070D01*
X619291Y233857D01*
X620866D01*
X621653Y233070D01*
Y231496D01*
X620866Y230708D01*
X573406Y248881D02*
X572618Y249669D01*
X571044D01*
X570257Y248881D01*
Y245733D01*
X571044Y244946D01*
X572618D01*
X573406Y245733D01*
X574980Y244946D02*
X576554D01*
X575767D01*
Y249669D01*
X574980Y248881D01*
X611612Y210428D02*
Y206493D01*
X612399Y205705D01*
X613973D01*
X614760Y206493D01*
Y210428D01*
X619483Y205705D02*
X616334D01*
X619483Y208854D01*
Y209641D01*
X618696Y210428D01*
X617122D01*
X616334Y209641D01*
X547737Y225393D02*
Y221457D01*
X548524Y220670D01*
X550099D01*
X550886Y221457D01*
Y225393D01*
X552460Y220670D02*
X554034D01*
X553247D01*
Y225393D01*
X552460Y224606D01*
X525592Y225887D02*
Y230609D01*
X527953D01*
X528740Y229822D01*
Y228248D01*
X527953Y227461D01*
X525592D01*
X527166D02*
X528740Y225887D01*
X533463Y230609D02*
X530315D01*
Y228248D01*
X531889Y229035D01*
X532676D01*
X533463Y228248D01*
Y226674D01*
X532676Y225887D01*
X531102D01*
X530315Y226674D01*
M02*
