M48
;Layer_Color=9474304
;FILE_FORMAT=2:4
INCH,TZ
;TYPE=PLATED
T1F00S00C0.0157
T2F00S00C0.0236
T4F00S00C0.0709
T5F00S00C0.0945
;TYPE=NON_PLATED
T6F00S00C0.0236
T7F00S00C0.0248
%
T01
X52490Y16976
X52520Y17596
X52899Y18307
X53723Y18367
X53688Y16654
X56017Y16418
X57472Y17131
X56919Y19970
X56353Y20485
X56142Y21085
X56960Y21259
X56605Y21753
X57815Y22362
X58961Y22926
X59400Y23100
X59390Y22534
X59734Y22343
X60368Y21897
X60158Y23018
X59917Y23355
X59547Y23632
X60177Y24469
X60207Y24990
X60502Y26073
X60580Y26448
X59587Y26476
X58742Y28536
X58614Y30081
X56416Y29791
X56476Y27274
X56900Y27126
X56161Y26683
X55787Y26476
X56004Y25326
X56427
X56782Y24498
X57700Y24052
X58054Y23905
X58524Y24606
X57240Y25883
X54163Y25817
X53228Y25650
X53102Y24882
X52411Y24705
X52392Y23898
X53704Y23520
X52835Y22244
X52205Y21713
X50915Y21919
X50650Y22916
Y24104
X51541Y25161
X52705Y26306
X52888Y29892
X53189Y20817
X54274Y20414
X55177Y22656
X58134Y20134
X61261Y23936
X61673Y23824
X61939Y24478
X62332Y24979
T02
X51208Y18260
X50855Y18614
X50501Y18967
X50148Y19321
X49794Y19674
X49441Y20028
X49749Y27570
X50103Y27924
X50456Y28278
X50810Y28631
X51163Y28985
X51517Y29338
T04
X51161Y27589
T05
X51211Y19695
X59104Y27549
T06
X49577Y24764
T07
X49577Y22402
Y24764
M30
