G04*
G04 #@! TF.GenerationSoftware,Altium Limited,Altium Designer,21.0.8 (223)*
G04*
G04 Layer_Color=32768*
%FSLAX25Y25*%
%MOIN*%
G70*
G04*
G04 #@! TF.SameCoordinates,24BCDA9A-42F1-41D6-B0A9-C8EBA0504D6D*
G04*
G04*
G04 #@! TF.FilePolarity,Positive*
G04*
G01*
G75*
%ADD12C,0.00394*%
%ADD104C,0.00197*%
%ADD105C,0.00787*%
%ADD106C,0.01000*%
%ADD107C,0.00300*%
G36*
X582165Y261875D02*
X580649D01*
Y271358D01*
X582165D01*
Y261875D01*
D02*
G37*
D12*
X553543Y249803D02*
X561811D01*
X553543Y245472D02*
X561811D01*
X553543D02*
Y249803D01*
X561811Y245472D02*
Y249803D01*
X541929Y172343D02*
Y179429D01*
X526968Y172343D02*
Y179429D01*
Y172343D02*
X541929D01*
X526968Y179429D02*
X541929D01*
X509055Y239173D02*
X517323D01*
X509055Y243504D02*
X517323D01*
Y239173D02*
Y243504D01*
X509055Y239173D02*
Y243504D01*
X616535Y259646D02*
X620472D01*
X616535Y267913D02*
X620472D01*
Y259646D02*
Y267913D01*
X616535Y259646D02*
Y267913D01*
X607283Y259547D02*
X611221D01*
X607283Y267815D02*
X611221D01*
Y259547D02*
Y267815D01*
X607283Y259547D02*
Y267815D01*
X613976Y251378D02*
Y255315D01*
X612008Y253346D02*
X615945D01*
X614370Y249508D02*
Y253445D01*
X612402Y251476D02*
X616339D01*
X617323Y243602D02*
X621260D01*
X617323Y235335D02*
X621260D01*
Y243602D01*
X617323Y235335D02*
Y243602D01*
X607382Y243898D02*
X611319D01*
X607382Y235630D02*
X611319D01*
Y243898D01*
X607382Y235630D02*
Y243898D01*
X526870Y171653D02*
X535138D01*
X526870Y167717D02*
X535138D01*
X526870D02*
Y171653D01*
X535138Y167717D02*
Y171653D01*
X585138Y295768D02*
X589075Y295768D01*
X585138Y287500D02*
X589075Y287500D01*
X589075Y295768D01*
X585138Y287500D02*
X585138Y295768D01*
X590256Y296949D02*
X597342D01*
X590256Y284350D02*
X597342D01*
Y296949D01*
X590256Y284350D02*
Y296949D01*
X593898Y254626D02*
X598228D01*
X593898Y262894D02*
X598228D01*
X593898Y254626D02*
Y262894D01*
X598228Y254626D02*
Y262894D01*
X599311D02*
X603642D01*
X599311Y254626D02*
X603642D01*
Y262894D01*
X599311Y254626D02*
Y262894D01*
X611417Y238976D02*
Y243307D01*
X603150Y238976D02*
Y243307D01*
X611417D01*
X603150Y238976D02*
X611417D01*
X509154Y227362D02*
Y231693D01*
X517421Y227362D02*
Y231693D01*
X509154D02*
X517421D01*
X509154Y227362D02*
X517421D01*
X534842Y225787D02*
Y230118D01*
X543110Y225787D02*
Y230118D01*
X534842D02*
X543110D01*
X534842Y225787D02*
X543110D01*
X540846Y245472D02*
Y249803D01*
X549114Y245472D02*
Y249803D01*
X540846D02*
X549114D01*
X540846Y245472D02*
X549114D01*
X519488Y180118D02*
X523819D01*
X519488Y188386D02*
X523819D01*
X519488Y180118D02*
Y188386D01*
X523819Y180118D02*
Y188386D01*
X540110Y192933D02*
Y197264D01*
X548378Y192933D02*
Y197264D01*
X540110D02*
X548378D01*
X540110Y192933D02*
X548378D01*
X588091Y231693D02*
Y239961D01*
X592028Y231693D02*
Y239961D01*
X588091Y231693D02*
X592028D01*
X588091Y239961D02*
X592028D01*
X592717Y254626D02*
Y262894D01*
X588779Y254626D02*
Y262894D01*
X592717D01*
X588779Y254626D02*
X592717D01*
X540453Y165847D02*
X548721D01*
X540453Y161909D02*
X548721D01*
X540453D02*
Y165847D01*
X548721Y161909D02*
Y165847D01*
X612189Y212929D02*
Y221197D01*
X608252Y212929D02*
Y221197D01*
Y212929D02*
X612189D01*
X608252Y221197D02*
X612189D01*
X620445Y212823D02*
Y221091D01*
X616508Y212823D02*
Y221091D01*
Y212823D02*
X620445D01*
X616508Y221091D02*
X620445D01*
X534154Y243307D02*
X542421D01*
X534154Y239370D02*
X542421D01*
X534154D02*
Y243307D01*
X542421Y239370D02*
Y243307D01*
X551476Y172736D02*
Y176673D01*
X549508Y174705D02*
X553445D01*
X603346Y237992D02*
Y253740D01*
X583858D02*
X603346D01*
X583858Y237992D02*
Y253740D01*
Y237992D02*
X603346D01*
X506166Y211426D02*
X510681Y214587D01*
X512941Y201751D02*
X517456Y204912D01*
X510681Y214587D02*
X517456Y204912D01*
X506166Y211426D02*
X512941Y201751D01*
X518945Y205786D02*
X523460Y208948D01*
X512170Y215461D02*
X516685Y218623D01*
X512170Y215461D02*
X518945Y205786D01*
X516685Y218623D02*
X523460Y208948D01*
X611787Y231059D02*
X615724D01*
X613756Y229090D02*
Y233028D01*
X564702Y231966D02*
X573054Y240318D01*
X560805Y235863D02*
X569156Y244215D01*
X573054Y240318D01*
X560805Y235863D02*
X564702Y231966D01*
D104*
X472933Y215472D02*
X504173D01*
Y256181D01*
X472933D02*
X504173D01*
X472933Y215472D02*
Y256181D01*
X521260Y249803D02*
X584252D01*
Y311811D01*
X521260D02*
X584252D01*
X521260Y249803D02*
Y311811D01*
X584943Y167750D02*
X616262Y199069D01*
X543185Y209509D02*
X584943Y167750D01*
X543185Y209509D02*
X574504Y240827D01*
X616262Y199069D01*
X606102Y246260D02*
X621850D01*
X606102Y260433D02*
X621850D01*
X606102Y246260D02*
Y260433D01*
X621850Y246260D02*
Y260433D01*
X606496Y258563D02*
X622244D01*
X606496Y244390D02*
X622244D01*
X606496D02*
Y258563D01*
X622244Y244390D02*
Y258563D01*
X543110Y165945D02*
X559842D01*
X543110Y183465D02*
X559842D01*
X543110Y165945D02*
Y183465D01*
X559842Y165945D02*
Y183465D01*
X621630Y223972D02*
Y238146D01*
X605882Y223972D02*
Y238146D01*
X621630D01*
X605882Y223972D02*
X621630D01*
D105*
X557677Y247638D02*
D03*
X513189Y241339D02*
D03*
X618504Y263779D02*
D03*
X609252Y263681D02*
D03*
X619291Y239469D02*
D03*
X609350Y239764D02*
D03*
X531004Y169685D02*
D03*
X587106Y291634D02*
D03*
X596063Y258760D02*
D03*
X601476D02*
D03*
X607283Y241142D02*
D03*
X513287Y229528D02*
D03*
X538976Y227953D02*
D03*
X544980Y247638D02*
D03*
X521654Y184252D02*
D03*
X544244Y195098D02*
D03*
X590059Y235827D02*
D03*
X590748Y258760D02*
D03*
X544587Y163878D02*
D03*
X610220Y217063D02*
D03*
X618476Y216957D02*
D03*
X538287Y241339D02*
D03*
D106*
X534449Y175886D02*
D03*
X593799Y290650D02*
D03*
X530453Y198445D02*
D03*
X511811Y208169D02*
D03*
X517815Y212205D02*
D03*
X566929Y238090D02*
D03*
D107*
X527795Y192342D02*
Y204547D01*
X533110D01*
Y192342D02*
Y204547D01*
X527795Y192342D02*
X533110D01*
M02*
