G04*
G04 #@! TF.GenerationSoftware,Altium Limited,Altium Designer,21.0.8 (223)*
G04*
G04 Layer_Physical_Order=1*
G04 Layer_Color=255*
%FSLAX25Y25*%
%MOIN*%
G70*
G04*
G04 #@! TF.SameCoordinates,24BCDA9A-42F1-41D6-B0A9-C8EBA0504D6D*
G04*
G04*
G04 #@! TF.FilePolarity,Positive*
G04*
G01*
G75*
%ADD14C,0.01000*%
%ADD15C,0.00591*%
G04:AMPARAMS|DCode=16|XSize=23.62mil|YSize=23.62mil|CornerRadius=2.36mil|HoleSize=0mil|Usage=FLASHONLY|Rotation=270.000|XOffset=0mil|YOffset=0mil|HoleType=Round|Shape=RoundedRectangle|*
%AMROUNDEDRECTD16*
21,1,0.02362,0.01890,0,0,270.0*
21,1,0.01890,0.02362,0,0,270.0*
1,1,0.00472,-0.00945,-0.00945*
1,1,0.00472,-0.00945,0.00945*
1,1,0.00472,0.00945,0.00945*
1,1,0.00472,0.00945,-0.00945*
%
%ADD16ROUNDEDRECTD16*%
G04:AMPARAMS|DCode=17|XSize=47.24mil|YSize=53.15mil|CornerRadius=5.91mil|HoleSize=0mil|Usage=FLASHONLY|Rotation=270.000|XOffset=0mil|YOffset=0mil|HoleType=Round|Shape=RoundedRectangle|*
%AMROUNDEDRECTD17*
21,1,0.04724,0.04134,0,0,270.0*
21,1,0.03543,0.05315,0,0,270.0*
1,1,0.01181,-0.02067,-0.01772*
1,1,0.01181,-0.02067,0.01772*
1,1,0.01181,0.02067,0.01772*
1,1,0.01181,0.02067,-0.01772*
%
%ADD17ROUNDEDRECTD17*%
%ADD18R,0.03150X0.04882*%
%ADD19R,0.03740X0.09843*%
%ADD20R,0.04528X0.08661*%
%ADD21R,0.04567X0.04921*%
%ADD22R,0.04567X0.04724*%
%ADD23R,0.05906X0.04528*%
G04:AMPARAMS|DCode=24|XSize=47.24mil|YSize=18.9mil|CornerRadius=0mil|HoleSize=0mil|Usage=FLASHONLY|Rotation=225.000|XOffset=0mil|YOffset=0mil|HoleType=Round|Shape=Rectangle|*
%AMROTATEDRECTD24*
4,1,4,0.01002,0.02339,0.02339,0.01002,-0.01002,-0.02339,-0.02339,-0.01002,0.01002,0.02339,0.0*
%
%ADD24ROTATEDRECTD24*%

G04:AMPARAMS|DCode=25|XSize=47.24mil|YSize=18.9mil|CornerRadius=0mil|HoleSize=0mil|Usage=FLASHONLY|Rotation=315.000|XOffset=0mil|YOffset=0mil|HoleType=Round|Shape=Rectangle|*
%AMROTATEDRECTD25*
4,1,4,-0.02339,0.01002,-0.01002,0.02339,0.02339,-0.01002,0.01002,-0.02339,-0.02339,0.01002,0.0*
%
%ADD25ROTATEDRECTD25*%

%ADD26R,0.04331X0.02362*%
G04:AMPARAMS|DCode=27|XSize=19.68mil|YSize=23.62mil|CornerRadius=1.97mil|HoleSize=0mil|Usage=FLASHONLY|Rotation=0.000|XOffset=0mil|YOffset=0mil|HoleType=Round|Shape=RoundedRectangle|*
%AMROUNDEDRECTD27*
21,1,0.01968,0.01968,0,0,0.0*
21,1,0.01575,0.02362,0,0,0.0*
1,1,0.00394,0.00787,-0.00984*
1,1,0.00394,-0.00787,-0.00984*
1,1,0.00394,-0.00787,0.00984*
1,1,0.00394,0.00787,0.00984*
%
%ADD27ROUNDEDRECTD27*%
G04:AMPARAMS|DCode=28|XSize=19.68mil|YSize=23.62mil|CornerRadius=1.97mil|HoleSize=0mil|Usage=FLASHONLY|Rotation=270.000|XOffset=0mil|YOffset=0mil|HoleType=Round|Shape=RoundedRectangle|*
%AMROUNDEDRECTD28*
21,1,0.01968,0.01968,0,0,270.0*
21,1,0.01575,0.02362,0,0,270.0*
1,1,0.00394,-0.00984,-0.00787*
1,1,0.00394,-0.00984,0.00787*
1,1,0.00394,0.00984,0.00787*
1,1,0.00394,0.00984,-0.00787*
%
%ADD28ROUNDEDRECTD28*%
G04:AMPARAMS|DCode=29|XSize=55.12mil|YSize=39.37mil|CornerRadius=4.92mil|HoleSize=0mil|Usage=FLASHONLY|Rotation=0.000|XOffset=0mil|YOffset=0mil|HoleType=Round|Shape=RoundedRectangle|*
%AMROUNDEDRECTD29*
21,1,0.05512,0.02953,0,0,0.0*
21,1,0.04528,0.03937,0,0,0.0*
1,1,0.00984,0.02264,-0.01476*
1,1,0.00984,-0.02264,-0.01476*
1,1,0.00984,-0.02264,0.01476*
1,1,0.00984,0.02264,0.01476*
%
%ADD29ROUNDEDRECTD29*%
G04:AMPARAMS|DCode=30|XSize=23.62mil|YSize=23.62mil|CornerRadius=2.36mil|HoleSize=0mil|Usage=FLASHONLY|Rotation=180.000|XOffset=0mil|YOffset=0mil|HoleType=Round|Shape=RoundedRectangle|*
%AMROUNDEDRECTD30*
21,1,0.02362,0.01890,0,0,180.0*
21,1,0.01890,0.02362,0,0,180.0*
1,1,0.00472,-0.00945,0.00945*
1,1,0.00472,0.00945,0.00945*
1,1,0.00472,0.00945,-0.00945*
1,1,0.00472,-0.00945,-0.00945*
%
%ADD30ROUNDEDRECTD30*%
%ADD31O,0.01181X0.03347*%
%ADD32O,0.02854X0.01181*%
%ADD33R,0.02264X0.01921*%
G04:AMPARAMS|DCode=34|XSize=22.64mil|YSize=19.21mil|CornerRadius=0mil|HoleSize=0mil|Usage=FLASHONLY|Rotation=0.000|XOffset=0mil|YOffset=0mil|HoleType=Round|Shape=Octagon|*
%AMOCTAGOND34*
4,1,8,0.01132,-0.00480,0.01132,0.00480,0.00652,0.00961,-0.00652,0.00961,-0.01132,0.00480,-0.01132,-0.00480,-0.00652,-0.00961,0.00652,-0.00961,0.01132,-0.00480,0.0*
%
%ADD34OCTAGOND34*%

%ADD35R,0.03839X0.01772*%
G04:AMPARAMS|DCode=36|XSize=31.5mil|YSize=31.5mil|CornerRadius=3.94mil|HoleSize=0mil|Usage=FLASHONLY|Rotation=90.000|XOffset=0mil|YOffset=0mil|HoleType=Round|Shape=RoundedRectangle|*
%AMROUNDEDRECTD36*
21,1,0.03150,0.02362,0,0,90.0*
21,1,0.02362,0.03150,0,0,90.0*
1,1,0.00787,0.01181,0.01181*
1,1,0.00787,0.01181,-0.01181*
1,1,0.00787,-0.01181,-0.01181*
1,1,0.00787,-0.01181,0.01181*
%
%ADD36ROUNDEDRECTD36*%
G04:AMPARAMS|DCode=37|XSize=39.37mil|YSize=35.43mil|CornerRadius=4.43mil|HoleSize=0mil|Usage=FLASHONLY|Rotation=35.000|XOffset=0mil|YOffset=0mil|HoleType=Round|Shape=RoundedRectangle|*
%AMROUNDEDRECTD37*
21,1,0.03937,0.02657,0,0,35.0*
21,1,0.03051,0.03543,0,0,35.0*
1,1,0.00886,0.02012,-0.00213*
1,1,0.00886,-0.00488,-0.01964*
1,1,0.00886,-0.02012,0.00213*
1,1,0.00886,0.00488,0.01964*
%
%ADD37ROUNDEDRECTD37*%
G04:AMPARAMS|DCode=38|XSize=39.37mil|YSize=35.43mil|CornerRadius=4.43mil|HoleSize=0mil|Usage=FLASHONLY|Rotation=135.000|XOffset=0mil|YOffset=0mil|HoleType=Round|Shape=RoundedRectangle|*
%AMROUNDEDRECTD38*
21,1,0.03937,0.02657,0,0,135.0*
21,1,0.03051,0.03543,0,0,135.0*
1,1,0.00886,-0.00139,0.02018*
1,1,0.00886,0.02018,-0.00139*
1,1,0.00886,0.00139,-0.02018*
1,1,0.00886,-0.02018,0.00139*
%
%ADD38ROUNDEDRECTD38*%
%ADD73C,0.01575*%
%ADD74C,0.00709*%
%ADD75C,0.01968*%
%ADD76C,0.02362*%
%ADD77C,0.02480*%
%ADD78O,0.09118X0.04559*%
%ADD79O,0.09449X0.04724*%
%ADD80C,0.07087*%
%ADD81C,0.09449*%
%ADD82O,0.09449X0.09055*%
%ADD83C,0.03937*%
%ADD84P,0.05568X4X270.0*%
%ADD85P,0.05568X4X360.0*%
%ADD86C,0.03150*%
G36*
X585039Y254724D02*
X586909Y252854D01*
X601164D01*
Y251871D01*
X600840Y251737D01*
X600231Y251128D01*
X599902Y250332D01*
Y249471D01*
X600231Y248675D01*
X600840Y248066D01*
X601636Y247736D01*
X602498D01*
X603294Y248066D01*
X603903Y248675D01*
X604232Y249471D01*
Y250332D01*
X603903Y251128D01*
X603294Y251737D01*
X602970Y251871D01*
Y252854D01*
X614862D01*
Y240827D01*
X614769Y240773D01*
X614362Y240674D01*
X613839Y241197D01*
X613044Y241526D01*
X612182D01*
X611858Y241392D01*
X611358Y241726D01*
Y242717D01*
X611265Y243183D01*
X611001Y243579D01*
X610605Y243844D01*
X610138Y243937D01*
X609850D01*
Y241732D01*
X609350D01*
Y241232D01*
X607343D01*
Y240748D01*
X607382Y240551D01*
Y238976D01*
X607760Y238598D01*
Y236811D01*
X607817Y236524D01*
X607820Y236501D01*
X607541Y236024D01*
X602531D01*
Y242656D01*
X602998Y242849D01*
X603607Y243459D01*
X603937Y244254D01*
Y245116D01*
X603607Y245912D01*
X602998Y246521D01*
X602202Y246850D01*
X601341D01*
X600545Y246521D01*
X600532Y246508D01*
X600070Y246699D01*
Y246871D01*
X600001Y247217D01*
X599806Y247510D01*
X598842Y248473D01*
X598624Y248619D01*
Y249902D01*
X593604D01*
Y249902D01*
X593264Y249563D01*
X592222Y249567D01*
Y249902D01*
X587203D01*
Y249902D01*
X586889Y249589D01*
X586222Y249592D01*
X580931Y254126D01*
X581116Y254626D01*
X582165D01*
Y260531D01*
X576417D01*
Y254823D01*
X575748D01*
Y256004D01*
X573517D01*
Y256945D01*
X573631Y256992D01*
X574240Y257601D01*
X574570Y258397D01*
Y259259D01*
X574240Y260055D01*
X573631Y260664D01*
X572835Y260993D01*
X571974D01*
X571178Y260664D01*
X570569Y260055D01*
X570239Y259259D01*
Y258397D01*
X570569Y257601D01*
X571178Y256992D01*
X571293Y256945D01*
Y256004D01*
X568661D01*
Y254823D01*
X567633D01*
X567469Y255068D01*
X566288Y256249D01*
X566172Y256326D01*
X566063Y256413D01*
X566027Y256424D01*
X565995Y256445D01*
X565859Y256472D01*
X565725Y256510D01*
X564760Y256591D01*
X564553Y256608D01*
X564272Y256631D01*
Y256620D01*
X560039D01*
Y256631D01*
X559166Y256516D01*
X558352Y256179D01*
X557653Y255643D01*
X557528Y255480D01*
X557490Y255450D01*
X556894Y254758D01*
X556824Y254633D01*
X556744Y254515D01*
X556738Y254481D01*
X556721Y254451D01*
X556704Y254309D01*
X556676Y254169D01*
X556676Y253924D01*
Y252130D01*
X556744Y251785D01*
X556940Y251492D01*
X557324Y251108D01*
X557117Y250608D01*
X545118D01*
Y256004D01*
X543238D01*
X543031Y256504D01*
X543469Y256943D01*
X543799Y257739D01*
Y258600D01*
X543469Y259396D01*
X542860Y260005D01*
X542065Y260335D01*
X541203D01*
X540407Y260005D01*
X539798Y259396D01*
X539468Y258600D01*
Y257739D01*
X539798Y256943D01*
X540237Y256504D01*
X540030Y256004D01*
X538031D01*
Y250295D01*
X543739D01*
X543930Y249833D01*
X543522Y249426D01*
X542067D01*
X541744Y249361D01*
X541471Y249179D01*
X541288Y248905D01*
X541224Y248583D01*
Y246693D01*
X541288Y246370D01*
X541471Y246097D01*
X541744Y245914D01*
X542067Y245850D01*
X543957D01*
X544003Y245859D01*
X544193Y245669D01*
X545768D01*
X545958Y245859D01*
X546004Y245850D01*
X547459D01*
X550134Y243175D01*
X550130Y243154D01*
X549715Y242862D01*
X549063D01*
Y240902D01*
X548563D01*
Y240402D01*
X546431D01*
Y239921D01*
X546632Y239720D01*
X546840Y239303D01*
X546840D01*
X546840Y239303D01*
Y237503D01*
X544870Y235531D01*
X539210D01*
Y235631D01*
X538880Y236427D01*
X538271Y237036D01*
X537475Y237366D01*
X537391D01*
Y239325D01*
X537500Y239370D01*
X539075D01*
X539272Y239331D01*
X539756D01*
Y241339D01*
Y243346D01*
X539272D01*
X539075Y243307D01*
X537500D01*
X537122Y242929D01*
X535335D01*
X535027Y242868D01*
X534767Y242694D01*
X534593Y242433D01*
X534532Y242126D01*
Y240551D01*
X534593Y240244D01*
X534767Y239984D01*
X535027Y239809D01*
X535167Y239782D01*
Y236547D01*
X535167Y236547D01*
X535197Y236398D01*
X534879Y235631D01*
Y235531D01*
X533661D01*
Y243504D01*
X532874Y244291D01*
X533563Y244980D01*
X535630D01*
Y260335D01*
X538287Y262992D01*
X551575D01*
X556988Y258465D01*
X565453D01*
X570965Y263976D01*
X585039D01*
Y254724D01*
D02*
G37*
G36*
X558468Y313365D02*
X563483Y312704D01*
X568445Y311718D01*
X573332Y310408D01*
X578123Y308782D01*
X582672Y306898D01*
X582573Y306398D01*
X578031D01*
Y296563D01*
X578031Y296555D01*
X578013Y296063D01*
X576417D01*
Y289961D01*
X582165D01*
Y296055D01*
X582165Y296063D01*
X582184Y296555D01*
X583740D01*
Y299698D01*
X584278D01*
X584578Y299249D01*
X585294Y298771D01*
X586139Y298603D01*
X586984Y298771D01*
X587700Y299249D01*
X588179Y299966D01*
X588347Y300810D01*
X588179Y301655D01*
X587700Y302372D01*
X586984Y302850D01*
X586139Y303018D01*
X585294Y302850D01*
X584578Y302372D01*
X584278Y301922D01*
X583740D01*
Y305907D01*
X584165Y306171D01*
X587334Y304608D01*
X591716Y302079D01*
X595922Y299268D01*
X599936Y296188D01*
X603740Y292852D01*
X607317Y289275D01*
X610653Y285471D01*
X613732Y281458D01*
X616543Y277251D01*
X619073Y272870D01*
X621310Y268332D01*
X623246Y263658D01*
X624873Y258868D01*
X626182Y253981D01*
X627169Y249019D01*
X627829Y244003D01*
X628160Y238955D01*
Y236425D01*
Y233896D01*
X627829Y228847D01*
X627169Y223831D01*
X626182Y218869D01*
X624873Y213983D01*
X623246Y209192D01*
X621310Y204518D01*
X619073Y199981D01*
X617564Y197367D01*
X617068Y197302D01*
X615247Y199123D01*
X614886Y198787D01*
X614642Y198841D01*
X602017Y211466D01*
X601803Y211555D01*
X601594Y211653D01*
X601579Y211647D01*
X601565Y211653D01*
X601351Y211565D01*
X601258Y211531D01*
X600983Y211963D01*
X602593Y213573D01*
X602294Y213873D01*
X603620Y215198D01*
X603620Y215198D01*
X603861Y215559D01*
X603945Y215985D01*
Y216818D01*
X604522Y216933D01*
X605238Y217411D01*
X605717Y218128D01*
X605885Y218972D01*
X605717Y219817D01*
X605238Y220534D01*
X604522Y221012D01*
X603677Y221180D01*
X602832Y221012D01*
X602116Y220534D01*
X601637Y219817D01*
X601469Y218972D01*
X601637Y218128D01*
X601721Y218002D01*
Y216445D01*
X600721Y215445D01*
X598334Y217832D01*
X595043Y221124D01*
X595147Y221613D01*
X595788Y221860D01*
X596498Y221386D01*
X597342Y221217D01*
X598187Y221386D01*
X598904Y221864D01*
X599382Y222580D01*
X599550Y223425D01*
X599382Y224270D01*
X598904Y224986D01*
X598187Y225465D01*
X597342Y225633D01*
X596498Y225465D01*
X596025Y225750D01*
X595937Y226190D01*
X595459Y226906D01*
X594742Y227384D01*
X593898Y227552D01*
X593053Y227384D01*
X592337Y226906D01*
X591873Y226212D01*
X591226Y226201D01*
X591062Y226165D01*
X590897Y226132D01*
X590890Y226127D01*
X590882Y226126D01*
X590744Y226030D01*
X590604Y225936D01*
X590503Y225835D01*
X590082Y226085D01*
X589588Y226578D01*
X589591Y226630D01*
X589785Y227089D01*
X590460Y227223D01*
X591176Y227701D01*
X591655Y228418D01*
X591823Y229263D01*
X591767Y229542D01*
X592238Y229737D01*
X592435Y229443D01*
X593151Y228964D01*
X593996Y228796D01*
X594841Y228964D01*
X595557Y229443D01*
X596036Y230159D01*
X596204Y231004D01*
X596036Y231849D01*
X595557Y232565D01*
X594841Y233044D01*
X593996Y233212D01*
X593151Y233044D01*
X592611Y232682D01*
X591649Y233644D01*
Y234661D01*
X592028Y235039D01*
Y236614D01*
X592067Y236811D01*
Y237295D01*
X588051D01*
Y236811D01*
X588091Y236614D01*
Y235039D01*
X588469Y234661D01*
Y232874D01*
X588530Y232567D01*
X588704Y232306D01*
X588964Y232132D01*
X589272Y232071D01*
X589860D01*
X589976Y231908D01*
X589683Y231457D01*
X589615Y231470D01*
X588770Y231302D01*
X588054Y230824D01*
X587575Y230107D01*
X587441Y229433D01*
X586944Y229222D01*
X585807Y230360D01*
X583189Y232978D01*
X584202Y233990D01*
X584397Y234283D01*
X584466Y234629D01*
Y242387D01*
X584466Y242387D01*
X584397Y242732D01*
X584202Y243025D01*
X584202Y243025D01*
X580739Y246488D01*
Y252850D01*
X581194Y253059D01*
X585806Y249107D01*
X586016Y249038D01*
X586219Y248953D01*
X586887Y248950D01*
X586894Y248942D01*
X587203Y248539D01*
Y247909D01*
X587045Y247798D01*
X586703Y247687D01*
X586081Y248103D01*
X585236Y248271D01*
X584391Y248103D01*
X583675Y247624D01*
X583196Y246908D01*
X583028Y246063D01*
X583196Y245218D01*
X583675Y244502D01*
X584391Y244023D01*
X585236Y243855D01*
X586081Y244023D01*
X586352Y244204D01*
X586793Y243969D01*
Y243807D01*
X589713D01*
Y243307D01*
X590213D01*
Y241421D01*
X592632D01*
X592995Y241091D01*
X594569Y239517D01*
Y238320D01*
X593911Y237880D01*
X593433Y237164D01*
X593265Y236319D01*
X593433Y235474D01*
X593911Y234758D01*
X594628Y234279D01*
X595472Y234111D01*
X596317Y234279D01*
X596637Y234493D01*
X597087Y234192D01*
X596959Y233551D01*
X597127Y232706D01*
X597606Y231989D01*
X598322Y231511D01*
X599167Y231343D01*
X599201Y231349D01*
X599517Y230903D01*
X599374Y230184D01*
X599543Y229339D01*
X600021Y228623D01*
X600737Y228144D01*
X601582Y227976D01*
X602427Y228144D01*
X603143Y228623D01*
X603622Y229339D01*
X603790Y230184D01*
X603622Y231029D01*
X603143Y231745D01*
X602531Y232154D01*
Y235384D01*
X607541D01*
X607619Y235417D01*
X607703Y235405D01*
X607837Y235507D01*
X607993Y235572D01*
X608025Y235650D01*
X608093Y235701D01*
X608302Y236060D01*
X608563Y236008D01*
X610138D01*
X610445Y236069D01*
X610706Y236243D01*
X610880Y236504D01*
X610941Y236811D01*
Y237365D01*
X611566D01*
X611566Y237364D01*
X611672Y237386D01*
X611768Y237321D01*
X612613Y237153D01*
X613458Y237321D01*
X614111Y237758D01*
X614416Y237704D01*
X614650Y237612D01*
X614693Y237399D01*
X615171Y236683D01*
X615887Y236204D01*
X616732Y236036D01*
X617266Y236142D01*
X617601Y236187D01*
X617936Y235948D01*
X618197Y235774D01*
X618504Y235713D01*
X620079D01*
X620386Y235774D01*
X620646Y235948D01*
X620821Y236209D01*
X620882Y236516D01*
Y238303D01*
X621260Y238681D01*
Y240256D01*
X620882Y240634D01*
Y241359D01*
X620897Y241437D01*
Y243186D01*
X620951Y243222D01*
X621429Y243939D01*
X621597Y244783D01*
X621462Y245465D01*
X621760Y245965D01*
X621850D01*
Y247637D01*
X622291Y247872D01*
X622478Y247747D01*
X623323Y247580D01*
X624168Y247747D01*
X624884Y248226D01*
X625363Y248942D01*
X625531Y249787D01*
X625363Y250632D01*
X624884Y251348D01*
X624168Y251827D01*
X623323Y251995D01*
X622478Y251827D01*
X622315Y251718D01*
X622159Y251823D01*
X621850Y251884D01*
Y253248D01*
X621850D01*
Y253445D01*
X621850D01*
Y256988D01*
X620700D01*
Y258985D01*
X620578Y259599D01*
X620230Y260120D01*
X620230Y260120D01*
X618486Y261864D01*
X617965Y262212D01*
X617351Y262334D01*
X617351Y262334D01*
X608029D01*
X607784Y262834D01*
X608048Y263178D01*
X608308Y263804D01*
X608330Y263976D01*
X603268D01*
X603291Y263804D01*
X603550Y263178D01*
X603665Y263029D01*
X603553Y262353D01*
X603525Y262334D01*
X602920D01*
X602744Y262452D01*
X602421Y262516D01*
X601353D01*
X601279Y262531D01*
X601206Y262516D01*
X600531D01*
X600209Y262452D01*
X599935Y262269D01*
X599753Y261996D01*
X599688Y261673D01*
Y260999D01*
X599674Y260925D01*
X599688Y260852D01*
Y259784D01*
X599698Y259737D01*
X599508Y259547D01*
Y257972D01*
X599123Y257695D01*
X598416D01*
X598032Y257972D01*
Y259547D01*
X597842Y259737D01*
X597851Y259784D01*
Y261673D01*
X597787Y261996D01*
X597604Y262269D01*
X597331Y262452D01*
X597175Y262483D01*
Y263034D01*
X597427Y263203D01*
X597906Y263919D01*
X598074Y264764D01*
X597906Y265609D01*
X597427Y266325D01*
X596711Y266804D01*
X595866Y266971D01*
X595021Y266804D01*
X594305Y266325D01*
X593826Y265609D01*
X593658Y264764D01*
X593826Y263919D01*
X594305Y263203D01*
X594696Y262941D01*
X594724Y262802D01*
X594662Y262363D01*
X594522Y262269D01*
X594339Y261996D01*
X594308Y261840D01*
X592313D01*
X592277Y262020D01*
X592103Y262280D01*
X591843Y262454D01*
X591535Y262515D01*
X589961D01*
X589653Y262454D01*
X589393Y262280D01*
X589219Y262020D01*
X589158Y261713D01*
Y259926D01*
X588779Y259547D01*
Y257972D01*
X589158Y257594D01*
Y255807D01*
X589219Y255500D01*
X589393Y255239D01*
X589653Y255065D01*
X589961Y255004D01*
X591535D01*
X591843Y255065D01*
X592103Y255239D01*
X592277Y255500D01*
X592338Y255807D01*
Y255888D01*
X594275D01*
Y255847D01*
X594339Y255524D01*
X594522Y255250D01*
X594796Y255068D01*
X595118Y255003D01*
X597008D01*
X597331Y255068D01*
X597604Y255250D01*
X597787Y255524D01*
X597851Y255847D01*
Y255888D01*
X599688D01*
Y255847D01*
X599753Y255524D01*
X599935Y255250D01*
X600209Y255068D01*
X600531Y255003D01*
X601164D01*
Y253493D01*
X587174D01*
X585679Y254989D01*
Y263976D01*
X585491Y264428D01*
X585039Y264616D01*
X570965D01*
X570513Y264428D01*
X565188Y259104D01*
X557220D01*
X551985Y263482D01*
X551777Y263548D01*
X551575Y263631D01*
X538287D01*
X537835Y263444D01*
X535178Y260787D01*
X534991Y260335D01*
Y245620D01*
X533563D01*
X533111Y245432D01*
X532422Y244743D01*
X532235Y244291D01*
X532422Y243839D01*
X533022Y243239D01*
Y235531D01*
X533209Y235080D01*
X533661Y234892D01*
X534879D01*
X534900Y234881D01*
X535005Y234355D01*
X535483Y233639D01*
X536200Y233161D01*
X537044Y232993D01*
X537889Y233161D01*
X538605Y233639D01*
X539084Y234355D01*
X539189Y234881D01*
X539210Y234892D01*
X543577D01*
X543768Y234430D01*
X540306Y230968D01*
X540110Y230675D01*
X540042Y230329D01*
Y230306D01*
X539764Y229921D01*
X538646D01*
X538435Y230062D01*
X537953Y230158D01*
X537508D01*
Y227953D01*
Y225747D01*
X537953D01*
X538435Y225843D01*
X538646Y225984D01*
X539764D01*
X539954Y226174D01*
X540000Y226165D01*
X541890D01*
X542212Y226229D01*
X542486Y226412D01*
X542669Y226685D01*
X542733Y227008D01*
Y227050D01*
X546528D01*
X550114Y223464D01*
X550407Y223268D01*
X550752Y223199D01*
X556056D01*
X556744Y222511D01*
X554210Y219976D01*
X552122Y217888D01*
X550034Y215800D01*
X547946Y213712D01*
X549859Y211799D01*
X550173Y211430D01*
X545997Y207254D01*
X546312Y206939D01*
X545281Y205909D01*
X543993D01*
X543586Y206181D01*
X542741Y206349D01*
X541896Y206181D01*
X541180Y205702D01*
X540701Y204986D01*
X540533Y204141D01*
X540701Y203296D01*
X541180Y202580D01*
X541896Y202101D01*
X542741Y201933D01*
X543586Y202101D01*
X544302Y202580D01*
X544781Y203296D01*
X544858Y203685D01*
X545742D01*
X545742Y203685D01*
X546167Y203770D01*
X546528Y204011D01*
X547614Y205096D01*
X548238Y205013D01*
X550173Y203078D01*
X552344Y200906D01*
X552296Y200426D01*
X549548Y197679D01*
X548862D01*
X548862Y197679D01*
X548437Y197594D01*
X548076Y197353D01*
X547519Y196796D01*
X547480Y196822D01*
X547157Y196886D01*
X545268D01*
X545221Y196877D01*
X545031Y197067D01*
X543457D01*
X543267Y196877D01*
X543221Y196886D01*
X541331D01*
X541008Y196822D01*
X540735Y196639D01*
X540552Y196366D01*
X540521Y196210D01*
X532637D01*
Y196280D01*
X532561Y196664D01*
X532421Y196873D01*
Y200017D01*
X532561Y200226D01*
X532637Y200610D01*
Y202972D01*
X532561Y203357D01*
X532343Y203682D01*
X532018Y203900D01*
X531924Y203918D01*
Y205549D01*
X532448Y206072D01*
X532735Y206130D01*
X533451Y206608D01*
X533929Y207324D01*
X534097Y208169D01*
X533929Y209014D01*
X533451Y209730D01*
X532735Y210209D01*
X531890Y210377D01*
X531045Y210209D01*
X530329Y209730D01*
X529850Y209014D01*
X529682Y208169D01*
X529850Y207324D01*
X530132Y206902D01*
X530026Y206795D01*
X529785Y206435D01*
X529700Y206009D01*
X529700Y206009D01*
Y203976D01*
X529272D01*
X528888Y203900D01*
X528562Y203682D01*
X528344Y203357D01*
X528268Y202972D01*
Y200610D01*
X528344Y200226D01*
X528484Y200017D01*
Y196873D01*
X528344Y196664D01*
X528268Y196280D01*
Y193917D01*
X528344Y193533D01*
X528072Y193041D01*
X516437D01*
X516191Y193541D01*
X516749Y194268D01*
X517284Y195561D01*
X517467Y196949D01*
X517284Y198336D01*
X516749Y199629D01*
X515897Y200740D01*
X514787Y201591D01*
X513760Y202017D01*
X513754Y202560D01*
X513847Y202601D01*
X516347Y204351D01*
X516631Y204648D01*
X516780Y205032D01*
X516771Y205443D01*
X516606Y205819D01*
X516378Y206144D01*
X517592Y207358D01*
X518090Y207315D01*
X518384Y206896D01*
X518681Y206611D01*
X519064Y206462D01*
X519475Y206471D01*
X519851Y206637D01*
X522351Y208387D01*
X522635Y208684D01*
X522784Y209067D01*
X522775Y209478D01*
X522609Y209855D01*
X522463Y210064D01*
X527263Y214863D01*
X527504Y215224D01*
X527588Y215650D01*
X527588Y215650D01*
Y215976D01*
X529133Y217521D01*
X529133Y217521D01*
X529374Y217882D01*
X529458Y218307D01*
Y220580D01*
X529908Y220880D01*
X530386Y221596D01*
X530554Y222441D01*
X530386Y223286D01*
X529908Y224002D01*
X529191Y224481D01*
X528346Y224649D01*
X527502Y224481D01*
X526785Y224002D01*
X526307Y223286D01*
X526139Y222441D01*
X526307Y221596D01*
X526785Y220880D01*
X527235Y220580D01*
Y218768D01*
X525690Y217223D01*
X525449Y216863D01*
X525364Y216437D01*
X525364Y216437D01*
Y216110D01*
X521426Y212172D01*
X520961Y212414D01*
X520976Y212495D01*
X519169Y215075D01*
X519161Y215100D01*
X519664Y215603D01*
X520461D01*
X520486Y215565D01*
X521202Y215086D01*
X522047Y214918D01*
X522892Y215086D01*
X523608Y215565D01*
X524087Y216281D01*
X524255Y217126D01*
X524087Y217971D01*
X523608Y218687D01*
X522892Y219166D01*
X522047Y219334D01*
X521202Y219166D01*
X520486Y218687D01*
X520008Y217971D01*
X519979Y217827D01*
X519203D01*
X519203Y217827D01*
X518778Y217742D01*
X518417Y217501D01*
X518009Y217093D01*
X517511Y217136D01*
X517246Y217514D01*
X516949Y217798D01*
X516566Y217947D01*
X516155Y217938D01*
X515779Y217773D01*
X513279Y216022D01*
X512995Y215725D01*
X512846Y215342D01*
X512855Y214931D01*
X513021Y214555D01*
X514545Y212378D01*
X514708Y212222D01*
X514654Y211914D01*
X516445Y209356D01*
X515464Y208375D01*
X514918Y208537D01*
X513165Y211040D01*
X512858Y211094D01*
X512767Y211301D01*
X511242Y213478D01*
X510945Y213763D01*
X510562Y213912D01*
X510372Y213908D01*
X509872Y214284D01*
Y217128D01*
X509998Y217153D01*
X510715Y217632D01*
X511193Y218348D01*
X511361Y219193D01*
X511193Y220038D01*
X510715Y220754D01*
X509998Y221233D01*
X509154Y221401D01*
X508309Y221233D01*
X507592Y220754D01*
X507114Y220038D01*
X506946Y219193D01*
X507114Y218348D01*
X507592Y217632D01*
X507648Y217595D01*
Y212248D01*
X507275Y211987D01*
X506991Y211690D01*
X506842Y211307D01*
X506851Y210896D01*
X507017Y210520D01*
X508541Y208343D01*
X508705Y208186D01*
X508650Y207879D01*
X510457Y205299D01*
X510764Y205244D01*
X510855Y205037D01*
X512380Y202860D01*
X512479Y202765D01*
X512252Y202291D01*
X512106Y202310D01*
X510719Y202127D01*
X509426Y201591D01*
X508316Y200740D01*
X507464Y199629D01*
X506928Y198336D01*
X506745Y196949D01*
X506928Y195561D01*
X507464Y194268D01*
X507804Y193825D01*
X507583Y193291D01*
X507327Y193257D01*
X507065Y193518D01*
X506705Y193760D01*
X506279Y193844D01*
X506279Y193844D01*
X503974D01*
X503969Y193877D01*
X503712Y194499D01*
X503301Y195034D01*
X502767Y195444D01*
X502144Y195702D01*
X501476Y195790D01*
X500808Y195702D01*
X500434Y196076D01*
X500522Y196744D01*
X500434Y197412D01*
X500176Y198035D01*
X499766Y198569D01*
X499231Y198979D01*
X498609Y199237D01*
X497941Y199325D01*
X497752Y199301D01*
X497519Y199774D01*
X498024Y200280D01*
X494405Y203899D01*
X490786Y200280D01*
X494405Y196661D01*
X494911Y197166D01*
X495385Y196933D01*
X495360Y196744D01*
X495448Y196076D01*
X495706Y195454D01*
X496116Y194919D01*
X496650Y194509D01*
X497273Y194251D01*
X497941Y194163D01*
X498609Y194251D01*
X498983Y193877D01*
X498895Y193209D01*
X498983Y192541D01*
X499241Y191918D01*
X499651Y191384D01*
X500186Y190973D01*
X500808Y190716D01*
X501476Y190628D01*
X502144Y190716D01*
X502519Y190341D01*
X502431Y189673D01*
X502519Y189005D01*
X502777Y188383D01*
X503187Y187848D01*
X503721Y187438D01*
X504344Y187180D01*
X505012Y187092D01*
X505680Y187180D01*
X506054Y186806D01*
X505966Y186138D01*
X506054Y185470D01*
X506312Y184847D01*
X506722Y184312D01*
X507257Y183902D01*
X507879Y183644D01*
X508547Y183556D01*
X508734Y183581D01*
X508813Y183546D01*
X509159Y183133D01*
X509089Y182602D01*
X509191Y181827D01*
X509490Y181105D01*
X509659Y180885D01*
X511729Y182956D01*
X513800Y185026D01*
X513580Y185195D01*
X512858Y185494D01*
X512083Y185596D01*
X511723Y185549D01*
X511287Y185907D01*
X511272Y186118D01*
X511663Y186543D01*
X519866D01*
Y185276D01*
X519875Y185229D01*
X519685Y185039D01*
Y183922D01*
X519544Y183711D01*
X519448Y183228D01*
Y182783D01*
X521654D01*
X523859D01*
Y183228D01*
X523763Y183711D01*
X523622Y183922D01*
Y185039D01*
X523432Y185229D01*
X523441Y185276D01*
Y186543D01*
X558259D01*
X562309Y182493D01*
X562670Y182252D01*
X563095Y182168D01*
X563095Y182168D01*
X569499D01*
X569499Y182168D01*
X569925Y182252D01*
X570285Y182493D01*
X570757D01*
X571136Y182115D01*
X571087Y181635D01*
X567237Y177785D01*
X559976D01*
X559550Y177700D01*
X559365Y177576D01*
X558894D01*
X558581Y177786D01*
X558120Y177877D01*
X556447D01*
X555986Y177786D01*
X555595Y177525D01*
X555334Y177134D01*
X555243Y176673D01*
X555334Y176212D01*
X555595Y175822D01*
Y175556D01*
X555334Y175166D01*
X555243Y174705D01*
X555334Y174244D01*
X555595Y173853D01*
Y173588D01*
X555334Y173197D01*
X555243Y172736D01*
X555334Y172275D01*
X555595Y171885D01*
X555986Y171624D01*
X556447Y171532D01*
X558120D01*
X558581Y171624D01*
X558894Y171833D01*
X559231D01*
X559417Y171709D01*
X559842Y171624D01*
X570186D01*
X570186Y171624D01*
X570611Y171709D01*
X570972Y171950D01*
X572812Y173790D01*
X573703D01*
X573723Y173738D01*
X573786Y173290D01*
X573161Y172872D01*
X572683Y172156D01*
X572514Y171311D01*
X572683Y170466D01*
X573161Y169750D01*
X573877Y169272D01*
X574722Y169104D01*
X575567Y169272D01*
X576283Y169750D01*
X576762Y170466D01*
X576930Y171311D01*
X576824Y171844D01*
X579116Y174135D01*
X579487Y173764D01*
X583663Y177939D01*
X581575Y180027D01*
X579404Y182199D01*
X577316Y184287D01*
X575228Y186375D01*
X573140Y188462D01*
X571136Y190467D01*
X568964Y192638D01*
X566496Y195106D01*
X568937Y197548D01*
X569193Y197497D01*
X570038Y197665D01*
X570754Y198144D01*
X571233Y198860D01*
X571401Y199705D01*
X571233Y200550D01*
X570754Y201266D01*
X570038Y201744D01*
X569193Y201912D01*
X568348Y201744D01*
X567632Y201266D01*
X567153Y200550D01*
X566985Y199705D01*
X567145Y198901D01*
X564923Y196679D01*
X564788Y196814D01*
X562700Y198902D01*
X560696Y200906D01*
X558034Y203568D01*
X558353Y203957D01*
X558556Y203821D01*
X558981Y203737D01*
X558981Y203737D01*
X561665D01*
X561965Y203287D01*
X562681Y202809D01*
X563526Y202641D01*
X564371Y202809D01*
X565088Y203287D01*
X565566Y204004D01*
X565734Y204849D01*
X565566Y205693D01*
X565088Y206410D01*
X564371Y206888D01*
X563526Y207056D01*
X562681Y206888D01*
X561965Y206410D01*
X561665Y205960D01*
X559442D01*
X557609Y207793D01*
X557855Y208254D01*
X558007Y208224D01*
X558834D01*
X558834Y208224D01*
X559259Y208308D01*
X559620Y208549D01*
X560158Y209088D01*
X560575Y208810D01*
X561420Y208642D01*
X562264Y208810D01*
X562981Y209288D01*
X563459Y210004D01*
X563627Y210849D01*
X563459Y211694D01*
X562981Y212411D01*
X562264Y212889D01*
X561420Y213057D01*
X560575Y212889D01*
X559858Y212411D01*
X559380Y211694D01*
X559320Y211395D01*
X558420Y210495D01*
X555750Y213165D01*
X556597Y214012D01*
X557761Y212848D01*
X558122Y212607D01*
X558547Y212522D01*
X558973Y212607D01*
X559334Y212848D01*
X559334Y212848D01*
X560223Y213738D01*
X562616D01*
X563608Y212745D01*
X563969Y212504D01*
X564394Y212420D01*
X564394Y212420D01*
X567429D01*
X567562Y211750D01*
X568041Y211033D01*
X568757Y210555D01*
X569602Y210387D01*
X570447Y210555D01*
X571163Y211033D01*
X571642Y211750D01*
X571810Y212595D01*
X571642Y213439D01*
X571163Y214156D01*
X570447Y214634D01*
X569602Y214802D01*
X568757Y214634D01*
X568747Y214627D01*
X568665Y214643D01*
X568665Y214643D01*
X564855D01*
X564109Y215389D01*
X564263Y215914D01*
X564277Y215928D01*
X564544Y215935D01*
X565206Y215492D01*
X566051Y215324D01*
X566896Y215492D01*
X567612Y215970D01*
X568091Y216687D01*
X568259Y217531D01*
X568091Y218376D01*
X567612Y219093D01*
X566896Y219571D01*
X566051Y219739D01*
X565206Y219571D01*
X564490Y219093D01*
X564011Y218376D01*
X563998Y218307D01*
X561546D01*
X561354Y218769D01*
X562561Y219976D01*
X564733Y222147D01*
X566737Y224152D01*
X568825Y226240D01*
X570623Y228038D01*
X570913Y227749D01*
X571935Y228770D01*
X569557Y231148D01*
X570264Y231855D01*
X572642Y229478D01*
X573663Y230499D01*
X573374Y230789D01*
X575172Y232587D01*
X575542Y232273D01*
X577455Y230360D01*
X579842Y227973D01*
X578818Y226948D01*
X578577Y226587D01*
X578492Y226162D01*
X578215Y225883D01*
X578150Y225830D01*
X577305Y225662D01*
X576588Y225183D01*
X576110Y224467D01*
X575942Y223622D01*
X576110Y222777D01*
X576588Y222061D01*
X577305Y221582D01*
X578150Y221414D01*
X578995Y221582D01*
X579711Y222061D01*
X580189Y222777D01*
X580357Y223622D01*
X580252Y224152D01*
X580390Y224290D01*
X580390Y224290D01*
X580631Y224651D01*
X580716Y225076D01*
Y225701D01*
X581415Y226400D01*
X583802Y224013D01*
X585807Y222008D01*
X587894Y219920D01*
X589982Y217832D01*
X592070Y215745D01*
X594105Y213710D01*
X594195Y213092D01*
X583619Y202517D01*
X583122Y202566D01*
X582897Y202902D01*
X582181Y203381D01*
X581336Y203549D01*
X580491Y203381D01*
X579775Y202902D01*
X579296Y202186D01*
X579129Y201341D01*
X579296Y200496D01*
X579775Y199780D01*
X580491Y199301D01*
X581336Y199133D01*
X582181Y199301D01*
X582488Y199506D01*
X582665Y199388D01*
X583090Y199303D01*
X583516Y199388D01*
X583877Y199629D01*
X595767Y211519D01*
X596253Y211490D01*
X596385Y211430D01*
X598270Y209545D01*
X598338Y208930D01*
X576969Y189395D01*
X576962Y189381D01*
X576948Y189375D01*
X576860Y189162D01*
X576761Y188952D01*
X576767Y188938D01*
X576761Y188924D01*
X576849Y188710D01*
X576928Y188492D01*
X576942Y188486D01*
X576948Y188472D01*
X589717Y175703D01*
X589712Y175445D01*
Y175445D01*
X593038Y172120D01*
X592989Y171622D01*
X591716Y170772D01*
X587334Y168242D01*
X582797Y166005D01*
X578123Y164068D01*
X573332Y162442D01*
X568445Y161133D01*
X563483Y160146D01*
X558468Y159485D01*
X553419Y159155D01*
X548360D01*
X543312Y159485D01*
X538296Y160146D01*
X533334Y161133D01*
X528447Y162442D01*
X523657Y164068D01*
X518983Y166005D01*
X514445Y168242D01*
X510064Y170772D01*
X505857Y173582D01*
X501844Y176662D01*
X498040Y179998D01*
X494462Y183575D01*
X491127Y187379D01*
X488047Y191393D01*
X485236Y195599D01*
X482707Y199981D01*
X480469Y204518D01*
X478533Y209192D01*
X476907Y213983D01*
X475597Y218869D01*
X474610Y223831D01*
X473950Y228847D01*
X473619Y233896D01*
Y236425D01*
Y238955D01*
X473950Y244003D01*
X474610Y249019D01*
X475597Y253981D01*
X476907Y258868D01*
X478533Y263658D01*
X480469Y268332D01*
X482707Y272870D01*
X485236Y277251D01*
X488047Y281458D01*
X491127Y285471D01*
X494462Y289275D01*
X498040Y292852D01*
X501844Y296188D01*
X505857Y299268D01*
X510064Y302079D01*
X514445Y304608D01*
X518983Y306846D01*
X523657Y308782D01*
X528447Y310408D01*
X533334Y311718D01*
X538296Y312704D01*
X543312Y313365D01*
X548360Y313696D01*
X553419D01*
X558468Y313365D01*
D02*
G37*
G36*
X560146Y245432D02*
X560591D01*
X560613Y245414D01*
Y241814D01*
X558121Y239323D01*
X557925Y239030D01*
X557878Y238790D01*
X557413Y238548D01*
X555309Y240652D01*
Y242453D01*
X554490D01*
Y245142D01*
X555198Y245850D01*
X556653D01*
X556700Y245859D01*
X556890Y245669D01*
X558008D01*
X558218Y245528D01*
X558701Y245432D01*
X559146D01*
Y247638D01*
X560146D01*
Y245432D01*
D02*
G37*
%LPC*%
G36*
X612811Y249917D02*
X610146D01*
Y248236D01*
X612811D01*
Y249917D01*
D02*
G37*
G36*
X609146D02*
X606480D01*
Y248236D01*
X609146D01*
Y249917D01*
D02*
G37*
G36*
X612811Y247236D02*
X610146D01*
Y245555D01*
X612811D01*
Y247236D01*
D02*
G37*
G36*
X609146D02*
X606480D01*
Y245555D01*
X609146D01*
Y247236D01*
D02*
G37*
G36*
X608850Y243937D02*
X608563D01*
X608096Y243844D01*
X607700Y243579D01*
X607436Y243183D01*
X607343Y242717D01*
Y242232D01*
X608850D01*
Y243937D01*
D02*
G37*
G36*
X541240Y243346D02*
X540756D01*
Y241839D01*
X542460D01*
Y242126D01*
X542368Y242593D01*
X542103Y242989D01*
X541707Y243253D01*
X541240Y243346D01*
D02*
G37*
G36*
X548063Y242862D02*
X547411D01*
X546431Y241882D01*
Y241402D01*
X548063D01*
Y242862D01*
D02*
G37*
G36*
X542460Y240839D02*
X540756D01*
Y239331D01*
X541240D01*
X541707Y239424D01*
X542103Y239688D01*
X542368Y240084D01*
X542460Y240551D01*
Y240839D01*
D02*
G37*
G36*
X553831Y306807D02*
X551756D01*
Y306398D01*
X544004D01*
X543504Y306398D01*
X543004Y306398D01*
X539173D01*
Y300335D01*
X543004D01*
X543504Y300335D01*
X544004Y300335D01*
X544766D01*
Y276969D01*
X544835Y276623D01*
X545031Y276330D01*
X555821Y265540D01*
X555666Y264764D01*
X555834Y263919D01*
X556313Y263203D01*
X557029Y262724D01*
X557874Y262556D01*
X558719Y262724D01*
X559435Y263203D01*
X559914Y263919D01*
X560062Y264663D01*
X560366Y264864D01*
X560558Y264932D01*
X560769Y264791D01*
X561614Y264623D01*
X562459Y264791D01*
X563175Y265270D01*
X563654Y265986D01*
X563822Y266831D01*
X563654Y267676D01*
X563175Y268392D01*
X562459Y268870D01*
X561614Y269039D01*
X560769Y268870D01*
X560347Y268588D01*
X551100Y277835D01*
Y300335D01*
X551756D01*
Y299925D01*
X553831D01*
Y303366D01*
Y306807D01*
D02*
G37*
G36*
X556906D02*
X554831D01*
Y303366D01*
Y299925D01*
X556906D01*
Y300335D01*
X557758D01*
Y279331D01*
X557827Y278985D01*
X558023Y278692D01*
X562888Y273827D01*
X562724Y273581D01*
X562556Y272736D01*
X562724Y271891D01*
X563203Y271175D01*
X563919Y270696D01*
X564764Y270529D01*
X565609Y270696D01*
X566325Y271175D01*
X566833Y271035D01*
X566956Y270415D01*
X567435Y269699D01*
X568151Y269220D01*
X568996Y269052D01*
X569841Y269220D01*
X570557Y269699D01*
X571036Y270415D01*
X571204Y271260D01*
X571036Y272105D01*
X570557Y272821D01*
X569841Y273300D01*
X568996Y273468D01*
X568612Y273391D01*
X568226Y273709D01*
Y299981D01*
X568580Y300335D01*
X569488Y300335D01*
X569988Y300335D01*
X573819D01*
Y306398D01*
X569988D01*
X569488Y306398D01*
X568988Y306398D01*
X565658D01*
X565158Y306398D01*
X564657Y306398D01*
X561327D01*
X560827Y306398D01*
X560327Y306398D01*
X556906D01*
Y306807D01*
D02*
G37*
G36*
X526693Y306398D02*
X521772D01*
Y295374D01*
X526693D01*
Y297388D01*
X527193Y297539D01*
X527314Y297358D01*
X528030Y296880D01*
X528875Y296712D01*
X529720Y296880D01*
X530436Y297358D01*
X530915Y298074D01*
X531083Y298919D01*
X530915Y299764D01*
X530436Y300481D01*
X529720Y300959D01*
X528875Y301127D01*
X528030Y300959D01*
X527314Y300481D01*
X527193Y300299D01*
X526693Y300451D01*
Y306398D01*
D02*
G37*
G36*
X593299Y297191D02*
X591535D01*
X590953Y297075D01*
X590460Y296745D01*
X590130Y296252D01*
X590014Y295669D01*
Y295598D01*
X588534D01*
X588361Y295714D01*
X587894Y295807D01*
X587606D01*
Y293602D01*
X587106D01*
Y293102D01*
X585099D01*
Y292618D01*
X585138Y292421D01*
Y290846D01*
X585516Y290468D01*
Y288681D01*
X585577Y288374D01*
X585751Y288113D01*
X586012Y287939D01*
X586151Y287912D01*
Y287115D01*
X585858Y286919D01*
X585379Y286203D01*
X585211Y285358D01*
X585379Y284513D01*
X585858Y283797D01*
X586574Y283318D01*
X587419Y283150D01*
X588264Y283318D01*
X588980Y283797D01*
X589458Y284513D01*
X589627Y285358D01*
X589583Y285574D01*
X589931Y285922D01*
X590431Y285820D01*
Y285630D01*
X590516Y285208D01*
X590755Y284849D01*
X591113Y284610D01*
X591535Y284526D01*
X596063D01*
X596485Y284610D01*
X596843Y284849D01*
X597083Y285208D01*
X597167Y285630D01*
Y288583D01*
X597163Y288600D01*
X597342Y288779D01*
Y291946D01*
X597469Y292134D01*
X597584Y292717D01*
Y293693D01*
X593799D01*
Y294193D01*
X593299D01*
Y297191D01*
D02*
G37*
G36*
X596063D02*
X594299D01*
Y294693D01*
X597584D01*
Y295669D01*
X597469Y296252D01*
X597139Y296745D01*
X596645Y297075D01*
X596063Y297191D01*
D02*
G37*
G36*
X586606Y295807D02*
X586319D01*
X585852Y295714D01*
X585456Y295449D01*
X585191Y295054D01*
X585099Y294587D01*
Y294102D01*
X586606D01*
Y295807D01*
D02*
G37*
G36*
X515169Y297001D02*
X511551Y293382D01*
X512056Y292876D01*
X511823Y292403D01*
X511634Y292428D01*
X510966Y292340D01*
X510343Y292082D01*
X509809Y291672D01*
X509399Y291137D01*
X509141Y290515D01*
X509053Y289847D01*
X509141Y289178D01*
X508767Y288804D01*
X508098Y288892D01*
X507430Y288804D01*
X506808Y288546D01*
X506273Y288136D01*
X505863Y287602D01*
X505605Y286979D01*
X505517Y286311D01*
X505605Y285643D01*
X505231Y285269D01*
X504563Y285357D01*
X503895Y285269D01*
X503272Y285011D01*
X502738Y284601D01*
X502328Y284066D01*
X502070Y283443D01*
X501982Y282775D01*
X502070Y282107D01*
X501695Y281733D01*
X501027Y281821D01*
X500359Y281733D01*
X499737Y281475D01*
X499202Y281065D01*
X498792Y280531D01*
X498534Y279908D01*
X498446Y279240D01*
X498534Y278572D01*
X498160Y278198D01*
X497492Y278286D01*
X496824Y278198D01*
X496201Y277940D01*
X495667Y277530D01*
X495257Y276995D01*
X494999Y276373D01*
X494911Y275704D01*
X494999Y275036D01*
X495257Y274414D01*
X495667Y273879D01*
X496201Y273469D01*
X496824Y273211D01*
X497492Y273123D01*
X498160Y273211D01*
X498782Y273469D01*
X499317Y273879D01*
X499415Y274008D01*
X499915Y273838D01*
Y265056D01*
X499915Y265056D01*
X500000Y264631D01*
X500241Y264270D01*
X506362Y258149D01*
X506362Y258149D01*
X506723Y257908D01*
X507148Y257823D01*
X507148Y257823D01*
X508208D01*
X513455Y252576D01*
X513374Y252454D01*
X513206Y251609D01*
X513374Y250764D01*
X513853Y250048D01*
X514569Y249569D01*
X515414Y249401D01*
X516259Y249569D01*
X516975Y250048D01*
X517453Y250764D01*
X517471Y250852D01*
X517949Y250997D01*
X520465Y248481D01*
X520465Y248481D01*
X520826Y248240D01*
X521252Y248156D01*
X521335D01*
X521995Y247495D01*
X521906Y247047D01*
X522074Y246202D01*
X522553Y245486D01*
X523269Y245007D01*
X524114Y244840D01*
X524959Y245007D01*
X525675Y245486D01*
X526154Y246202D01*
X526322Y247047D01*
X526154Y247892D01*
X525675Y248608D01*
X524959Y249087D01*
X524114Y249255D01*
X523859Y249204D01*
X523825Y249246D01*
X524061Y249746D01*
X528249D01*
X528872Y249124D01*
X528811Y248819D01*
X528979Y247974D01*
X529458Y247258D01*
X530174Y246779D01*
X531019Y246611D01*
X531864Y246779D01*
X532580Y247258D01*
X533058Y247974D01*
X533226Y248819D01*
X533058Y249664D01*
X532580Y250380D01*
X531864Y250859D01*
X531019Y251027D01*
X530264Y250876D01*
X529496Y251644D01*
X529135Y251886D01*
X528710Y251970D01*
X528710Y251970D01*
X527480D01*
Y259628D01*
X527838Y259986D01*
X527838Y259986D01*
X528079Y260347D01*
X528164Y260773D01*
X528164Y260773D01*
Y261201D01*
X528613Y261501D01*
X529092Y262217D01*
X529260Y263062D01*
X529092Y263907D01*
X528613Y264623D01*
X527897Y265102D01*
X527052Y265270D01*
X526207Y265102D01*
X525491Y264623D01*
X525012Y263907D01*
X524844Y263062D01*
X525012Y262217D01*
X525357Y261701D01*
X525109Y261201D01*
X521772D01*
Y260080D01*
X521310Y259889D01*
X509419Y271779D01*
X509702Y272203D01*
X510535Y271858D01*
X511614Y271716D01*
X512693Y271858D01*
X513699Y272275D01*
X514563Y272937D01*
X515225Y273801D01*
X515642Y274807D01*
X515784Y275886D01*
X515642Y276965D01*
X515225Y277971D01*
X514563Y278834D01*
X513699Y279497D01*
X512693Y279913D01*
X511614Y280055D01*
X510535Y279913D01*
X509529Y279497D01*
X509234Y279270D01*
X508734Y279517D01*
Y283814D01*
X508767Y283818D01*
X509389Y284076D01*
X509924Y284486D01*
X510334Y285020D01*
X510592Y285643D01*
X510679Y286311D01*
X510639Y286619D01*
X511090Y287025D01*
X511302Y286982D01*
X511410Y286821D01*
X531664Y266567D01*
Y262759D01*
X531497Y262593D01*
X531256Y262232D01*
X531172Y261807D01*
X531172Y261807D01*
Y258357D01*
X530722Y258057D01*
X530244Y257341D01*
X530076Y256496D01*
X530244Y255651D01*
X530722Y254935D01*
X531439Y254456D01*
X532283Y254288D01*
X533128Y254456D01*
X533845Y254935D01*
X534323Y255651D01*
X534491Y256496D01*
X534323Y257341D01*
X533845Y258057D01*
X533395Y258357D01*
Y261346D01*
X533562Y261512D01*
X533562Y261512D01*
X533803Y261873D01*
X533887Y262299D01*
X533887Y262299D01*
Y267028D01*
X533803Y267453D01*
X533562Y267814D01*
X533562Y267814D01*
X513453Y287923D01*
X513459Y288021D01*
X513869Y288556D01*
X514127Y289178D01*
X514215Y289847D01*
X514190Y290035D01*
X514664Y290269D01*
X515169Y289763D01*
X518788Y293382D01*
X515169Y297001D01*
D02*
G37*
G36*
X591043Y280853D02*
X589656Y280670D01*
X588363Y280135D01*
X587253Y279283D01*
X586401Y278172D01*
X585865Y276880D01*
X585682Y275492D01*
X585865Y274105D01*
X586401Y272812D01*
X587253Y271702D01*
X588363Y270849D01*
X589656Y270314D01*
X591043Y270131D01*
X592431Y270314D01*
X593724Y270849D01*
X594834Y271702D01*
X595686Y272812D01*
X596221Y274105D01*
X596404Y275492D01*
X596221Y276880D01*
X595686Y278172D01*
X594834Y279283D01*
X593724Y280135D01*
X592431Y280670D01*
X591043Y280853D01*
D02*
G37*
G36*
X606299Y267008D02*
Y264976D01*
X608330D01*
X608308Y265148D01*
X608048Y265775D01*
X607636Y266313D01*
X607098Y266725D01*
X606471Y266985D01*
X606299Y267008D01*
D02*
G37*
G36*
X605299D02*
X605127Y266985D01*
X604501Y266725D01*
X603963Y266313D01*
X603550Y265775D01*
X603291Y265148D01*
X603268Y264976D01*
X605299D01*
Y267008D01*
D02*
G37*
G36*
X500902Y255730D02*
X496343D01*
X495593Y255631D01*
X494895Y255342D01*
X494296Y254882D01*
X493835Y254282D01*
X493546Y253584D01*
X493448Y252835D01*
X493546Y252085D01*
X493835Y251387D01*
X494296Y250788D01*
X494895Y250328D01*
X495593Y250038D01*
X496343Y249940D01*
X500902D01*
X501651Y250038D01*
X502349Y250328D01*
X502949Y250788D01*
X503409Y251387D01*
X503698Y252085D01*
X503796Y252835D01*
X503698Y253584D01*
X503409Y254282D01*
X502949Y254882D01*
X502349Y255342D01*
X501651Y255631D01*
X500902Y255730D01*
D02*
G37*
G36*
X485925Y255813D02*
X481201D01*
X480430Y255711D01*
X479712Y255414D01*
X479095Y254941D01*
X478622Y254324D01*
X478324Y253606D01*
X478223Y252835D01*
X478324Y252064D01*
X478622Y251345D01*
X479095Y250729D01*
X479712Y250255D01*
X480430Y249958D01*
X481201Y249856D01*
X485925D01*
X486696Y249958D01*
X487414Y250255D01*
X488031Y250729D01*
X488504Y251345D01*
X488802Y252064D01*
X488903Y252835D01*
X488802Y253606D01*
X488504Y254324D01*
X488031Y254941D01*
X487414Y255414D01*
X486696Y255711D01*
X485925Y255813D01*
D02*
G37*
G36*
X495768Y249504D02*
X495053Y249362D01*
X494448Y248958D01*
X494043Y248352D01*
X493901Y247638D01*
X494043Y246923D01*
X494448Y246318D01*
X495053Y245913D01*
X495768Y245771D01*
X496482Y245913D01*
X497088Y246318D01*
X497492Y246923D01*
X497634Y247638D01*
X497492Y248352D01*
X497088Y248958D01*
X496482Y249362D01*
X495768Y249504D01*
D02*
G37*
G36*
X513976Y243307D02*
X512402D01*
X512212Y243117D01*
X512165Y243126D01*
X510276D01*
X509953Y243062D01*
X509680Y242880D01*
X509497Y242606D01*
X509433Y242284D01*
Y241947D01*
X508497D01*
X508057Y242604D01*
X507341Y243083D01*
X506496Y243251D01*
X505651Y243083D01*
X504935Y242604D01*
X504456Y241888D01*
X504288Y241043D01*
X504456Y240198D01*
X504935Y239482D01*
X505651Y239004D01*
X506496Y238836D01*
X507341Y239004D01*
X508057Y239482D01*
X508497Y240140D01*
X509483D01*
X509497Y240071D01*
X509680Y239798D01*
X509953Y239615D01*
X510276Y239551D01*
X512165D01*
X512212Y239560D01*
X512402Y239370D01*
X513976D01*
X514166Y239560D01*
X514213Y239551D01*
X516102D01*
X516425Y239615D01*
X516698Y239798D01*
X516881Y240071D01*
X516912Y240227D01*
X521095D01*
X521815Y239506D01*
X521710Y238976D01*
X521878Y238131D01*
X522042Y237886D01*
X515471Y231315D01*
X514311D01*
X514265Y231306D01*
X514075Y231496D01*
X512500D01*
X512310Y231306D01*
X512264Y231315D01*
X510374D01*
X510051Y231251D01*
X509778Y231068D01*
X509595Y230795D01*
X509531Y230472D01*
Y230066D01*
X508497D01*
X508057Y230724D01*
X507341Y231202D01*
X506496Y231370D01*
X505651Y231202D01*
X504935Y230724D01*
X504456Y230007D01*
X504288Y229163D01*
X504456Y228318D01*
X504935Y227601D01*
X505651Y227123D01*
X506496Y226955D01*
X507341Y227123D01*
X508057Y227601D01*
X508497Y228259D01*
X509596D01*
X509778Y227987D01*
X510051Y227804D01*
X510374Y227740D01*
X512264D01*
X512310Y227749D01*
X512500Y227559D01*
X514075D01*
X514265Y227749D01*
X514311Y227740D01*
X516201D01*
X516523Y227804D01*
X516797Y227987D01*
X516980Y228260D01*
X517044Y228583D01*
Y229743D01*
X524107Y236806D01*
X524762Y236937D01*
X525478Y237415D01*
X525957Y238131D01*
X526125Y238976D01*
X525957Y239821D01*
X525478Y240538D01*
X524762Y241016D01*
X523917Y241184D01*
X523387Y241079D01*
X522341Y242125D01*
X521981Y242366D01*
X521555Y242450D01*
X521555Y242450D01*
X516912D01*
X516881Y242606D01*
X516698Y242880D01*
X516425Y243062D01*
X516102Y243126D01*
X514213D01*
X514166Y243117D01*
X513976Y243307D01*
D02*
G37*
G36*
X589213Y242807D02*
X586793D01*
Y241421D01*
X589213D01*
Y242807D01*
D02*
G37*
G36*
X590846Y240000D02*
X590559D01*
Y238295D01*
X592067D01*
Y238779D01*
X591974Y239247D01*
X591709Y239642D01*
X591314Y239907D01*
X590846Y240000D01*
D02*
G37*
G36*
X589559D02*
X589272D01*
X588805Y239907D01*
X588409Y239642D01*
X588144Y239247D01*
X588051Y238779D01*
Y238295D01*
X589559D01*
Y240000D01*
D02*
G37*
G36*
X536508Y230158D02*
X536063D01*
X535581Y230062D01*
X535172Y229789D01*
X534899Y229380D01*
X534803Y228898D01*
Y228453D01*
X536508D01*
Y230158D01*
D02*
G37*
G36*
Y227453D02*
X534803D01*
Y227008D01*
X534899Y226525D01*
X535172Y226117D01*
X535581Y225843D01*
X536063Y225747D01*
X536508D01*
Y227453D01*
D02*
G37*
G36*
X495768Y225882D02*
X495053Y225740D01*
X494448Y225336D01*
X494043Y224730D01*
X493901Y224016D01*
X494043Y223301D01*
X494448Y222696D01*
X495053Y222291D01*
X495768Y222149D01*
X496482Y222291D01*
X497088Y222696D01*
X497492Y223301D01*
X497634Y224016D01*
X497492Y224730D01*
X497088Y225336D01*
X496482Y225740D01*
X495768Y225882D01*
D02*
G37*
G36*
X500902Y221714D02*
X496343D01*
X495593Y221615D01*
X494895Y221326D01*
X494296Y220866D01*
X493835Y220266D01*
X493546Y219568D01*
X493448Y218819D01*
X493546Y218070D01*
X493835Y217372D01*
X494296Y216772D01*
X494895Y216312D01*
X495593Y216023D01*
X496343Y215924D01*
X500902D01*
X501651Y216023D01*
X502349Y216312D01*
X502949Y216772D01*
X503409Y217372D01*
X503698Y218070D01*
X503796Y218819D01*
X503698Y219568D01*
X503409Y220266D01*
X502949Y220866D01*
X502349Y221326D01*
X501651Y221615D01*
X500902Y221714D01*
D02*
G37*
G36*
X485925Y221797D02*
X481201D01*
X480430Y221696D01*
X479712Y221398D01*
X479095Y220925D01*
X478622Y220308D01*
X478324Y219590D01*
X478223Y218819D01*
X478324Y218048D01*
X478622Y217330D01*
X479095Y216713D01*
X479712Y216240D01*
X480430Y215942D01*
X481201Y215841D01*
X485925D01*
X486696Y215942D01*
X487414Y216240D01*
X488031Y216713D01*
X488504Y217330D01*
X488802Y218048D01*
X488903Y218819D01*
X488802Y219590D01*
X488504Y220308D01*
X488031Y220925D01*
X487414Y221398D01*
X486696Y221696D01*
X485925Y221797D01*
D02*
G37*
G36*
X514507Y184319D02*
X512790Y182602D01*
X514507Y180885D01*
X514676Y181105D01*
X514975Y181827D01*
X515077Y182602D01*
X514975Y183377D01*
X514676Y184099D01*
X514507Y184319D01*
D02*
G37*
G36*
X523859Y181783D02*
X522154D01*
Y180078D01*
X522598D01*
X523081Y180174D01*
X523490Y180447D01*
X523763Y180856D01*
X523859Y181339D01*
Y181783D01*
D02*
G37*
G36*
X521153D02*
X519448D01*
Y181339D01*
X519544Y180856D01*
X519817Y180447D01*
X520226Y180174D01*
X520709Y180078D01*
X521153D01*
Y181783D01*
D02*
G37*
G36*
X512083Y181895D02*
X510366Y180178D01*
X510586Y180009D01*
X511308Y179710D01*
X512083Y179608D01*
X512858Y179710D01*
X513580Y180009D01*
X513800Y180178D01*
X512083Y181895D01*
D02*
G37*
G36*
X528988Y185279D02*
X528143Y185111D01*
X527427Y184632D01*
X526948Y183916D01*
X526780Y183071D01*
X526948Y182226D01*
X527427Y181510D01*
X528143Y181031D01*
X528430Y180974D01*
X529597Y179807D01*
Y178862D01*
X528642D01*
X528181Y178770D01*
X527790Y178509D01*
X527529Y178118D01*
X527437Y177657D01*
Y177411D01*
X526937Y177260D01*
X526761Y177524D01*
X526045Y178002D01*
X525200Y178170D01*
X524355Y178002D01*
X523639Y177524D01*
X523160Y176807D01*
X522992Y175962D01*
X523160Y175118D01*
X523639Y174401D01*
X524355Y173923D01*
X525200Y173755D01*
X526045Y173923D01*
X526761Y174401D01*
X526937Y174665D01*
X527437Y174513D01*
Y174114D01*
X527529Y173653D01*
X527790Y173263D01*
X528181Y173002D01*
X528642Y172910D01*
X532776D01*
X532874Y172829D01*
Y172736D01*
X535321D01*
X535501Y172616D01*
X536122Y172493D01*
X537689D01*
Y175886D01*
Y179279D01*
X536122D01*
X535501Y179156D01*
X535321Y179035D01*
X532874D01*
Y178943D01*
X532776Y178862D01*
X531821D01*
Y180268D01*
X531736Y180693D01*
X531495Y181054D01*
X531495Y181054D01*
X530746Y181804D01*
X531028Y182226D01*
X531196Y183071D01*
X531028Y183916D01*
X530549Y184632D01*
X529833Y185111D01*
X528988Y185279D01*
D02*
G37*
G36*
X537231Y185878D02*
X536386Y185710D01*
X535670Y185231D01*
X535191Y184515D01*
X535023Y183670D01*
X535191Y182826D01*
X535670Y182109D01*
X536386Y181631D01*
X537231Y181463D01*
X538076Y181631D01*
X538792Y182109D01*
X539271Y182826D01*
X539328Y183112D01*
X539848Y183632D01*
X547187D01*
X547236Y183132D01*
X547079Y183101D01*
X546688Y182840D01*
X546427Y182449D01*
X546335Y181988D01*
Y179823D01*
X546427Y179362D01*
X546576Y179139D01*
Y178780D01*
X546539Y178523D01*
X546169Y178324D01*
Y176673D01*
X545169D01*
Y178295D01*
X544833D01*
X544212Y178172D01*
X543686Y177820D01*
X543668Y177793D01*
X543244Y177708D01*
X542883Y177467D01*
X542883Y177467D01*
X542378Y176962D01*
X541878Y177169D01*
Y177657D01*
X541754Y178278D01*
X541403Y178804D01*
X540876Y179156D01*
X540256Y179279D01*
X538689D01*
Y175886D01*
Y172493D01*
X540256D01*
X540876Y172616D01*
X541138Y172791D01*
X541232Y172853D01*
X541535Y172455D01*
X541527Y172431D01*
X537681Y168584D01*
X536882Y168743D01*
X536037Y168575D01*
X535514Y168226D01*
X535438Y168263D01*
X535109Y168557D01*
X535177Y168898D01*
Y169185D01*
X533472D01*
Y167677D01*
X533957D01*
X534424Y167770D01*
X534564Y167864D01*
X534924Y167503D01*
X534842Y167380D01*
X534674Y166535D01*
X534842Y165691D01*
X535321Y164974D01*
X536037Y164496D01*
X536882Y164328D01*
X537726Y164496D01*
X538124Y164761D01*
X538932Y163954D01*
X538933Y163945D01*
X539174Y163584D01*
X539568Y163190D01*
X539568Y163190D01*
X539929Y162949D01*
X540354Y162864D01*
X540354Y162864D01*
X540876D01*
X540892Y162783D01*
X541066Y162523D01*
X541327Y162349D01*
X541634Y162288D01*
X543421D01*
X543799Y161909D01*
X545374D01*
X545571Y161870D01*
X546055D01*
Y163878D01*
X546555D01*
Y164378D01*
X548760D01*
Y164665D01*
X548667Y165132D01*
X548419Y165504D01*
X548403Y165540D01*
X548435Y166107D01*
X548686Y166274D01*
X548813Y166465D01*
X549047Y166309D01*
X549508Y166217D01*
X549969Y166309D01*
X550127Y166415D01*
X550492Y166528D01*
X550857Y166415D01*
X551016Y166309D01*
X551476Y166217D01*
X551873Y166296D01*
X552125Y166158D01*
X552346Y165980D01*
X552418Y165618D01*
X552659Y165257D01*
X554521Y163395D01*
X554521Y163395D01*
X554881Y163154D01*
X555307Y163069D01*
X558304D01*
X558604Y162620D01*
X559320Y162142D01*
X560165Y161974D01*
X561010Y162142D01*
X561726Y162620D01*
X562205Y163336D01*
X562373Y164181D01*
X562205Y165026D01*
X561726Y165742D01*
X561010Y166221D01*
X560165Y166389D01*
X559320Y166221D01*
X558604Y165742D01*
X558304Y165293D01*
X555767D01*
X555331Y165730D01*
X555362Y165912D01*
X555528Y166240D01*
X555874Y166309D01*
X556265Y166570D01*
X556526Y166960D01*
X556618Y167421D01*
Y169587D01*
X556526Y170047D01*
X556265Y170438D01*
X555874Y170699D01*
X555413Y170791D01*
X554952Y170699D01*
X554794Y170593D01*
X554429Y170480D01*
X554064Y170593D01*
X553906Y170699D01*
X553445Y170791D01*
X552984Y170699D01*
X552826Y170593D01*
X552461Y170480D01*
X552096Y170593D01*
X551937Y170699D01*
X551476Y170791D01*
X551016Y170699D01*
X550857Y170593D01*
X550492Y170480D01*
X550127Y170593D01*
X549969Y170699D01*
X549508Y170791D01*
X549047Y170699D01*
X548813Y170543D01*
X548686Y170733D01*
X548160Y171085D01*
X548039Y171109D01*
Y168504D01*
X547539D01*
Y168004D01*
X545918D01*
Y167421D01*
X545935Y167332D01*
Y165886D01*
X545571D01*
X545374Y165847D01*
X543799D01*
X543421Y165468D01*
X541634D01*
X541327Y165407D01*
X541284Y165379D01*
X540889Y165308D01*
X540598Y165432D01*
X539136Y166894D01*
X544015Y171773D01*
X544149D01*
X544372Y171624D01*
X544833Y171532D01*
X546506D01*
X546967Y171624D01*
X547328Y171865D01*
X547499Y171899D01*
X547811Y172108D01*
X550681Y174978D01*
X550890Y175290D01*
X550963Y175659D01*
Y176083D01*
X550890Y176451D01*
X550681Y176764D01*
X549294Y178151D01*
X549468Y178531D01*
X549529Y178623D01*
X549969Y178710D01*
X550127Y178816D01*
X550492Y178930D01*
X550857Y178816D01*
X551016Y178710D01*
X551476Y178619D01*
X551937Y178710D01*
X552096Y178816D01*
X552461Y178930D01*
X552826Y178816D01*
X552984Y178710D01*
X553445Y178619D01*
X553906Y178710D01*
X554064Y178816D01*
X554429Y178930D01*
X554794Y178816D01*
X554952Y178710D01*
X555413Y178619D01*
X555874Y178710D01*
X556265Y178971D01*
X556526Y179362D01*
X556618Y179823D01*
Y181988D01*
X556526Y182449D01*
X556265Y182840D01*
X555874Y183101D01*
X555413Y183192D01*
X554952Y183101D01*
X554794Y182995D01*
X554429Y182881D01*
X554064Y182995D01*
X553906Y183101D01*
X553445Y183192D01*
X553069Y183118D01*
X552858Y183181D01*
X552524Y183395D01*
X552504Y183496D01*
X552263Y183857D01*
X552263Y183857D01*
X550589Y185530D01*
X550229Y185771D01*
X549803Y185856D01*
X549803Y185856D01*
X539387D01*
X539387Y185856D01*
X538962Y185771D01*
X538601Y185530D01*
X538155Y185657D01*
X538076Y185710D01*
X537231Y185878D01*
D02*
G37*
G36*
X533957Y171693D02*
X533472D01*
Y170185D01*
X535177D01*
Y170472D01*
X535084Y170939D01*
X534820Y171335D01*
X534424Y171600D01*
X533957Y171693D01*
D02*
G37*
G36*
X547039Y171109D02*
X546919Y171085D01*
X546393Y170733D01*
X546041Y170207D01*
X545918Y169587D01*
Y169004D01*
X547039D01*
Y171109D01*
D02*
G37*
G36*
X524905Y171969D02*
X524060Y171801D01*
X523344Y171323D01*
X522865Y170607D01*
X522697Y169762D01*
X522865Y168917D01*
X523344Y168201D01*
X524060Y167722D01*
X524905Y167554D01*
X525750Y167722D01*
X526466Y168201D01*
X526741Y168611D01*
X527305D01*
X527310Y168590D01*
X527484Y168330D01*
X527744Y168156D01*
X528051Y168095D01*
X529838D01*
X530217Y167717D01*
X531791D01*
X531988Y167677D01*
X532472D01*
Y169685D01*
Y171693D01*
X531988D01*
X531791Y171653D01*
X530217D01*
X529838Y171275D01*
X528051D01*
X527744Y171214D01*
X527484Y171040D01*
X527347Y170835D01*
X526792D01*
X526466Y171323D01*
X525750Y171801D01*
X524905Y171969D01*
D02*
G37*
G36*
X548760Y163378D02*
X547055D01*
Y161870D01*
X547539D01*
X548006Y161963D01*
X548402Y162228D01*
X548667Y162624D01*
X548760Y163091D01*
Y163378D01*
D02*
G37*
%LPD*%
D14*
X509171Y191929D02*
X510097Y191492D01*
X511086Y191224D01*
X512106Y191134D01*
X513127Y191224D01*
X514115Y191492D01*
X515042Y191929D01*
X517435Y214946D02*
X519203Y216715D01*
X521636D01*
X522047Y217126D01*
X515896Y214946D02*
X517435D01*
X521520Y217126D02*
X522047D01*
X619095Y251476D02*
X619776Y250795D01*
X621733D01*
X622741Y249787D01*
X623323D01*
X528997Y169723D02*
X529035Y169685D01*
X524943Y169723D02*
X528997D01*
X524905Y169762D02*
X524943Y169723D01*
X525200Y175962D02*
X530632D01*
X530709Y175886D01*
X528988Y181989D02*
X530709Y180268D01*
Y175886D02*
Y180268D01*
X528988Y181989D02*
Y183071D01*
X590059Y233661D02*
X592305Y231415D01*
X593585D01*
X593996Y231004D01*
X616732Y238244D02*
X617104Y237872D01*
X618919D02*
X619291Y237500D01*
X617104Y237872D02*
X618919D01*
X590059Y233661D02*
Y233858D01*
X585399Y246063D02*
X585595Y245866D01*
X585236Y246063D02*
X585399D01*
X585595Y245866D02*
X589713D01*
X564563Y235268D02*
X565495D01*
X567815Y244980D02*
X568226Y244569D01*
X541575Y253150D02*
X541634Y253209D01*
Y258169D01*
X515414Y251609D02*
Y252190D01*
X508668Y258935D02*
X515414Y252190D01*
X524626Y258347D02*
X527052Y260773D01*
Y263062D01*
X532283Y256496D02*
Y261807D01*
X532776Y262299D01*
Y267028D01*
X521910Y250858D02*
X528710D01*
X530749Y248819D01*
X531019D01*
X611566Y238476D02*
X612451Y239361D01*
X612613D01*
X609835Y238476D02*
X611566D01*
X572205Y253150D02*
X572405Y253350D01*
Y258828D01*
X587795Y285358D02*
X589543Y287106D01*
X593799D01*
X587419Y285358D02*
X587795D01*
X587262Y285514D02*
Y289509D01*
X587106Y289665D02*
X587262Y289509D01*
Y285514D02*
X587419Y285358D01*
X564160Y297913D02*
Y298324D01*
X562992Y299492D02*
Y303366D01*
Y299492D02*
X564160Y298324D01*
X581552Y300810D02*
X586139D01*
X580886Y301476D02*
X581552Y300810D01*
X525602Y298919D02*
X528875D01*
X524232Y300289D02*
Y300886D01*
Y300289D02*
X525602Y298919D01*
X568429Y240000D02*
X571024Y237405D01*
X537922Y166535D02*
Y167253D01*
X524626Y256279D02*
Y258347D01*
X517866Y252653D02*
X521252Y249268D01*
X524016Y247047D02*
X524114D01*
X517866Y252653D02*
Y253507D01*
X521272Y251497D02*
X521910Y250858D01*
X521252Y249268D02*
X521795D01*
X524016Y247047D01*
X521272Y251497D02*
Y258354D01*
X504563Y266810D02*
X517866Y253507D01*
X506980Y272646D02*
X521272Y258354D01*
X506980Y272646D02*
Y278479D01*
X507622Y279121D02*
Y285835D01*
X506980Y278479D02*
X507622Y279121D01*
X504563Y266810D02*
Y282775D01*
X501027Y265056D02*
X507148Y258935D01*
X508668D01*
X501027Y265056D02*
Y279240D01*
X511634Y289847D02*
X512196Y289285D01*
Y287607D02*
Y289285D01*
Y287607D02*
X532776Y267028D01*
X524098Y189639D02*
X559542D01*
X519551Y189404D02*
X519586Y189404D01*
X519612Y189405D02*
X519612D01*
X523124Y189588D01*
X505012Y189673D02*
X519551Y189404D01*
X519586Y189404D02*
X519601Y189405D01*
X519612Y189405D01*
X523124Y189588D02*
X524098Y189639D01*
X520458Y187655D02*
X558720D01*
X515042Y191929D02*
X528604D01*
X507082D02*
X509171D01*
X503745Y192732D02*
X506279D01*
X502937Y191929D02*
X503263Y192250D01*
X502142Y192543D02*
X502756Y191929D01*
X502937D01*
X503263Y192250D02*
X503745Y192732D01*
X506279D02*
X507082Y191929D01*
X528604D02*
X528888Y191646D01*
X501476Y193209D02*
X502142Y192543D01*
X528888Y191646D02*
X560341D01*
X564739Y187248D01*
X507622Y285835D02*
X508098Y286311D01*
X520290Y209464D02*
X526476Y215650D01*
X519734Y209464D02*
X520290D01*
X526476Y215650D02*
Y216437D01*
X519319Y209048D02*
X519734Y209464D01*
X513545Y204884D02*
X517709Y209048D01*
X519319D01*
X523506Y237778D02*
Y238565D01*
X515256Y229528D02*
X523506Y237778D01*
Y238565D02*
X523917Y238976D01*
X515158Y241339D02*
X521555D01*
X523917Y238976D01*
X508760Y211221D02*
Y218209D01*
X609350Y237992D02*
X609835Y238476D01*
X609350Y237795D02*
Y237992D01*
X595866Y264601D02*
X596063Y264405D01*
Y260728D02*
Y264405D01*
X595866Y264601D02*
Y264764D01*
X590748Y260728D02*
X596063D01*
X542520Y163976D02*
X542618Y163878D01*
X540354Y163976D02*
X542520D01*
X539961Y164370D02*
X540354Y163976D01*
X539961Y164370D02*
Y164497D01*
X537922Y166535D02*
X539961Y164497D01*
X568226Y243324D02*
X569156Y242394D01*
X568226Y243324D02*
Y244569D01*
X569156Y240596D02*
Y242394D01*
X577313Y236398D02*
Y236713D01*
X571024Y234564D02*
Y237405D01*
X536279Y241299D02*
X536319Y241339D01*
X536279Y236547D02*
Y241299D01*
X537044Y235200D02*
Y235782D01*
X536279Y236547D02*
X537044Y235782D01*
X536882Y166535D02*
X537922D01*
X590748Y256791D02*
X590797Y256840D01*
X576453Y235538D02*
X577313Y236398D01*
X551119Y212710D02*
X558981Y204849D01*
X563526D01*
X551772Y227182D02*
X553587Y228996D01*
X551772Y226563D02*
Y227182D01*
X553587Y228996D02*
Y231453D01*
X567698Y176673D02*
X574226Y183201D01*
X559976Y176673D02*
X567698D01*
X576192Y181113D02*
X576313D01*
X569724Y174645D02*
X576192Y181113D01*
X560279Y174645D02*
X569724D01*
X572352Y174902D02*
X574278D01*
X578401Y179025D01*
X559842Y172736D02*
X570186D01*
X572352Y174902D01*
X599420Y212571D02*
X602834Y215985D01*
Y218129D01*
X578541Y233450D02*
X578885D01*
X530812Y202151D02*
Y206009D01*
X531890Y207087D01*
Y208169D01*
X558720Y187655D02*
X563095Y183280D01*
X569499D01*
X571509Y185289D01*
X572138D01*
X567308Y185264D02*
X569421Y187377D01*
X563917Y185264D02*
X567308D01*
X569421Y187377D02*
X569874D01*
X559542Y189639D02*
X563917Y185264D01*
X564739Y187248D02*
X565545D01*
X567762Y189465D02*
X567962D01*
X565545Y187248D02*
X567762Y189465D01*
X510065Y187655D02*
X518537D01*
X520458D01*
X549171Y208226D02*
Y208256D01*
X545742Y204797D02*
X549171Y208226D01*
X543397Y204797D02*
X545742D01*
X542741Y204141D02*
X543397Y204797D01*
X526476Y216437D02*
X528346Y218307D01*
Y222441D01*
X549803Y184744D02*
X551476Y183071D01*
X537231Y183670D02*
X538313D01*
X539387Y184744D01*
X549803D01*
X563786Y193641D02*
Y193969D01*
X569193Y199376D01*
Y199705D01*
X565715Y217196D02*
X566051Y217531D01*
X559824Y217196D02*
X565715D01*
X578150Y223622D02*
X579604Y225076D01*
Y226162D01*
X582716Y229274D01*
X537922Y167253D02*
X543405Y172736D01*
X508547Y186138D02*
X510065Y187655D01*
X555307Y164181D02*
X560165D01*
X553445Y166043D02*
X555307Y164181D01*
X538287Y175591D02*
X542579D01*
X543670Y176681D01*
X543996D01*
X547047Y163976D02*
Y168209D01*
X547532Y168693D01*
X583090Y200415D02*
X597332Y214657D01*
X582165Y201341D02*
X583090Y200415D01*
X581336Y201341D02*
X582165D01*
X597332Y214657D02*
Y214659D01*
X551476Y183071D02*
X551476D01*
X574722Y171311D02*
Y171314D01*
X580345Y176937D01*
X565495Y235268D02*
X566530Y234232D01*
X567180D01*
X569911Y231501D01*
X548563Y237752D02*
X549024Y238213D01*
X553207Y214136D02*
X558007Y209336D01*
X558834D01*
X560348Y210849D02*
X561420D01*
X558834Y209336D02*
X560348Y210849D01*
X568665Y213531D02*
X569602Y212595D01*
X564394Y213531D02*
X568665D01*
X563076Y214849D02*
X564394Y213531D01*
X559763Y214849D02*
X563076D01*
X558547Y213634D02*
X559763Y214849D01*
X558547Y213634D02*
Y213634D01*
X555295Y216886D02*
X558547Y213634D01*
X553207Y214136D02*
Y214798D01*
X557383Y218974D02*
X558046D01*
X559824Y217196D01*
X530453Y195098D02*
X540898D01*
X550009Y196567D02*
X555434Y201992D01*
X548862Y196567D02*
X550009D01*
X547590Y195295D02*
X548862Y196567D01*
X547590Y195098D02*
Y195295D01*
D15*
X560039Y255716D02*
X559013Y255492D01*
X558174Y254861D01*
X564478Y255708D02*
X564272Y255716D01*
X588980Y223035D02*
X591142Y225197D01*
X591242Y225297D01*
X593791Y222059D02*
X597342Y223425D01*
X591242Y225297D02*
X593898Y225345D01*
X591742Y220923D02*
X593791Y222059D01*
X591068Y220923D02*
X591742D01*
X588980Y223011D02*
Y223035D01*
X599167Y233551D02*
Y246871D01*
X601582Y230184D02*
X601628Y230230D01*
X595472Y236319D02*
Y239891D01*
X601628Y230230D02*
Y244541D01*
X601772Y244685D01*
X598204Y247835D02*
X599167Y246871D01*
X593309Y242054D02*
X595472Y239891D01*
X601476Y256791D02*
X602067Y256201D01*
Y249902D02*
Y256201D01*
X589615Y228740D02*
Y229263D01*
X586892Y226017D02*
X589615Y228740D01*
X586892Y225098D02*
Y226017D01*
X593309Y242054D02*
Y244560D01*
X560039Y253256D02*
X560190Y252999D01*
X560039Y255716D02*
X564272D01*
X557579Y253924D02*
X557579Y254169D01*
X560190Y252999D02*
X561713Y251476D01*
X564478Y255708D02*
X565650Y255610D01*
X557579Y252130D02*
Y253924D01*
X557579Y254169D02*
X558174Y254861D01*
X565650Y255610D02*
X566831Y254429D01*
X564272Y251870D02*
Y253256D01*
X593309Y244560D02*
X594025Y245276D01*
X564424Y235863D02*
X564563Y235724D01*
X564424Y235863D02*
Y249069D01*
X566831Y251476D01*
Y254429D01*
X557579Y252130D02*
X559646Y250063D01*
Y247638D02*
Y250063D01*
X557579Y249705D02*
X559646Y247638D01*
X545079Y249705D02*
X557579D01*
X543012Y247638D02*
X545079Y249705D01*
X506882Y229163D02*
X510954D01*
X550197Y277461D02*
X561221Y266437D01*
X561713Y246228D02*
Y251476D01*
X562894Y250492D02*
X564272Y251870D01*
X545669Y276969D02*
Y303366D01*
Y276969D02*
X557874Y264764D01*
X564764Y272736D02*
Y273228D01*
X558661Y279331D02*
Y303366D01*
Y279331D02*
X564764Y273228D01*
X550197Y277461D02*
Y303169D01*
X583563Y234629D02*
Y242387D01*
X579836Y246113D02*
X583563Y242387D01*
X580628Y231694D02*
X583563Y234629D01*
X567323Y272933D02*
Y303366D01*
Y272933D02*
X568996Y271260D01*
X510925Y241043D02*
X511221Y241339D01*
X506496Y241043D02*
X510925D01*
X510954Y229163D02*
X511319Y229528D01*
X596063Y256791D02*
X601476D01*
X590748D02*
X596063D01*
X562894Y245739D02*
Y250492D01*
X562697Y245542D02*
X562894Y245739D01*
X562697Y240557D02*
Y245542D01*
X561516Y246031D02*
X561713Y246228D01*
X561516Y241440D02*
Y246031D01*
X561216Y239076D02*
X562697Y240557D01*
X558760Y238684D02*
X561516Y241440D01*
X580628Y231362D02*
Y231694D01*
X579291Y257579D02*
X579836Y257034D01*
Y246113D02*
Y257034D01*
X579724Y234941D02*
Y238976D01*
X577313Y236713D02*
Y239718D01*
X546902Y227953D02*
X550752Y224102D01*
X556430D01*
X559471Y221062D01*
X540945Y227953D02*
X546902D01*
X559471Y221062D02*
X559471D01*
X561559Y223150D02*
Y224068D01*
X556398Y229230D02*
X561559Y224068D01*
X556398Y229230D02*
Y235137D01*
X555085Y236449D02*
X556398Y235137D01*
X555061Y236449D02*
X555085D01*
X553758Y237752D02*
X555061Y236449D01*
X553587Y237752D02*
X553758D01*
X562008Y230610D02*
X562450D01*
X561216Y233666D02*
X563583Y231299D01*
X558760Y232824D02*
Y238684D01*
X565735Y227326D02*
X565735D01*
X560140Y232478D02*
X562008Y230610D01*
X558760Y232824D02*
X559106Y232478D01*
X561216Y233666D02*
Y239076D01*
X557579Y231306D02*
Y237105D01*
X559106Y232478D02*
X560140D01*
X557579Y231306D02*
X563647Y225238D01*
X562450Y230610D02*
X565735Y227326D01*
X554252Y240236D02*
X554448D01*
X563647Y225238D02*
Y225238D01*
X554448Y240236D02*
X557579Y237105D01*
X553587Y240902D02*
X554252Y240236D01*
X563583Y231299D02*
X565018D01*
X566904Y229414D01*
X567823D01*
X550000Y303366D02*
X550197Y303169D01*
X596705Y247835D02*
X598204D01*
X596114Y248425D02*
X596705Y247835D01*
X595524Y245276D02*
X596114Y245866D01*
X594025Y245276D02*
X595524D01*
X553587Y245516D02*
X555709Y247638D01*
X553587Y240902D02*
Y245516D01*
X551364Y239489D02*
Y243222D01*
X546949Y247638D02*
X551364Y243222D01*
X547702Y237087D02*
X547898D01*
X548563Y237752D01*
X540945Y227953D02*
Y230329D01*
X547702Y237087D01*
X552317Y238850D02*
X553415Y237752D01*
X552003Y238850D02*
X552317D01*
X551364Y239489D02*
X552003Y238850D01*
X553415Y237752D02*
X553587D01*
X557540Y174645D02*
X560279D01*
X557480Y174705D02*
X557540Y174645D01*
X557480Y172736D02*
X559842D01*
X602834Y218129D02*
X603677Y218972D01*
X545465Y176681D02*
X545472Y176673D01*
X543996Y176681D02*
X545465D01*
X553445Y166043D02*
Y168701D01*
X551476Y180709D02*
Y183071D01*
X557480Y176673D02*
X559976D01*
X599420Y212571D02*
Y212571D01*
X548563Y234602D02*
X550437D01*
X551159Y233880D01*
Y233105D02*
Y233880D01*
Y233105D02*
X552147Y232118D01*
X552921D01*
X553587Y231453D01*
D16*
X555709Y247638D02*
D03*
X559646D02*
D03*
X515158Y241339D02*
D03*
X511221D02*
D03*
X511319Y229528D02*
D03*
X515256D02*
D03*
X537008Y227953D02*
D03*
X540945D02*
D03*
X543012Y247638D02*
D03*
X546949D02*
D03*
X542276Y195098D02*
D03*
X546213D02*
D03*
D17*
X538189Y175886D02*
D03*
X530709D02*
D03*
D18*
X541339Y303366D02*
D03*
X545669D02*
D03*
X550000D02*
D03*
X554331D02*
D03*
X558661D02*
D03*
X562992D02*
D03*
X567323D02*
D03*
X571654D02*
D03*
D19*
X524232Y300886D02*
D03*
D20*
X580886Y301476D02*
D03*
X524626Y256279D02*
D03*
D21*
X579291Y293012D02*
D03*
D22*
Y257579D02*
D03*
D23*
X541575Y253150D02*
D03*
X572205D02*
D03*
D24*
X599420Y212571D02*
D03*
X580489Y176937D02*
D03*
X578401Y179025D02*
D03*
X574226Y183201D02*
D03*
X576313Y181113D02*
D03*
X565874Y191553D02*
D03*
X567962Y189465D02*
D03*
X572138Y185289D02*
D03*
X570050Y187377D02*
D03*
X549171Y208256D02*
D03*
X551259Y206168D02*
D03*
X555434Y201992D02*
D03*
X553346Y204080D02*
D03*
X563786Y193641D02*
D03*
X561698Y195729D02*
D03*
X557522Y199904D02*
D03*
X559610Y197816D02*
D03*
X593156Y218835D02*
D03*
X595244Y216747D02*
D03*
X576453Y235538D02*
D03*
X580628Y231362D02*
D03*
X578541Y233450D02*
D03*
X591068Y220923D02*
D03*
X586892Y225098D02*
D03*
X584804Y227186D02*
D03*
X588980Y223011D02*
D03*
X582716Y229274D02*
D03*
X597332Y214659D02*
D03*
D25*
X555295Y216886D02*
D03*
X563647Y225238D02*
D03*
X565735Y227326D02*
D03*
X571999Y233589D02*
D03*
X561559Y223150D02*
D03*
X551119Y212710D02*
D03*
X559471Y221062D02*
D03*
X557383Y218974D02*
D03*
X553207Y214798D02*
D03*
X567823Y229414D02*
D03*
X569911Y231501D02*
D03*
D26*
X609646Y247736D02*
D03*
Y255217D02*
D03*
X619095D02*
D03*
Y251476D02*
D03*
Y247736D02*
D03*
D27*
X619291Y241437D02*
D03*
Y237500D02*
D03*
X609350Y241732D02*
D03*
Y237795D02*
D03*
X587106Y293602D02*
D03*
Y289665D02*
D03*
X590059Y233858D02*
D03*
Y237795D02*
D03*
X590748Y260728D02*
D03*
Y256791D02*
D03*
D28*
X529035Y169685D02*
D03*
X532972D02*
D03*
X542618Y163878D02*
D03*
X546555D02*
D03*
X536319Y241339D02*
D03*
X540256D02*
D03*
D29*
X593799Y294193D02*
D03*
Y287106D02*
D03*
D30*
X596063Y256791D02*
D03*
Y260728D02*
D03*
X601476D02*
D03*
Y256791D02*
D03*
X521654Y182283D02*
D03*
Y186221D02*
D03*
D31*
X547539Y168504D02*
D03*
X549508D02*
D03*
X551476D02*
D03*
X553445D02*
D03*
X555413D02*
D03*
Y180905D02*
D03*
X553445D02*
D03*
X551476D02*
D03*
X549508D02*
D03*
X547539D02*
D03*
D32*
X557283Y172736D02*
D03*
Y174705D02*
D03*
Y176673D02*
D03*
X545669D02*
D03*
Y174705D02*
D03*
Y172736D02*
D03*
D33*
X553587Y231453D02*
D03*
Y234602D02*
D03*
Y237752D02*
D03*
Y240902D02*
D03*
X548563Y231453D02*
D03*
Y234602D02*
D03*
Y237752D02*
D03*
D34*
Y240902D02*
D03*
D35*
X589713Y243307D02*
D03*
Y245866D02*
D03*
Y248425D02*
D03*
X596114D02*
D03*
Y245866D02*
D03*
Y243307D02*
D03*
D36*
X530453Y195098D02*
D03*
Y201791D02*
D03*
D37*
X509892Y210911D02*
D03*
X513730Y205428D02*
D03*
X519734Y209464D02*
D03*
X515896Y214946D02*
D03*
D38*
X569295Y240457D02*
D03*
X564563Y235724D02*
D03*
D73*
X587500Y294193D02*
X593799D01*
X587106Y293799D02*
X587500Y294193D01*
X587106Y293602D02*
Y293799D01*
Y293406D02*
Y293602D01*
X554331Y303366D02*
X555118Y304154D01*
D74*
X547539Y180709D02*
X549508D01*
X545525Y172789D02*
X547130D01*
X571024Y234564D02*
X571999Y233589D01*
X530453Y201791D02*
X530812Y202151D01*
X543405Y172736D02*
X545472D01*
X545525Y172789D01*
X547130D02*
X550000Y175659D01*
Y176083D01*
X547539Y178543D02*
Y180709D01*
Y178543D02*
X550000Y176083D01*
X569156Y240596D02*
X569295Y240457D01*
D75*
X548002Y241339D02*
X548439Y240902D01*
X540256Y241339D02*
X548002D01*
X548439Y240902D02*
X548563D01*
X619291Y241437D02*
Y247539D01*
X619095Y247736D02*
X619291Y247539D01*
X601476Y260728D02*
X617351D01*
X619095Y255217D02*
Y258985D01*
X617351Y260728D02*
X619095Y258985D01*
X601279Y260925D02*
X601476Y260728D01*
D76*
X495768Y247638D02*
D03*
D77*
D03*
Y224016D02*
D03*
D78*
X498622Y218819D02*
D03*
Y252835D02*
D03*
D79*
X483563Y218819D02*
D03*
Y252835D02*
D03*
D80*
X511614Y275886D02*
D03*
D81*
X591043Y275492D02*
D03*
D82*
X512106Y196949D02*
D03*
D83*
X497492Y275704D02*
D03*
X501027Y279240D02*
D03*
X504563Y282775D02*
D03*
X508098Y286311D02*
D03*
X511634Y289847D02*
D03*
X512083Y182602D02*
D03*
X508547Y186138D02*
D03*
X505012Y189673D02*
D03*
X501476Y193209D02*
D03*
X497941Y196744D02*
D03*
D84*
X515169Y293382D02*
D03*
D85*
X494405Y200280D02*
D03*
D86*
X623323Y249787D02*
D03*
X524905Y169762D02*
D03*
X525200Y175962D02*
D03*
X528988Y183071D02*
D03*
X593898Y225345D02*
D03*
X597342Y223425D02*
D03*
X599167Y233551D02*
D03*
X595472Y236319D02*
D03*
X601582Y230184D02*
D03*
X593996Y231004D02*
D03*
X601772Y244685D02*
D03*
X602067Y249902D02*
D03*
X616732Y238244D02*
D03*
X605799Y264476D02*
D03*
X589615Y229263D02*
D03*
X560039Y253256D02*
D03*
X564272D02*
D03*
X585236Y246063D02*
D03*
X567815Y244980D02*
D03*
X541634Y258169D02*
D03*
X515414Y251609D02*
D03*
X527052Y263062D02*
D03*
X506496Y229163D02*
D03*
X532283Y256496D02*
D03*
X531019Y248819D02*
D03*
X612613Y239361D02*
D03*
X572405Y258828D02*
D03*
X557874Y264764D02*
D03*
X561614Y266831D02*
D03*
X564764Y272736D02*
D03*
X580539Y239048D02*
D03*
X576995Y240525D02*
D03*
X568996Y271260D02*
D03*
X587419Y285358D02*
D03*
X564160Y297913D02*
D03*
X586139Y300810D02*
D03*
X528875Y298919D02*
D03*
X506496Y241043D02*
D03*
X509154Y219193D02*
D03*
X619390Y244783D02*
D03*
X605020Y260728D02*
D03*
X595866Y264764D02*
D03*
X524114Y247047D02*
D03*
X536882Y166535D02*
D03*
X563526Y204849D02*
D03*
X551772Y226563D02*
D03*
X537044Y235200D02*
D03*
X603677Y218972D02*
D03*
X522047Y217126D02*
D03*
X523917Y238976D02*
D03*
X537231Y183670D02*
D03*
X569193Y199705D02*
D03*
X531890Y208169D02*
D03*
X528346Y222441D02*
D03*
X566051Y217531D02*
D03*
X578150Y223622D02*
D03*
X560165Y164181D02*
D03*
X581336Y201341D02*
D03*
X574722Y171311D02*
D03*
X542741Y204141D02*
D03*
X561420Y210849D02*
D03*
X569602Y212595D02*
D03*
M02*
