G04*
G04 #@! TF.GenerationSoftware,Altium Limited,Altium Designer,21.0.8 (223)*
G04*
G04 Layer_Physical_Order=2*
G04 Layer_Color=16711680*
%FSLAX25Y25*%
%MOIN*%
G70*
G04*
G04 #@! TF.SameCoordinates,24BCDA9A-42F1-41D6-B0A9-C8EBA0504D6D*
G04*
G04*
G04 #@! TF.FilePolarity,Positive*
G04*
G01*
G75*
%ADD14C,0.01000*%
%ADD15C,0.00591*%
G04:AMPARAMS|DCode=16|XSize=23.62mil|YSize=23.62mil|CornerRadius=2.36mil|HoleSize=0mil|Usage=FLASHONLY|Rotation=270.000|XOffset=0mil|YOffset=0mil|HoleType=Round|Shape=RoundedRectangle|*
%AMROUNDEDRECTD16*
21,1,0.02362,0.01890,0,0,270.0*
21,1,0.01890,0.02362,0,0,270.0*
1,1,0.00472,-0.00945,-0.00945*
1,1,0.00472,-0.00945,0.00945*
1,1,0.00472,0.00945,0.00945*
1,1,0.00472,0.00945,-0.00945*
%
%ADD16ROUNDEDRECTD16*%
%ADD26R,0.04331X0.02362*%
G04:AMPARAMS|DCode=27|XSize=19.68mil|YSize=23.62mil|CornerRadius=1.97mil|HoleSize=0mil|Usage=FLASHONLY|Rotation=0.000|XOffset=0mil|YOffset=0mil|HoleType=Round|Shape=RoundedRectangle|*
%AMROUNDEDRECTD27*
21,1,0.01968,0.01968,0,0,0.0*
21,1,0.01575,0.02362,0,0,0.0*
1,1,0.00394,0.00787,-0.00984*
1,1,0.00394,-0.00787,-0.00984*
1,1,0.00394,-0.00787,0.00984*
1,1,0.00394,0.00787,0.00984*
%
%ADD27ROUNDEDRECTD27*%
%ADD75C,0.01968*%
%ADD76C,0.02362*%
%ADD77C,0.02480*%
%ADD78O,0.09118X0.04559*%
%ADD79O,0.09449X0.04724*%
%ADD80C,0.07087*%
%ADD81C,0.09449*%
%ADD82O,0.09449X0.09055*%
%ADD83C,0.03937*%
%ADD84P,0.05568X4X270.0*%
%ADD85P,0.05568X4X360.0*%
%ADD86C,0.03150*%
%ADD87R,0.03937X0.02047*%
%ADD88R,0.03937X0.01063*%
%ADD89R,0.07874X0.03937*%
%ADD90R,0.15590X0.15590*%
%ADD91R,0.20079X0.20079*%
G04:AMPARAMS|DCode=92|XSize=50mil|YSize=39.37mil|CornerRadius=0mil|HoleSize=0mil|Usage=FLASHONLY|Rotation=320.000|XOffset=0mil|YOffset=0mil|HoleType=Round|Shape=Rectangle|*
%AMROTATEDRECTD92*
4,1,4,-0.03180,0.00099,-0.00650,0.03115,0.03180,-0.00099,0.00650,-0.03115,-0.03180,0.00099,0.0*
%
%ADD92ROTATEDRECTD92*%

%ADD93R,0.04331X0.02559*%
%ADD94C,0.01378*%
G36*
X558468Y313365D02*
X563483Y312704D01*
X568445Y311718D01*
X573332Y310408D01*
X578123Y308782D01*
X582797Y306846D01*
X587334Y304608D01*
X591716Y302079D01*
X595922Y299268D01*
X599936Y296188D01*
X603740Y292852D01*
X607317Y289275D01*
X610653Y285471D01*
X613732Y281458D01*
X616543Y277251D01*
X619073Y272870D01*
X621310Y268332D01*
X623246Y263658D01*
X624873Y258868D01*
X626182Y253981D01*
X627169Y249019D01*
X627829Y244003D01*
X628160Y238955D01*
Y236425D01*
Y233896D01*
X627829Y228847D01*
X627169Y223831D01*
X626182Y218869D01*
X624873Y213983D01*
X623246Y209192D01*
X621310Y204518D01*
X619073Y199981D01*
X617564Y197367D01*
X617068Y197302D01*
X614811Y199560D01*
X614629Y199364D01*
X614129Y199354D01*
X602017Y211466D01*
X601803Y211555D01*
X601594Y211653D01*
X601579Y211647D01*
X601565Y211653D01*
X601351Y211565D01*
X601134Y211486D01*
X580884Y192974D01*
X580538Y193336D01*
X591317Y204115D01*
X591558Y204475D01*
X591643Y204901D01*
X591643Y204901D01*
Y205729D01*
X591558Y206155D01*
X591317Y206515D01*
X591317Y206515D01*
X579261Y218571D01*
Y221761D01*
X579711Y222061D01*
X580189Y222777D01*
X580357Y223622D01*
X580189Y224467D01*
X579711Y225183D01*
X578995Y225662D01*
X578150Y225830D01*
X577305Y225662D01*
X576588Y225183D01*
X576110Y224467D01*
X575942Y223622D01*
X576110Y222777D01*
X576588Y222061D01*
X577038Y221761D01*
Y218110D01*
X577038Y218110D01*
X577122Y217685D01*
X577363Y217324D01*
X589372Y205315D01*
X577677Y193620D01*
X577177Y193827D01*
Y195610D01*
X580806Y199239D01*
X581336Y199133D01*
X582181Y199301D01*
X582897Y199780D01*
X583376Y200496D01*
X583544Y201341D01*
X583376Y202186D01*
X582897Y202902D01*
X582181Y203381D01*
X581336Y203549D01*
X580491Y203381D01*
X579775Y202902D01*
X579296Y202186D01*
X579129Y201341D01*
X579234Y200811D01*
X575279Y196856D01*
X575038Y196496D01*
X574954Y196070D01*
X574954Y196070D01*
Y193849D01*
X574933Y193828D01*
X540158D01*
X540158Y193828D01*
X539732Y193744D01*
X539371Y193503D01*
X539371Y193503D01*
X532186Y186318D01*
X531945Y185957D01*
X531860Y185531D01*
X531860Y185531D01*
Y184171D01*
X531360Y184072D01*
X531237Y184369D01*
X530825Y184907D01*
X530287Y185320D01*
X529660Y185579D01*
X529488Y185602D01*
Y183071D01*
Y180540D01*
X529660Y180562D01*
X530287Y180822D01*
X530825Y181235D01*
X531237Y181772D01*
X531360Y182070D01*
X531860Y181970D01*
Y178051D01*
X531860Y178051D01*
X531945Y177626D01*
X532186Y177265D01*
X538628Y170823D01*
Y169006D01*
X538503Y168944D01*
X538128Y168806D01*
X537554Y169044D01*
X537382Y169067D01*
Y166535D01*
Y164004D01*
X537554Y164027D01*
X538180Y164286D01*
X538718Y164699D01*
X539131Y165237D01*
X539184Y165366D01*
X539774Y165483D01*
X539823Y165434D01*
X539823Y165434D01*
X540184Y165193D01*
X540610Y165109D01*
X544343D01*
X546056Y163395D01*
X546056Y163395D01*
X546417Y163154D01*
X546842Y163069D01*
X546842Y163069D01*
X558304D01*
X558604Y162620D01*
X559320Y162142D01*
X560165Y161974D01*
X561010Y162142D01*
X561726Y162620D01*
X562205Y163336D01*
X562373Y164181D01*
X562205Y165026D01*
X561726Y165742D01*
X561010Y166221D01*
X560165Y166389D01*
X559320Y166221D01*
X558604Y165742D01*
X558304Y165293D01*
X547303D01*
X545982Y166614D01*
X546189Y167114D01*
X561894D01*
Y188374D01*
X561894D01*
X561955Y188849D01*
X575591D01*
X575591Y188849D01*
X576016Y188933D01*
X576303Y189125D01*
X576645Y188975D01*
X576782Y188873D01*
X576849Y188710D01*
X576928Y188492D01*
X576942Y188486D01*
X576948Y188472D01*
X590611Y174809D01*
X591021Y174639D01*
X591102Y174532D01*
X591262Y174164D01*
X591133Y174024D01*
X593038Y172120D01*
X592989Y171622D01*
X591716Y170772D01*
X587334Y168242D01*
X582797Y166005D01*
X578123Y164068D01*
X573332Y162442D01*
X568445Y161133D01*
X563483Y160146D01*
X558468Y159485D01*
X553419Y159155D01*
X548360D01*
X543312Y159485D01*
X538296Y160146D01*
X533334Y161133D01*
X528447Y162442D01*
X523657Y164068D01*
X518983Y166005D01*
X514445Y168242D01*
X510064Y170772D01*
X505857Y173582D01*
X501844Y176662D01*
X498040Y179998D01*
X494462Y183575D01*
X491127Y187379D01*
X488047Y191393D01*
X485236Y195599D01*
X482707Y199981D01*
X480469Y204518D01*
X478533Y209192D01*
X476907Y213983D01*
X475597Y218869D01*
X474610Y223831D01*
X473950Y228847D01*
X473619Y233896D01*
Y236425D01*
Y238955D01*
X473950Y244003D01*
X474610Y249019D01*
X475597Y253981D01*
X476907Y258868D01*
X478533Y263658D01*
X480469Y268332D01*
X482707Y272870D01*
X485236Y277251D01*
X488047Y281458D01*
X491127Y285471D01*
X494462Y289275D01*
X498040Y292852D01*
X501844Y296188D01*
X505857Y299268D01*
X510064Y302079D01*
X514445Y304608D01*
X518983Y306846D01*
X523657Y308782D01*
X528447Y310408D01*
X533334Y311718D01*
X538296Y312704D01*
X543312Y313365D01*
X548360Y313696D01*
X553419D01*
X558468Y313365D01*
D02*
G37*
%LPC*%
G36*
X586639Y303342D02*
Y301310D01*
X588670D01*
X588648Y301483D01*
X588388Y302109D01*
X587976Y302647D01*
X587438Y303060D01*
X586811Y303319D01*
X586639Y303342D01*
D02*
G37*
G36*
X585639D02*
X585467Y303319D01*
X584841Y303060D01*
X584303Y302647D01*
X583890Y302109D01*
X583631Y301483D01*
X583608Y301310D01*
X585639D01*
Y303342D01*
D02*
G37*
G36*
X529375Y301450D02*
Y299419D01*
X531406D01*
X531384Y299591D01*
X531124Y300218D01*
X530711Y300756D01*
X530173Y301168D01*
X529547Y301428D01*
X529375Y301450D01*
D02*
G37*
G36*
X528375D02*
X528203Y301428D01*
X527576Y301168D01*
X527039Y300756D01*
X526626Y300218D01*
X526367Y299591D01*
X526344Y299419D01*
X528375D01*
Y301450D01*
D02*
G37*
G36*
X588670Y300310D02*
X586639D01*
Y298279D01*
X586811Y298302D01*
X587438Y298561D01*
X587976Y298974D01*
X588388Y299512D01*
X588648Y300138D01*
X588670Y300310D01*
D02*
G37*
G36*
X585639D02*
X583608D01*
X583631Y300138D01*
X583890Y299512D01*
X584303Y298974D01*
X584841Y298561D01*
X585467Y298302D01*
X585639Y298279D01*
Y300310D01*
D02*
G37*
G36*
X531406Y298419D02*
X529375D01*
Y296388D01*
X529547Y296411D01*
X530173Y296670D01*
X530711Y297083D01*
X531124Y297621D01*
X531384Y298247D01*
X531406Y298419D01*
D02*
G37*
G36*
X528375D02*
X526344D01*
X526367Y298247D01*
X526626Y297621D01*
X527039Y297083D01*
X527576Y296670D01*
X528203Y296411D01*
X528375Y296388D01*
Y298419D01*
D02*
G37*
G36*
X561894Y308846D02*
X540634D01*
Y287587D01*
X561894D01*
Y295815D01*
X562123Y295955D01*
X562394Y296023D01*
X562861Y295664D01*
X563488Y295404D01*
X563660Y295382D01*
Y297913D01*
X564160D01*
Y298413D01*
X566691D01*
X566668Y298585D01*
X566409Y299212D01*
X565996Y299749D01*
X565848Y299863D01*
X566018Y300363D01*
X573754D01*
X574162Y300121D01*
X578897Y296148D01*
X582187Y300068D01*
X577452Y304042D01*
X576582Y303004D01*
X576082Y302982D01*
X575961Y303104D01*
X575440Y303452D01*
X574825Y303574D01*
X574825Y303574D01*
X561894D01*
Y308846D01*
D02*
G37*
G36*
X566691Y297413D02*
X564660D01*
Y295382D01*
X564832Y295404D01*
X565458Y295664D01*
X565996Y296077D01*
X566409Y296614D01*
X566668Y297241D01*
X566691Y297413D01*
D02*
G37*
G36*
X515169Y297001D02*
X511551Y293382D01*
X512056Y292876D01*
X511823Y292403D01*
X511634Y292428D01*
X510966Y292340D01*
X510343Y292082D01*
X509809Y291672D01*
X509399Y291137D01*
X509141Y290515D01*
X509053Y289847D01*
X509141Y289178D01*
X508767Y288804D01*
X508098Y288892D01*
X507430Y288804D01*
X506808Y288546D01*
X506273Y288136D01*
X505863Y287602D01*
X505605Y286979D01*
X505517Y286311D01*
X505605Y285643D01*
X505231Y285269D01*
X504563Y285357D01*
X503895Y285269D01*
X503272Y285011D01*
X502738Y284601D01*
X502328Y284066D01*
X502070Y283443D01*
X501982Y282775D01*
X502070Y282107D01*
X501695Y281733D01*
X501027Y281821D01*
X500359Y281733D01*
X499737Y281475D01*
X499202Y281065D01*
X498792Y280531D01*
X498534Y279908D01*
X498446Y279240D01*
X498471Y279053D01*
X498436Y278974D01*
X498022Y278629D01*
X497492Y278698D01*
X496717Y278596D01*
X495995Y278297D01*
X495775Y278129D01*
X497845Y276058D01*
X499916Y273987D01*
X500085Y274207D01*
X500384Y274929D01*
X500486Y275704D01*
X500416Y276235D01*
X500762Y276648D01*
X500841Y276683D01*
X501027Y276659D01*
X501695Y276747D01*
X502318Y277005D01*
X502852Y277415D01*
X503263Y277949D01*
X503520Y278572D01*
X503609Y279240D01*
X503520Y279908D01*
X503895Y280282D01*
X504563Y280194D01*
X505231Y280282D01*
X505853Y280540D01*
X506388Y280950D01*
X506798Y281485D01*
X507056Y282107D01*
X507144Y282775D01*
X507056Y283443D01*
X507430Y283818D01*
X508098Y283730D01*
X508767Y283818D01*
X509389Y284076D01*
X509924Y284486D01*
X510334Y285020D01*
X510592Y285643D01*
X510679Y286311D01*
X510592Y286979D01*
X510966Y287353D01*
X511634Y287265D01*
X512302Y287353D01*
X512924Y287611D01*
X513459Y288021D01*
X513869Y288556D01*
X514127Y289178D01*
X514215Y289847D01*
X514190Y290035D01*
X514664Y290269D01*
X515169Y289763D01*
X518788Y293382D01*
X515169Y297001D01*
D02*
G37*
G36*
X587919Y287889D02*
Y285858D01*
X589950D01*
X589927Y286030D01*
X589668Y286656D01*
X589255Y287194D01*
X588717Y287607D01*
X588091Y287866D01*
X587919Y287889D01*
D02*
G37*
G36*
X586919D02*
X586747Y287866D01*
X586120Y287607D01*
X585582Y287194D01*
X585170Y286656D01*
X584910Y286030D01*
X584888Y285858D01*
X586919D01*
Y287889D01*
D02*
G37*
G36*
X573819Y283495D02*
X573819Y283495D01*
X541240D01*
X541240Y283495D01*
X540626Y283373D01*
X540105Y283025D01*
X540105Y283025D01*
X503803Y246724D01*
X503067D01*
Y247532D01*
X500098D01*
Y248532D01*
X503067D01*
Y250055D01*
X502815D01*
X502645Y250555D01*
X502949Y250788D01*
X503409Y251387D01*
X503698Y252085D01*
X503796Y252835D01*
X503698Y253584D01*
X503409Y254282D01*
X502949Y254882D01*
X502349Y255342D01*
X501651Y255631D01*
X500902Y255730D01*
X496343D01*
X495593Y255631D01*
X494895Y255342D01*
X494296Y254882D01*
X493835Y254282D01*
X493546Y253584D01*
X493448Y252835D01*
X493546Y252085D01*
X493835Y251387D01*
X494296Y250788D01*
X494895Y250328D01*
X495593Y250038D01*
X496343Y249940D01*
X496835D01*
X496898Y249686D01*
X496482Y249362D01*
X495768Y249504D01*
X495053Y249362D01*
X494448Y248958D01*
X494043Y248352D01*
X493901Y247638D01*
X494043Y246923D01*
X494448Y246318D01*
X495053Y245913D01*
X495501Y245824D01*
X495666Y245282D01*
X493943Y243559D01*
X493595Y243038D01*
X493473Y242424D01*
X493473Y242424D01*
Y229230D01*
X493473Y229230D01*
X493595Y228615D01*
X493943Y228094D01*
X495666Y226372D01*
X495501Y225829D01*
X495053Y225740D01*
X494448Y225336D01*
X494043Y224730D01*
X493901Y224016D01*
X494043Y223301D01*
X494448Y222696D01*
X495053Y222291D01*
X495768Y222149D01*
X496482Y222291D01*
X496898Y221968D01*
X496835Y221714D01*
X496343D01*
X495593Y221615D01*
X494895Y221326D01*
X494296Y220866D01*
X493835Y220266D01*
X493546Y219568D01*
X493448Y218819D01*
X493546Y218070D01*
X493835Y217372D01*
X494296Y216772D01*
X494895Y216312D01*
X495593Y216023D01*
X496343Y215924D01*
X500902D01*
X501651Y216023D01*
X502349Y216312D01*
X502949Y216772D01*
X503409Y217372D01*
X503698Y218070D01*
X503796Y218819D01*
X503698Y219568D01*
X503409Y220266D01*
X502949Y220866D01*
X502645Y221098D01*
X502815Y221598D01*
X503067D01*
Y223122D01*
X500098D01*
Y224122D01*
X503067D01*
Y224566D01*
X503567Y224773D01*
X507447Y220893D01*
Y220536D01*
X507114Y220038D01*
X506946Y219193D01*
X507114Y218348D01*
X507154Y218288D01*
Y208228D01*
X499031Y200105D01*
X498603Y200280D01*
X496858Y202025D01*
X494759Y199926D01*
X492660Y197827D01*
X494405Y196082D01*
X494880Y196556D01*
X495408Y196377D01*
X495448Y196076D01*
X495706Y195454D01*
X496116Y194919D01*
X496650Y194509D01*
X497273Y194251D01*
X497941Y194163D01*
X498609Y194251D01*
X498983Y193877D01*
X498895Y193209D01*
X498983Y192541D01*
X499241Y191918D01*
X499651Y191384D01*
X500186Y190973D01*
X500808Y190716D01*
X501476Y190628D01*
X502144Y190716D01*
X502519Y190341D01*
X502431Y189673D01*
X502519Y189005D01*
X502777Y188383D01*
X503187Y187848D01*
X503721Y187438D01*
X504344Y187180D01*
X505012Y187092D01*
X505680Y187180D01*
X506054Y186806D01*
X505966Y186138D01*
X506054Y185470D01*
X506312Y184847D01*
X506722Y184312D01*
X507257Y183902D01*
X507879Y183644D01*
X508547Y183556D01*
X509215Y183644D01*
X509590Y183270D01*
X509502Y182602D01*
X509590Y181934D01*
X509848Y181312D01*
X510258Y180777D01*
X510792Y180367D01*
X511415Y180109D01*
X512083Y180021D01*
X512751Y180109D01*
X513374Y180367D01*
X513908Y180777D01*
X514318Y181312D01*
X514576Y181934D01*
X514664Y182602D01*
X514576Y183270D01*
X514318Y183893D01*
X513908Y184427D01*
X513374Y184837D01*
X512751Y185095D01*
X512083Y185183D01*
X511415Y185095D01*
X511041Y185470D01*
X511129Y186138D01*
X511041Y186806D01*
X510783Y187428D01*
X510373Y187963D01*
X509838Y188373D01*
X509215Y188631D01*
X508547Y188719D01*
X507879Y188631D01*
X507505Y189005D01*
X507593Y189673D01*
X507505Y190341D01*
X507247Y190964D01*
X506837Y191498D01*
X506302Y191909D01*
X505680Y192166D01*
X505012Y192254D01*
X504344Y192166D01*
X503969Y192541D01*
X504058Y193209D01*
X503969Y193877D01*
X503712Y194499D01*
X503301Y195034D01*
X502767Y195444D01*
X502144Y195702D01*
X501476Y195790D01*
X500808Y195702D01*
X500434Y196076D01*
X500522Y196744D01*
X500486Y197019D01*
X509895Y206428D01*
X509895Y206428D01*
X510243Y206949D01*
X510365Y207563D01*
X510365Y207563D01*
Y217399D01*
X510715Y217632D01*
X511193Y218348D01*
X511361Y219193D01*
X511193Y220038D01*
X510715Y220754D01*
X510658Y220792D01*
Y221558D01*
X510658Y221558D01*
X510536Y222172D01*
X510188Y222693D01*
X510188Y222693D01*
X506373Y226508D01*
X506611Y226977D01*
X507341Y227123D01*
X508057Y227601D01*
X508536Y228318D01*
X508704Y229163D01*
X508536Y230007D01*
X508057Y230724D01*
X507341Y231202D01*
X506496Y231370D01*
X505651Y231202D01*
X504935Y230724D01*
X504456Y230007D01*
X504446Y229953D01*
X502658D01*
Y231752D01*
Y235689D01*
Y239992D01*
X504594D01*
X504935Y239482D01*
X505651Y239004D01*
X506496Y238836D01*
X507341Y239004D01*
X508057Y239482D01*
X508536Y240198D01*
X508704Y241043D01*
X508536Y241888D01*
X508057Y242604D01*
X507341Y243083D01*
X506496Y243251D01*
X505651Y243083D01*
X504935Y242604D01*
X504456Y241888D01*
X504439Y241799D01*
X502658D01*
Y243513D01*
X504468D01*
X504468Y243512D01*
X505083Y243635D01*
X505604Y243983D01*
X512835Y251214D01*
X513313Y251069D01*
X513374Y250764D01*
X513853Y250048D01*
X514569Y249569D01*
X515414Y249401D01*
X515750Y249468D01*
X516360Y248858D01*
Y248612D01*
X516360Y248612D01*
X516445Y248186D01*
X516686Y247826D01*
X521943Y242568D01*
X521943Y242568D01*
X522304Y242327D01*
X522729Y242242D01*
X523940D01*
X524075Y242057D01*
X523999Y241823D01*
X523819Y241560D01*
X523245Y241485D01*
X522619Y241226D01*
X522081Y240813D01*
X521668Y240275D01*
X521409Y239649D01*
X521386Y239476D01*
X523917D01*
Y238976D01*
X524417D01*
Y236445D01*
X524589Y236468D01*
X525216Y236727D01*
X525754Y237140D01*
X526166Y237678D01*
X526290Y237975D01*
X526790Y237876D01*
Y234843D01*
X526790Y234843D01*
X526874Y234418D01*
X527115Y234057D01*
X551109Y210063D01*
X551109Y210063D01*
X551470Y209822D01*
X551896Y209737D01*
X551896Y209737D01*
X559558D01*
X559858Y209288D01*
X560575Y208810D01*
X561420Y208642D01*
X562264Y208810D01*
X562981Y209288D01*
X563459Y210004D01*
X563627Y210849D01*
X563459Y211694D01*
X562981Y212411D01*
X562264Y212889D01*
X561420Y213057D01*
X560575Y212889D01*
X559858Y212411D01*
X559558Y211961D01*
X552356D01*
X548398Y215920D01*
X548605Y216420D01*
X564190D01*
X564490Y215970D01*
X565206Y215492D01*
X566051Y215324D01*
X566896Y215492D01*
X567612Y215970D01*
X568091Y216687D01*
X568259Y217531D01*
X568091Y218376D01*
X567612Y219093D01*
X566896Y219571D01*
X566051Y219739D01*
X565206Y219571D01*
X564490Y219093D01*
X564190Y218643D01*
X548480D01*
X530998Y236126D01*
Y241449D01*
X530913Y241874D01*
X530672Y242235D01*
X530672Y242235D01*
X527176Y245731D01*
X526815Y245972D01*
X526588Y246017D01*
X526372Y246109D01*
X526224Y246557D01*
X526322Y247047D01*
X526154Y247892D01*
X525675Y248608D01*
X524959Y249087D01*
X524114Y249255D01*
X523269Y249087D01*
X522553Y248608D01*
X522074Y247892D01*
X521906Y247047D01*
X522053Y246310D01*
X521692Y246037D01*
X521641Y246016D01*
X518584Y249072D01*
Y249319D01*
X518584Y249319D01*
X518499Y249744D01*
X518258Y250105D01*
X517478Y250886D01*
X517622Y251609D01*
X517453Y252454D01*
X516975Y253170D01*
X516259Y253649D01*
X515954Y253709D01*
X515809Y254188D01*
X524082Y262460D01*
X524595Y262266D01*
X524803Y261764D01*
X525216Y261226D01*
X525754Y260813D01*
X526380Y260554D01*
X526552Y260531D01*
Y263062D01*
X527052D01*
Y263562D01*
X529583D01*
X529561Y263734D01*
X529301Y264361D01*
X528889Y264899D01*
X528351Y265311D01*
X527848Y265520D01*
X527654Y266033D01*
X541905Y280284D01*
X573154D01*
X573926Y279512D01*
Y266004D01*
X573926Y266004D01*
X574048Y265389D01*
X574396Y264869D01*
X593768Y245496D01*
Y245276D01*
X593768Y245276D01*
X593891Y244661D01*
X594239Y244140D01*
X596229Y242150D01*
Y239469D01*
X596229Y239469D01*
X596351Y238854D01*
X596045Y238413D01*
X595472Y238527D01*
X594628Y238359D01*
X593911Y237880D01*
X593433Y237164D01*
X593268Y236335D01*
X589676Y232742D01*
X589480Y232449D01*
X589411Y232104D01*
Y231430D01*
X588770Y231302D01*
X588054Y230824D01*
X587575Y230107D01*
X587407Y229263D01*
X587575Y228418D01*
X588054Y227701D01*
X588770Y227223D01*
X589615Y227055D01*
X590460Y227223D01*
X591176Y227701D01*
X591655Y228418D01*
X591747Y228884D01*
X591864Y228964D01*
X592293Y229065D01*
X592697Y228755D01*
X593324Y228495D01*
X593496Y228473D01*
Y231004D01*
X594496D01*
Y228473D01*
X594668Y228495D01*
X595295Y228755D01*
X595419Y228850D01*
X595749Y228473D01*
X594674Y227398D01*
X593898Y227552D01*
X593053Y227384D01*
X592337Y226906D01*
X591858Y226190D01*
X591690Y225345D01*
X591858Y224500D01*
X592337Y223783D01*
X593053Y223305D01*
X593898Y223137D01*
X594742Y223305D01*
X595215Y223020D01*
X595303Y222580D01*
X595781Y221864D01*
X596498Y221386D01*
X597342Y221217D01*
X598187Y221386D01*
X598904Y221864D01*
X599382Y222580D01*
X599550Y223425D01*
X599382Y224270D01*
X598904Y224986D01*
X598882Y225001D01*
X598843Y225548D01*
X601323Y228028D01*
X601582Y227976D01*
X602427Y228144D01*
X603143Y228623D01*
X603432Y229055D01*
X604053Y229140D01*
X606276Y226918D01*
Y225449D01*
X608805D01*
Y220494D01*
X608691Y220323D01*
X608630Y220016D01*
Y218229D01*
X608252Y217850D01*
Y216276D01*
X608213Y216079D01*
Y215595D01*
X610220D01*
X612228D01*
Y216079D01*
X612189Y216276D01*
Y217850D01*
X611811Y218229D01*
Y220016D01*
X611750Y220323D01*
X611576Y220583D01*
X611315Y220758D01*
X611029Y220814D01*
Y225449D01*
X611787D01*
Y228742D01*
X614853Y231807D01*
X615315Y231616D01*
Y231559D01*
X618480D01*
X621646D01*
Y233339D01*
X621236D01*
Y236669D01*
X619358D01*
X619074Y237169D01*
X619241Y237572D01*
X619264Y237744D01*
X616732D01*
Y238244D01*
X616232D01*
Y240775D01*
X616060Y240753D01*
X615466Y240507D01*
X615305Y240470D01*
X614895Y240580D01*
X614862Y240659D01*
X614449Y241197D01*
X613911Y241610D01*
X613285Y241869D01*
X613113Y241892D01*
Y239361D01*
X612113D01*
Y241892D01*
X611941Y241869D01*
X611540Y241703D01*
X611040Y241989D01*
Y242087D01*
X610976Y242409D01*
X610793Y242683D01*
X610519Y242865D01*
X610197Y242930D01*
X609711D01*
X609646Y242943D01*
X609580Y242930D01*
X608307D01*
X608261Y242920D01*
X608071Y243110D01*
X606953D01*
X606742Y243251D01*
X606260Y243347D01*
X605815D01*
Y241142D01*
Y238936D01*
X606260D01*
X606742Y239032D01*
X606953Y239173D01*
X608071D01*
X608534Y238929D01*
Y236669D01*
X606276D01*
Y233989D01*
X606133Y233891D01*
X605776Y233798D01*
X599440Y240134D01*
Y242815D01*
X599440Y242815D01*
X599318Y243429D01*
X598970Y243950D01*
X598970Y243950D01*
X596980Y245941D01*
Y246161D01*
X596980Y246162D01*
X596857Y246776D01*
X596509Y247297D01*
X577137Y266669D01*
Y280177D01*
X577015Y280792D01*
X576667Y281312D01*
X576667Y281313D01*
X574954Y283025D01*
X574433Y283373D01*
X573819Y283495D01*
D02*
G37*
G36*
X589950Y284858D02*
X587919D01*
Y282826D01*
X588091Y282849D01*
X588717Y283109D01*
X589255Y283521D01*
X589668Y284059D01*
X589927Y284685D01*
X589950Y284858D01*
D02*
G37*
G36*
X586919D02*
X584888D01*
X584910Y284685D01*
X585170Y284059D01*
X585582Y283521D01*
X586120Y283109D01*
X586747Y282849D01*
X586919Y282826D01*
Y284858D01*
D02*
G37*
G36*
X495068Y277421D02*
X494899Y277202D01*
X494600Y276479D01*
X494498Y275704D01*
X494600Y274929D01*
X494899Y274207D01*
X495068Y273987D01*
X496785Y275704D01*
X495068Y277421D01*
D02*
G37*
G36*
X497492Y274997D02*
X495775Y273280D01*
X495995Y273111D01*
X496717Y272812D01*
X497492Y272710D01*
X498267Y272812D01*
X498989Y273111D01*
X499209Y273280D01*
X497492Y274997D01*
D02*
G37*
G36*
X511614Y280055D02*
X510535Y279913D01*
X509529Y279497D01*
X508666Y278834D01*
X508003Y277971D01*
X507587Y276965D01*
X507445Y275886D01*
X507587Y274807D01*
X508003Y273801D01*
X508666Y272937D01*
X509529Y272275D01*
X510535Y271858D01*
X511614Y271716D01*
X512693Y271858D01*
X513699Y272275D01*
X514563Y272937D01*
X515225Y273801D01*
X515642Y274807D01*
X515784Y275886D01*
X515642Y276965D01*
X515225Y277971D01*
X514563Y278834D01*
X513699Y279497D01*
X512693Y279913D01*
X511614Y280055D01*
D02*
G37*
G36*
X591043Y280853D02*
X589656Y280670D01*
X588363Y280135D01*
X587253Y279283D01*
X586401Y278172D01*
X585865Y276880D01*
X585682Y275492D01*
X585865Y274105D01*
X586401Y272812D01*
X587253Y271702D01*
X588363Y270849D01*
X589656Y270314D01*
X591043Y270131D01*
X592431Y270314D01*
X593724Y270849D01*
X594834Y271702D01*
X595686Y272812D01*
X596221Y274105D01*
X596404Y275492D01*
X596221Y276880D01*
X595686Y278172D01*
X594834Y279283D01*
X593724Y280135D01*
X592431Y280670D01*
X591043Y280853D01*
D02*
G37*
G36*
X564764Y274944D02*
X563919Y274776D01*
X563203Y274297D01*
X562724Y273581D01*
X562556Y272736D01*
X562724Y271891D01*
X563203Y271175D01*
X563919Y270696D01*
X564764Y270529D01*
X565140Y270220D01*
Y260039D01*
X565209Y259694D01*
X565405Y259401D01*
X576092Y248713D01*
Y242525D01*
X575434Y242086D01*
X574956Y241369D01*
X574840Y240790D01*
X574340Y240840D01*
Y243336D01*
X574340Y243336D01*
X574256Y243762D01*
X574015Y244123D01*
X566760Y251377D01*
X566400Y251618D01*
X566385Y251621D01*
X566155Y252176D01*
X566311Y252411D01*
X566479Y253256D01*
X566311Y254101D01*
X565833Y254817D01*
X565117Y255296D01*
X564272Y255464D01*
X563994Y255692D01*
Y265316D01*
X563994Y265317D01*
X563925Y265662D01*
X563729Y265955D01*
X563661Y266023D01*
X563822Y266831D01*
X563654Y267676D01*
X563175Y268392D01*
X562459Y268870D01*
X561614Y269039D01*
X560769Y268870D01*
X560053Y268392D01*
X559575Y267676D01*
X559427Y266932D01*
X559123Y266730D01*
X558930Y266662D01*
X558719Y266804D01*
X557874Y266971D01*
X557029Y266804D01*
X556313Y266325D01*
X555834Y265609D01*
X555666Y264764D01*
X555834Y263919D01*
X556313Y263203D01*
X556971Y262763D01*
Y255315D01*
X557040Y254969D01*
X557235Y254676D01*
X557968Y253943D01*
X557832Y253256D01*
X558000Y252411D01*
X558179Y252143D01*
X557943Y251702D01*
X549789D01*
X549611Y251738D01*
X549611Y251738D01*
X536842D01*
X534222Y254358D01*
Y255087D01*
X534159Y255406D01*
X534323Y255651D01*
X534491Y256496D01*
X534323Y257341D01*
X533845Y258057D01*
X533128Y258536D01*
X532283Y258704D01*
X531439Y258536D01*
X530722Y258057D01*
X530244Y257341D01*
X530076Y256496D01*
X530244Y255651D01*
X530722Y254935D01*
X531439Y254456D01*
X531940Y254357D01*
X531998Y253897D01*
X532083Y253472D01*
X532324Y253111D01*
X535596Y249840D01*
X535596Y249840D01*
X535956Y249599D01*
X536382Y249514D01*
X549469D01*
X549647Y249479D01*
X549647Y249479D01*
X565514D01*
X567041Y247951D01*
X566898Y247387D01*
X566516Y247229D01*
X565979Y246817D01*
X565566Y246279D01*
X565306Y245653D01*
X565284Y245480D01*
X567815D01*
Y244480D01*
X565284D01*
X565306Y244308D01*
X565566Y243682D01*
X565674Y243541D01*
X565413Y243060D01*
X565370Y243063D01*
X560781Y247652D01*
X560420Y247893D01*
X559994Y247978D01*
X559994Y247978D01*
X543017D01*
X543017Y247978D01*
X542591Y247893D01*
X542231Y247652D01*
X542231Y247652D01*
X540820Y246242D01*
X535007D01*
X533094Y248155D01*
X533226Y248819D01*
X533058Y249664D01*
X532580Y250380D01*
X531864Y250859D01*
X531019Y251027D01*
X530174Y250859D01*
X529458Y250380D01*
X528979Y249664D01*
X528811Y248819D01*
X528979Y247974D01*
X529458Y247258D01*
X530174Y246779D01*
X531019Y246611D01*
X531414Y246690D01*
X533760Y244344D01*
X533760Y244344D01*
X534121Y244103D01*
X534547Y244018D01*
X541281D01*
X541281Y244018D01*
X541706Y244103D01*
X541968Y244278D01*
X542469Y244113D01*
Y238480D01*
X551264D01*
X560059D01*
Y244576D01*
X560521Y244767D01*
X569542Y235746D01*
Y215784D01*
X569340Y215482D01*
X569255Y215056D01*
X568955Y214674D01*
X568757Y214634D01*
X568041Y214156D01*
X567562Y213439D01*
X567394Y212595D01*
X567562Y211750D01*
X568041Y211033D01*
X568757Y210555D01*
X569602Y210387D01*
X570447Y210555D01*
X571163Y211033D01*
X571616Y211712D01*
X571653Y211716D01*
X572009Y211480D01*
X572044Y210952D01*
X567052Y205960D01*
X565388D01*
X565088Y206410D01*
X564371Y206888D01*
X563526Y207056D01*
X562681Y206888D01*
X561965Y206410D01*
X561487Y205693D01*
X561319Y204849D01*
X561487Y204004D01*
X561965Y203287D01*
X562681Y202809D01*
X563526Y202641D01*
X564371Y202809D01*
X565088Y203287D01*
X565388Y203737D01*
X567513D01*
X567513Y203737D01*
X567938Y203821D01*
X568299Y204062D01*
X574015Y209778D01*
X574015Y209778D01*
X574256Y210139D01*
X574340Y210564D01*
Y240209D01*
X574840Y240259D01*
X574956Y239680D01*
X575434Y238963D01*
X576150Y238485D01*
X576995Y238317D01*
X577840Y238485D01*
X577998Y238590D01*
X578460Y238399D01*
X578499Y238203D01*
X578977Y237487D01*
X579694Y237008D01*
X580539Y236840D01*
X581383Y237008D01*
X582100Y237487D01*
X582578Y238203D01*
X582746Y239048D01*
X582578Y239893D01*
X582100Y240609D01*
X581442Y241049D01*
Y247215D01*
X581442Y247215D01*
X581373Y247560D01*
X581177Y247853D01*
X573173Y255858D01*
X573318Y256419D01*
X573703Y256579D01*
X574241Y256992D01*
X574654Y257529D01*
X574913Y258156D01*
X574936Y258328D01*
X572405D01*
Y258828D01*
X571905D01*
Y261359D01*
X571733Y261337D01*
X571106Y261077D01*
X570568Y260664D01*
X570156Y260126D01*
X569996Y259741D01*
X569434Y259596D01*
X568324Y260706D01*
Y268710D01*
X568777Y269096D01*
X568996Y269052D01*
X569841Y269220D01*
X570557Y269699D01*
X571036Y270415D01*
X571204Y271260D01*
X571036Y272105D01*
X570557Y272821D01*
X569841Y273300D01*
X568996Y273468D01*
X568151Y273300D01*
X567435Y272821D01*
X566927Y272961D01*
X566804Y273581D01*
X566325Y274297D01*
X565609Y274776D01*
X564764Y274944D01*
D02*
G37*
G36*
X619291Y267953D02*
X619004D01*
Y266248D01*
X620512D01*
Y266732D01*
X620419Y267199D01*
X620154Y267595D01*
X619758Y267860D01*
X619291Y267953D01*
D02*
G37*
G36*
X618004D02*
X617717D01*
X617249Y267860D01*
X616854Y267595D01*
X616589Y267199D01*
X616496Y266732D01*
Y266248D01*
X618004D01*
Y267953D01*
D02*
G37*
G36*
X610039Y267854D02*
X609752D01*
Y266150D01*
X611260D01*
Y266634D01*
X611167Y267101D01*
X610902Y267497D01*
X610506Y267761D01*
X610039Y267854D01*
D02*
G37*
G36*
X596366Y267295D02*
Y265264D01*
X598397D01*
X598375Y265436D01*
X598115Y266062D01*
X597703Y266600D01*
X597165Y267013D01*
X596538Y267272D01*
X596366Y267295D01*
D02*
G37*
G36*
X595366D02*
X595194Y267272D01*
X594568Y267013D01*
X594030Y266600D01*
X593617Y266062D01*
X593358Y265436D01*
X593335Y265264D01*
X595366D01*
Y267295D01*
D02*
G37*
G36*
X598397Y264264D02*
X596366D01*
Y262233D01*
X596538Y262255D01*
X597165Y262515D01*
X597703Y262927D01*
X598115Y263465D01*
X598375Y264092D01*
X598397Y264264D01*
D02*
G37*
G36*
X595366D02*
X593335D01*
X593358Y264092D01*
X593617Y263465D01*
X594030Y262927D01*
X594568Y262515D01*
X595194Y262255D01*
X595366Y262233D01*
Y264264D01*
D02*
G37*
G36*
X529583Y262562D02*
X527552D01*
Y260531D01*
X527724Y260554D01*
X528351Y260813D01*
X528889Y261226D01*
X529301Y261764D01*
X529561Y262390D01*
X529583Y262562D01*
D02*
G37*
G36*
X572905Y261359D02*
Y259328D01*
X574936D01*
X574913Y259500D01*
X574654Y260126D01*
X574241Y260664D01*
X573703Y261077D01*
X573077Y261337D01*
X572905Y261359D01*
D02*
G37*
G36*
X542134Y260700D02*
Y258669D01*
X544165D01*
X544142Y258841D01*
X543883Y259468D01*
X543470Y260006D01*
X542932Y260418D01*
X542306Y260678D01*
X542134Y260700D01*
D02*
G37*
G36*
X541134D02*
X540962Y260678D01*
X540335Y260418D01*
X539797Y260006D01*
X539385Y259468D01*
X539125Y258841D01*
X539103Y258669D01*
X541134D01*
Y260700D01*
D02*
G37*
G36*
X544165Y257669D02*
X542134D01*
Y255638D01*
X542306Y255661D01*
X542932Y255920D01*
X543470Y256333D01*
X543883Y256871D01*
X544142Y257497D01*
X544165Y257669D01*
D02*
G37*
G36*
X541134D02*
X539103D01*
X539125Y257497D01*
X539385Y256871D01*
X539797Y256333D01*
X540335Y255920D01*
X540962Y255661D01*
X541134Y255638D01*
Y257669D01*
D02*
G37*
G36*
X623823Y252318D02*
Y250287D01*
X625854D01*
X625832Y250459D01*
X625572Y251086D01*
X625159Y251624D01*
X624621Y252036D01*
X623995Y252296D01*
X623823Y252318D01*
D02*
G37*
G36*
X485925Y255813D02*
X481201D01*
X480430Y255711D01*
X479712Y255414D01*
X479095Y254941D01*
X478622Y254324D01*
X478324Y253606D01*
X478223Y252835D01*
X478324Y252064D01*
X478622Y251345D01*
X479095Y250729D01*
X479712Y250255D01*
X480430Y249958D01*
X481201Y249856D01*
X485925D01*
X486696Y249958D01*
X487414Y250255D01*
X488031Y250729D01*
X488504Y251345D01*
X488802Y252064D01*
X488903Y252835D01*
X488802Y253606D01*
X488504Y254324D01*
X488031Y254941D01*
X487414Y255414D01*
X486696Y255711D01*
X485925Y255813D01*
D02*
G37*
G36*
X625854Y249287D02*
X623823D01*
Y247256D01*
X623995Y247279D01*
X624621Y247538D01*
X625159Y247951D01*
X625572Y248489D01*
X625832Y249115D01*
X625854Y249287D01*
D02*
G37*
G36*
X600433Y284758D02*
X597144Y280837D01*
X599615Y278763D01*
X599550Y278438D01*
X599550Y278438D01*
Y254570D01*
X599550Y254570D01*
X599673Y253956D01*
X600021Y253435D01*
X601064Y252391D01*
X601072Y252368D01*
X601060Y251958D01*
X601003Y251795D01*
X600506Y251463D01*
X600027Y250746D01*
X599859Y249902D01*
X600027Y249057D01*
X600506Y248340D01*
X601016Y248000D01*
Y246743D01*
X600927Y246725D01*
X600211Y246246D01*
X599732Y245530D01*
X599564Y244685D01*
X599732Y243840D01*
X600211Y243124D01*
X600927Y242645D01*
X601772Y242477D01*
X602617Y242645D01*
X602769Y242747D01*
X603175Y242418D01*
X603110Y242087D01*
Y241642D01*
X604815D01*
Y243347D01*
X604370D01*
X604039Y243281D01*
X603709Y243687D01*
X603811Y243840D01*
X603979Y244685D01*
X603811Y245530D01*
X603333Y246246D01*
X602822Y246587D01*
Y247844D01*
X602912Y247862D01*
X603628Y248340D01*
X604107Y249057D01*
X604275Y249902D01*
X604107Y250746D01*
X603729Y251311D01*
X603938Y251811D01*
X604331D01*
X604331Y251811D01*
X604331Y251811D01*
X606335D01*
X606496Y251378D01*
X606496D01*
Y247835D01*
X612008D01*
Y249641D01*
X612470Y249832D01*
X612847Y249455D01*
X612847Y249455D01*
X613368Y249107D01*
X613982Y248985D01*
X613982Y248985D01*
X615945D01*
Y247835D01*
X617396D01*
Y245697D01*
X617350Y245628D01*
X617182Y244783D01*
X617350Y243939D01*
X617829Y243222D01*
X618545Y242744D01*
X619390Y242576D01*
X619692Y242636D01*
X623105Y239223D01*
Y230233D01*
X622146Y229274D01*
X621646Y229481D01*
Y230559D01*
X618480D01*
X615315D01*
Y228780D01*
X615724D01*
Y225449D01*
X617365D01*
Y220640D01*
X617121Y220477D01*
X616947Y220217D01*
X616886Y219909D01*
Y218122D01*
X616508Y217744D01*
Y216170D01*
X616469Y215972D01*
Y215488D01*
X618476D01*
X620484D01*
Y215972D01*
X620445Y216170D01*
Y217744D01*
X620067Y218122D01*
Y219909D01*
X620006Y220217D01*
X619832Y220477D01*
X619588Y220640D01*
Y225449D01*
X621236D01*
Y225947D01*
X621318Y226014D01*
X622035D01*
X622535Y226114D01*
X622958Y226396D01*
X625332Y228770D01*
X625615Y229194D01*
X625714Y229693D01*
Y239764D01*
X625615Y240263D01*
X625332Y240686D01*
X621537Y244481D01*
X621597Y244783D01*
X621429Y245628D01*
X620951Y246345D01*
X620235Y246823D01*
X620005Y246869D01*
Y247835D01*
X621457D01*
X621457Y247835D01*
Y247835D01*
X621884Y247646D01*
X622024Y247538D01*
X622651Y247279D01*
X622823Y247256D01*
Y249787D01*
Y252318D01*
X622651Y252296D01*
X622366Y252178D01*
X621866Y252512D01*
Y252847D01*
X618701D01*
Y253847D01*
X621866D01*
Y255528D01*
X621457D01*
Y258858D01*
X620110D01*
Y261811D01*
X620094Y261889D01*
Y262614D01*
X620472Y262992D01*
Y264567D01*
X620512Y264764D01*
Y265248D01*
X616496D01*
Y264764D01*
X616535Y264567D01*
Y262992D01*
X616914Y262614D01*
Y261889D01*
X616898Y261811D01*
Y258858D01*
X615945D01*
Y258788D01*
X615551Y258495D01*
X614937Y258373D01*
X614416Y258025D01*
X612470Y256079D01*
X612008Y256271D01*
Y258858D01*
X610858D01*
Y261910D01*
X610842Y261987D01*
Y262515D01*
X611221Y262894D01*
Y264468D01*
X611260Y264665D01*
Y265150D01*
X609252D01*
Y265650D01*
X608752D01*
Y267854D01*
X608465D01*
X607998Y267761D01*
X607602Y267497D01*
X607337Y267101D01*
X607259Y266707D01*
X606872Y266435D01*
X606813Y266403D01*
X606644Y266516D01*
X605799Y266684D01*
X604954Y266516D01*
X604238Y266038D01*
X603759Y265321D01*
X603591Y264476D01*
X603759Y263632D01*
X604030Y263227D01*
X604154Y262833D01*
X603902Y262586D01*
X603459Y262290D01*
X603262Y261995D01*
X602762Y262146D01*
Y277837D01*
X602981Y278165D01*
X602984Y278182D01*
X605168Y280785D01*
X600433Y284758D01*
D02*
G37*
G36*
X585736Y248594D02*
Y246563D01*
X587767D01*
X587745Y246735D01*
X587485Y247361D01*
X587073Y247899D01*
X586535Y248312D01*
X585908Y248571D01*
X585736Y248594D01*
D02*
G37*
G36*
X584736D02*
X584564Y248571D01*
X583938Y248312D01*
X583400Y247899D01*
X582987Y247361D01*
X582728Y246735D01*
X582705Y246563D01*
X584736D01*
Y248594D01*
D02*
G37*
G36*
X587767Y245563D02*
X585736D01*
Y243532D01*
X585908Y243554D01*
X586535Y243814D01*
X587073Y244227D01*
X587485Y244764D01*
X587745Y245391D01*
X587767Y245563D01*
D02*
G37*
G36*
X584736D02*
X582705D01*
X582728Y245391D01*
X582987Y244764D01*
X583400Y244227D01*
X583938Y243814D01*
X584564Y243554D01*
X584736Y243532D01*
Y245563D01*
D02*
G37*
G36*
X604815Y240642D02*
X603110D01*
Y240197D01*
X603206Y239715D01*
X603479Y239306D01*
X603888Y239032D01*
X604370Y238936D01*
X604815D01*
Y240642D01*
D02*
G37*
G36*
X488091Y243898D02*
X479035D01*
Y238779D01*
X488091D01*
Y243898D01*
D02*
G37*
G36*
X617232Y240775D02*
Y238744D01*
X619264D01*
X619241Y238916D01*
X618981Y239543D01*
X618569Y240080D01*
X618031Y240493D01*
X617404Y240753D01*
X617232Y240775D01*
D02*
G37*
G36*
X523417Y238476D02*
X521386D01*
X521409Y238304D01*
X521668Y237678D01*
X522081Y237140D01*
X522619Y236727D01*
X523245Y236468D01*
X523417Y236445D01*
Y238476D01*
D02*
G37*
G36*
X537544Y237732D02*
Y235700D01*
X539576D01*
X539553Y235873D01*
X539293Y236499D01*
X538881Y237037D01*
X538343Y237449D01*
X537716Y237709D01*
X537544Y237732D01*
D02*
G37*
G36*
X536544D02*
X536372Y237709D01*
X535746Y237449D01*
X535208Y237037D01*
X534795Y236499D01*
X534536Y235873D01*
X534513Y235700D01*
X536544D01*
Y237732D01*
D02*
G37*
G36*
X539576Y234700D02*
X537544D01*
Y232669D01*
X537716Y232692D01*
X538343Y232951D01*
X538881Y233364D01*
X539293Y233902D01*
X539553Y234528D01*
X539576Y234700D01*
D02*
G37*
G36*
X536544D02*
X534513D01*
X534536Y234528D01*
X534795Y233902D01*
X535208Y233364D01*
X535746Y232951D01*
X536372Y232692D01*
X536544Y232669D01*
Y234700D01*
D02*
G37*
G36*
X488091Y232874D02*
X479035D01*
Y227756D01*
X488091D01*
Y232874D01*
D02*
G37*
G36*
X560059Y237480D02*
X551264D01*
X542469D01*
Y229185D01*
X550138D01*
X550308Y228685D01*
X549935Y228399D01*
X549523Y227861D01*
X549263Y227235D01*
X549240Y227063D01*
X554303D01*
X554280Y227235D01*
X554021Y227861D01*
X553608Y228399D01*
X553236Y228685D01*
X553406Y229185D01*
X560059D01*
Y237480D01*
D02*
G37*
G36*
X554303Y226063D02*
X552272D01*
Y224032D01*
X552444Y224055D01*
X553070Y224314D01*
X553608Y224727D01*
X554021Y225265D01*
X554280Y225891D01*
X554303Y226063D01*
D02*
G37*
G36*
X551272D02*
X549240D01*
X549263Y225891D01*
X549523Y225265D01*
X549935Y224727D01*
X550473Y224314D01*
X551099Y224055D01*
X551272Y224032D01*
Y226063D01*
D02*
G37*
G36*
X604177Y221504D02*
Y219472D01*
X606208D01*
X606186Y219645D01*
X605926Y220271D01*
X605513Y220809D01*
X604976Y221221D01*
X604349Y221481D01*
X604177Y221504D01*
D02*
G37*
G36*
X603177D02*
X603005Y221481D01*
X602379Y221221D01*
X601841Y220809D01*
X601428Y220271D01*
X601169Y219645D01*
X601146Y219472D01*
X603177D01*
Y221504D01*
D02*
G37*
G36*
X522547Y219657D02*
Y217626D01*
X524578D01*
X524556Y217798D01*
X524296Y218425D01*
X523884Y218962D01*
X523346Y219375D01*
X522719Y219635D01*
X522547Y219657D01*
D02*
G37*
G36*
X521547D02*
X521375Y219635D01*
X520749Y219375D01*
X520211Y218962D01*
X519798Y218425D01*
X519539Y217798D01*
X519516Y217626D01*
X521547D01*
Y219657D01*
D02*
G37*
G36*
X606208Y218472D02*
X604177D01*
Y216441D01*
X604349Y216464D01*
X604976Y216723D01*
X605513Y217136D01*
X605926Y217674D01*
X606186Y218300D01*
X606208Y218472D01*
D02*
G37*
G36*
X603177D02*
X601146D01*
X601169Y218300D01*
X601428Y217674D01*
X601841Y217136D01*
X602379Y216723D01*
X603005Y216464D01*
X603177Y216441D01*
Y218472D01*
D02*
G37*
G36*
X485925Y221797D02*
X481201D01*
X480430Y221696D01*
X479712Y221398D01*
X479095Y220925D01*
X478622Y220308D01*
X478324Y219590D01*
X478223Y218819D01*
X478324Y218048D01*
X478622Y217330D01*
X479095Y216713D01*
X479712Y216240D01*
X480430Y215942D01*
X481201Y215841D01*
X485925D01*
X486696Y215942D01*
X487414Y216240D01*
X488031Y216713D01*
X488504Y217330D01*
X488802Y218048D01*
X488903Y218819D01*
X488802Y219590D01*
X488504Y220308D01*
X488031Y220925D01*
X487414Y221398D01*
X486696Y221696D01*
X485925Y221797D01*
D02*
G37*
G36*
X524578Y216626D02*
X522547D01*
Y214595D01*
X522719Y214617D01*
X523346Y214877D01*
X523884Y215290D01*
X524296Y215827D01*
X524556Y216454D01*
X524578Y216626D01*
D02*
G37*
G36*
X521547D02*
X519516D01*
X519539Y216454D01*
X519798Y215827D01*
X520211Y215290D01*
X520749Y214877D01*
X521375Y214617D01*
X521547Y214595D01*
Y216626D01*
D02*
G37*
G36*
X612228Y214595D02*
X610720D01*
Y212890D01*
X611008D01*
X611475Y212983D01*
X611871Y213247D01*
X612135Y213643D01*
X612228Y214110D01*
Y214595D01*
D02*
G37*
G36*
X609721D02*
X608213D01*
Y214110D01*
X608306Y213643D01*
X608570Y213247D01*
X608966Y212983D01*
X609433Y212890D01*
X609721D01*
Y214595D01*
D02*
G37*
G36*
X620484Y214488D02*
X618976D01*
Y212784D01*
X619264D01*
X619731Y212877D01*
X620127Y213141D01*
X620391Y213537D01*
X620484Y214004D01*
Y214488D01*
D02*
G37*
G36*
X617976D02*
X616469D01*
Y214004D01*
X616562Y213537D01*
X616826Y213141D01*
X617222Y212877D01*
X617689Y212784D01*
X617976D01*
Y214488D01*
D02*
G37*
G36*
X532390Y210700D02*
Y208669D01*
X534421D01*
X534398Y208841D01*
X534139Y209468D01*
X533726Y210006D01*
X533188Y210418D01*
X532562Y210678D01*
X532390Y210700D01*
D02*
G37*
G36*
X531390D02*
X531218Y210678D01*
X530591Y210418D01*
X530053Y210006D01*
X529641Y209468D01*
X529381Y208841D01*
X529359Y208669D01*
X531390D01*
Y210700D01*
D02*
G37*
G36*
X534421Y207669D02*
X532390D01*
Y205638D01*
X532562Y205661D01*
X533188Y205920D01*
X533726Y206333D01*
X534139Y206871D01*
X534398Y207497D01*
X534421Y207669D01*
D02*
G37*
G36*
X531390D02*
X529359D01*
X529381Y207497D01*
X529641Y206871D01*
X530053Y206333D01*
X530591Y205920D01*
X531218Y205661D01*
X531390Y205638D01*
Y207669D01*
D02*
G37*
G36*
X543241Y206672D02*
Y204641D01*
X545272D01*
X545250Y204813D01*
X544990Y205439D01*
X544577Y205977D01*
X544039Y206390D01*
X543413Y206649D01*
X543241Y206672D01*
D02*
G37*
G36*
X542241D02*
X542069Y206649D01*
X541442Y206390D01*
X540905Y205977D01*
X540492Y205439D01*
X540232Y204813D01*
X540210Y204641D01*
X542241D01*
Y206672D01*
D02*
G37*
G36*
X545272Y203641D02*
X543241D01*
Y201610D01*
X543413Y201632D01*
X544039Y201892D01*
X544577Y202305D01*
X544990Y202842D01*
X545250Y203469D01*
X545272Y203641D01*
D02*
G37*
G36*
X542241D02*
X540210D01*
X540232Y203469D01*
X540492Y202842D01*
X540905Y202305D01*
X541442Y201892D01*
X542069Y201632D01*
X542241Y201610D01*
Y203641D01*
D02*
G37*
G36*
X494405Y204478D02*
X492660Y202732D01*
X494405Y200987D01*
X496151Y202732D01*
X494405Y204478D01*
D02*
G37*
G36*
X491953Y202025D02*
X490207Y200280D01*
X491953Y198534D01*
X493698Y200280D01*
X491953Y202025D01*
D02*
G37*
G36*
X528346Y224649D02*
X527502Y224481D01*
X526785Y224002D01*
X526307Y223286D01*
X526139Y222441D01*
X526307Y221596D01*
X526785Y220880D01*
X527502Y220401D01*
X528346Y220233D01*
X529191Y220401D01*
X529908Y220880D01*
X530208Y221329D01*
X535809D01*
X558219Y198918D01*
X558580Y198677D01*
X559006Y198593D01*
X566582D01*
X566897Y198382D01*
X567323Y198298D01*
X567505Y198334D01*
X567632Y198144D01*
X568348Y197665D01*
X569193Y197497D01*
X570038Y197665D01*
X570754Y198144D01*
X571233Y198860D01*
X571401Y199705D01*
X571233Y200550D01*
X570754Y201266D01*
X570038Y201744D01*
X569193Y201912D01*
X568348Y201744D01*
X567632Y201266D01*
X567296Y200763D01*
X567028Y200817D01*
X567028Y200817D01*
X559466D01*
X537056Y223227D01*
X536695Y223468D01*
X536270Y223553D01*
X536270Y223553D01*
X530208D01*
X529908Y224002D01*
X529191Y224481D01*
X528346Y224649D01*
D02*
G37*
G36*
X512106Y202310D02*
X510719Y202127D01*
X509426Y201591D01*
X508316Y200740D01*
X507464Y199629D01*
X506928Y198336D01*
X506745Y196949D01*
X506928Y195561D01*
X507464Y194268D01*
X508316Y193158D01*
X509426Y192306D01*
X510719Y191771D01*
X512106Y191588D01*
X513494Y191771D01*
X514787Y192306D01*
X515897Y193158D01*
X516749Y194268D01*
X517284Y195561D01*
X517467Y196949D01*
X517284Y198336D01*
X516749Y199629D01*
X515897Y200740D01*
X514787Y201591D01*
X513494Y202127D01*
X512106Y202310D01*
D02*
G37*
G36*
X528488Y185602D02*
X528316Y185579D01*
X527690Y185320D01*
X527152Y184907D01*
X526739Y184369D01*
X526480Y183743D01*
X526457Y183571D01*
X528488D01*
Y185602D01*
D02*
G37*
G36*
Y182571D02*
X526457D01*
X526480Y182399D01*
X526739Y181772D01*
X527152Y181235D01*
X527690Y180822D01*
X528316Y180562D01*
X528488Y180540D01*
Y182571D01*
D02*
G37*
G36*
X525700Y178494D02*
Y176462D01*
X527731D01*
X527709Y176635D01*
X527449Y177261D01*
X527036Y177799D01*
X526499Y178211D01*
X525872Y178471D01*
X525700Y178494D01*
D02*
G37*
G36*
X524700D02*
X524528Y178471D01*
X523902Y178211D01*
X523364Y177799D01*
X522951Y177261D01*
X522691Y176635D01*
X522669Y176462D01*
X524700D01*
Y178494D01*
D02*
G37*
G36*
X527731Y175462D02*
X525700D01*
Y173431D01*
X525872Y173454D01*
X526499Y173713D01*
X527036Y174126D01*
X527449Y174664D01*
X527709Y175290D01*
X527731Y175462D01*
D02*
G37*
G36*
X524700D02*
X522669D01*
X522691Y175290D01*
X522951Y174664D01*
X523364Y174126D01*
X523902Y173713D01*
X524528Y173454D01*
X524700Y173431D01*
Y175462D01*
D02*
G37*
G36*
X575222Y173843D02*
Y171811D01*
X577253D01*
X577231Y171984D01*
X576971Y172610D01*
X576559Y173148D01*
X576021Y173560D01*
X575394Y173820D01*
X575222Y173843D01*
D02*
G37*
G36*
X574222D02*
X574050Y173820D01*
X573424Y173560D01*
X572886Y173148D01*
X572473Y172610D01*
X572214Y171984D01*
X572191Y171811D01*
X574222D01*
Y173843D01*
D02*
G37*
G36*
X525405Y172293D02*
Y170262D01*
X527436D01*
X527413Y170434D01*
X527154Y171060D01*
X526741Y171598D01*
X526203Y172011D01*
X525577Y172270D01*
X525405Y172293D01*
D02*
G37*
G36*
X524405D02*
X524233Y172270D01*
X523606Y172011D01*
X523068Y171598D01*
X522656Y171060D01*
X522396Y170434D01*
X522374Y170262D01*
X524405D01*
Y172293D01*
D02*
G37*
G36*
X577253Y170811D02*
X575222D01*
Y168780D01*
X575394Y168803D01*
X576021Y169062D01*
X576559Y169475D01*
X576971Y170013D01*
X577231Y170639D01*
X577253Y170811D01*
D02*
G37*
G36*
X574222D02*
X572191D01*
X572214Y170639D01*
X572473Y170013D01*
X572886Y169475D01*
X573424Y169062D01*
X574050Y168803D01*
X574222Y168780D01*
Y170811D01*
D02*
G37*
G36*
X527436Y169262D02*
X525405D01*
Y167230D01*
X525577Y167253D01*
X526203Y167513D01*
X526741Y167925D01*
X527154Y168463D01*
X527413Y169089D01*
X527436Y169262D01*
D02*
G37*
G36*
X524405D02*
X522374D01*
X522396Y169089D01*
X522656Y168463D01*
X523068Y167925D01*
X523606Y167513D01*
X524233Y167253D01*
X524405Y167230D01*
Y169262D01*
D02*
G37*
G36*
X536382Y169067D02*
X536209Y169044D01*
X535583Y168784D01*
X535045Y168372D01*
X534633Y167834D01*
X534373Y167208D01*
X534350Y167035D01*
X536382D01*
Y169067D01*
D02*
G37*
G36*
Y166035D02*
X534350D01*
X534373Y165863D01*
X534633Y165237D01*
X535045Y164699D01*
X535583Y164286D01*
X536209Y164027D01*
X536382Y164004D01*
Y166035D01*
D02*
G37*
%LPD*%
D14*
X549647Y250590D02*
X565974D01*
X549611Y250626D02*
X549647Y250590D01*
X565974D02*
X573228Y243336D01*
X533111Y253897D02*
X536382Y250626D01*
X549611D01*
X517472Y248612D02*
Y249319D01*
Y248612D02*
X522729Y243354D01*
X515414Y251377D02*
Y251609D01*
Y251377D02*
X517472Y249319D01*
X500098Y223622D02*
X501043D01*
X500098Y248031D02*
X501043D01*
X532283Y255914D02*
X533111Y255087D01*
Y253897D02*
Y255087D01*
X532283Y255914D02*
Y256496D01*
X531019Y248658D02*
X534547Y245130D01*
X531019Y248658D02*
Y248819D01*
X524114Y245965D02*
Y247047D01*
Y245965D02*
X525029Y245050D01*
X573228Y210564D02*
Y243336D01*
X563526Y204849D02*
X567513D01*
X573228Y210564D01*
X543017Y246866D02*
X559994D01*
X570653Y215342D02*
Y236207D01*
X559994Y246866D02*
X570653Y236207D01*
X618275Y234594D02*
X618480Y234799D01*
X609646Y235413D02*
Y241831D01*
X609031Y234799D02*
X609646Y235413D01*
X609031Y227319D02*
X609138D01*
X609917Y219688D02*
Y226539D01*
X609138Y227319D02*
X609917Y226539D01*
X525029Y244945D02*
Y245050D01*
X527902Y234843D02*
Y240070D01*
X522729Y243354D02*
X524617D01*
X527902Y240070D01*
X534547Y245130D02*
X541281D01*
X543017Y246866D01*
X525029Y244945D02*
X526390D01*
X576066Y193388D02*
Y196070D01*
X575394Y192717D02*
X576066Y193388D01*
Y196070D02*
X581336Y201341D01*
X578150Y218110D02*
X590531Y205729D01*
X578150Y218110D02*
Y223622D01*
X551772Y226563D02*
Y237472D01*
X551264Y237980D02*
X551772Y237472D01*
X529886Y235665D02*
Y241449D01*
X548020Y217531D02*
X566051D01*
X529886Y235665D02*
X548020Y217531D01*
X527902Y234843D02*
X551896Y210849D01*
X561420D01*
X526390Y244945D02*
X529886Y241449D01*
X532972Y185531D02*
X540158Y192717D01*
X537231Y185889D02*
X541302Y189961D01*
X537231Y183670D02*
Y185889D01*
X559006Y199705D02*
X567028D01*
X567323Y199409D01*
X528346Y222441D02*
X536270D01*
X559006Y199705D01*
X569602Y212595D02*
X570367Y213360D01*
Y215056D02*
X570653Y215342D01*
X570367Y213360D02*
Y215056D01*
X539740Y167090D02*
Y171283D01*
X546842Y164181D02*
X560165D01*
X532972Y178051D02*
Y185531D01*
X544803Y166220D02*
X546842Y164181D01*
X532972Y178051D02*
X539740Y171283D01*
Y167090D02*
X540610Y166220D01*
X544803D01*
X590531Y204901D02*
Y205729D01*
X575591Y189961D02*
X590531Y204901D01*
X541302Y189961D02*
X575591D01*
X540158Y192717D02*
X575394D01*
X618480Y227319D02*
X621318D01*
X618476Y227315D02*
X618480Y227319D01*
X618476Y220303D02*
Y227315D01*
D15*
X597235Y228682D02*
Y230916D01*
X593898Y225345D02*
X597235Y228682D01*
X589615Y229955D02*
X590314Y230654D01*
Y232104D01*
X594040Y235829D02*
X594983D01*
X590314Y232104D02*
X594040Y235829D01*
X589615Y229263D02*
Y229955D01*
X594983Y235829D02*
X595472Y236319D01*
X597342Y223425D02*
X597832Y223915D01*
Y225814D01*
X601582Y229564D01*
X597235Y231123D02*
X597364Y231284D01*
X597235Y230916D02*
X597235Y231123D01*
X597364Y231284D02*
X599167Y233551D01*
X601582Y229564D02*
Y230184D01*
X601772Y244685D02*
X601919Y244833D01*
Y249754D01*
X602067Y249902D01*
X559933Y253256D02*
X560039D01*
X564272D02*
Y253594D01*
X557874Y255315D02*
X559933Y253256D01*
X500211Y229050D02*
X506383D01*
X506496Y229163D01*
X566043Y260039D02*
X576995Y249088D01*
X564764Y272390D02*
Y272736D01*
Y272390D02*
X566043Y271111D01*
Y260039D02*
Y271111D01*
X567421Y260332D02*
X580539Y247215D01*
X567421Y260332D02*
Y269355D01*
X568996Y270930D01*
Y271260D01*
X580539Y239048D02*
Y247215D01*
X576995Y240525D02*
Y249088D01*
X563091Y254775D02*
X564272Y253594D01*
X563091Y254775D02*
Y265317D01*
X561614Y266793D02*
X563091Y265317D01*
X561614Y266793D02*
Y266831D01*
X557874Y255315D02*
Y264764D01*
X500098Y228937D02*
X500211Y229050D01*
X506348Y240896D02*
X506496Y241043D01*
X500098Y240748D02*
X500246Y240896D01*
X506348D01*
D16*
X609252Y241142D02*
D03*
X605315D02*
D03*
D26*
X609252Y257087D02*
D03*
Y249606D02*
D03*
X618701D02*
D03*
Y253346D02*
D03*
Y257087D02*
D03*
D27*
X618504Y261811D02*
D03*
Y265748D02*
D03*
X609252Y261713D02*
D03*
Y265650D02*
D03*
X610220Y215094D02*
D03*
Y219032D02*
D03*
X618476Y214988D02*
D03*
Y218925D02*
D03*
D75*
X575531Y266004D02*
X595374Y246162D01*
X597835Y239469D02*
Y242815D01*
X595374Y245276D02*
Y246162D01*
Y245276D02*
X597835Y242815D01*
Y239469D02*
X604732Y232571D01*
X607850Y227614D02*
Y227614D01*
X604732Y230733D02*
X607850Y227614D01*
X604732Y230733D02*
Y232571D01*
X607850Y227614D02*
X608146Y227319D01*
X609031D01*
X608686Y261910D02*
X609252D01*
X605799Y264476D02*
X606119D01*
X609252Y257087D02*
Y261910D01*
X606119Y264476D02*
X608686Y261910D01*
X500138Y245118D02*
X504468D01*
X500059Y245039D02*
X500138Y245118D01*
X504468D02*
X541240Y281890D01*
X573819D01*
X508760Y207563D02*
Y219193D01*
X509053Y219294D02*
X509154Y219193D01*
X500138Y226535D02*
X504075D01*
X500059Y226614D02*
X500138Y226535D01*
X504075D02*
X509053Y221558D01*
Y219294D02*
Y221558D01*
X555016Y301969D02*
X574825D01*
X576699Y300095D01*
X495079Y229230D02*
X497694Y226614D01*
X500059D01*
X495079Y229230D02*
Y242424D01*
X497694Y245039D01*
X500059D01*
X612078Y253417D02*
X615551Y256890D01*
X611156Y253417D02*
X612078D01*
X601156Y279121D02*
Y280811D01*
Y278438D02*
X601498Y278780D01*
X601156Y254570D02*
X602309Y253417D01*
X601156Y279121D02*
X601498Y278780D01*
X602309Y253417D02*
X604331D01*
X601156Y254570D02*
Y278438D01*
X604331Y253417D02*
X611156D01*
X604331D02*
X605020Y254106D01*
Y260728D01*
X615551Y256890D02*
X618907D01*
X618504Y257283D02*
X618701Y257087D01*
X618504Y257283D02*
Y261811D01*
X616732Y250591D02*
X617126Y250197D01*
X613982Y250591D02*
X616732D01*
X611156Y253417D02*
X613982Y250591D01*
X617520Y249803D02*
X618504D01*
X618701Y249606D01*
X618907Y256890D02*
X619301Y257283D01*
X575531Y266004D02*
Y280177D01*
X573819Y281890D02*
X575531Y280177D01*
X497941Y196744D02*
X508760Y207563D01*
X551264Y298217D02*
X555016Y301969D01*
X576699Y300095D02*
X578175D01*
D76*
X495768Y247638D02*
D03*
D77*
D03*
Y224016D02*
D03*
D78*
X498622Y218819D02*
D03*
Y252835D02*
D03*
D79*
X483563Y218819D02*
D03*
Y252835D02*
D03*
D80*
X511614Y275886D02*
D03*
D81*
X591043Y275492D02*
D03*
D82*
X512106Y196949D02*
D03*
D83*
X497492Y275704D02*
D03*
X501027Y279240D02*
D03*
X504563Y282775D02*
D03*
X508098Y286311D02*
D03*
X511634Y289847D02*
D03*
X512083Y182602D02*
D03*
X508547Y186138D02*
D03*
X505012Y189673D02*
D03*
X501476Y193209D02*
D03*
X497941Y196744D02*
D03*
D84*
X515169Y293382D02*
D03*
D85*
X494405Y200280D02*
D03*
D86*
X623323Y249787D02*
D03*
X524905Y169762D02*
D03*
X525200Y175962D02*
D03*
X528988Y183071D02*
D03*
X593898Y225345D02*
D03*
X597342Y223425D02*
D03*
X599167Y233551D02*
D03*
X595472Y236319D02*
D03*
X601582Y230184D02*
D03*
X593996Y231004D02*
D03*
X601772Y244685D02*
D03*
X602067Y249902D02*
D03*
X616732Y238244D02*
D03*
X605799Y264476D02*
D03*
X589615Y229263D02*
D03*
X560039Y253256D02*
D03*
X564272D02*
D03*
X585236Y246063D02*
D03*
X567815Y244980D02*
D03*
X541634Y258169D02*
D03*
X515414Y251609D02*
D03*
X527052Y263062D02*
D03*
X506496Y229163D02*
D03*
X532283Y256496D02*
D03*
X531019Y248819D02*
D03*
X612613Y239361D02*
D03*
X572405Y258828D02*
D03*
X557874Y264764D02*
D03*
X561614Y266831D02*
D03*
X564764Y272736D02*
D03*
X580539Y239048D02*
D03*
X576995Y240525D02*
D03*
X568996Y271260D02*
D03*
X587419Y285358D02*
D03*
X564160Y297913D02*
D03*
X586139Y300810D02*
D03*
X528875Y298919D02*
D03*
X506496Y241043D02*
D03*
X509154Y219193D02*
D03*
X619390Y244783D02*
D03*
X605020Y260728D02*
D03*
X595866Y264764D02*
D03*
X524114Y247047D02*
D03*
X536882Y166535D02*
D03*
X563526Y204849D02*
D03*
X551772Y226563D02*
D03*
X537044Y235200D02*
D03*
X603677Y218972D02*
D03*
X522047Y217126D02*
D03*
X523917Y238976D02*
D03*
X537231Y183670D02*
D03*
X569193Y199705D02*
D03*
X531890Y208169D02*
D03*
X528346Y222441D02*
D03*
X566051Y217531D02*
D03*
X578150Y223622D02*
D03*
X560165Y164181D02*
D03*
X581336Y201341D02*
D03*
X574722Y171311D02*
D03*
X542741Y204141D02*
D03*
X561420Y210849D02*
D03*
X569602Y212595D02*
D03*
D87*
X500098Y223622D02*
D03*
Y248031D02*
D03*
Y226575D02*
D03*
Y245079D02*
D03*
D88*
Y228937D02*
D03*
Y242717D02*
D03*
Y230906D02*
D03*
Y232874D02*
D03*
Y234842D02*
D03*
Y236811D02*
D03*
Y238779D02*
D03*
Y240748D02*
D03*
D89*
X483563Y230315D02*
D03*
Y241339D02*
D03*
D90*
X551264Y237980D02*
D03*
D91*
Y177744D02*
D03*
Y298217D02*
D03*
D92*
X601156Y280811D02*
D03*
X578175Y300095D02*
D03*
D93*
X618480Y234799D02*
D03*
Y231059D02*
D03*
Y227319D02*
D03*
X609031D02*
D03*
Y234799D02*
D03*
D94*
X615794Y234594D02*
X618275D01*
X610320Y227721D02*
Y229119D01*
X615794Y234594D01*
X618701Y245532D02*
Y249606D01*
X619390Y244783D02*
Y244844D01*
X624409Y229693D02*
Y239764D01*
X619390Y244783D02*
X624409Y239764D01*
X618701Y245532D02*
X619390Y244844D01*
X617126Y250197D02*
X617520Y249803D01*
X601156Y280811D02*
X601156D01*
X622035Y227319D02*
X624409Y229693D01*
X621318Y227319D02*
X622035D01*
M02*
