%TF.GenerationSoftware,Altium Limited,Altium Designer,22.10.1 (41)*%
G04 Layer_Color=32768*
%FSLAX45Y45*%
%MOMM*%
%TF.SameCoordinates,7C4CEE53-0205-4E42-98F0-91463D168F18*%
%TF.FilePolarity,Positive*%
%TF.FileFunction,Other,Mechanical_15*%
%TF.Part,Single*%
G01*
G75*
%TA.AperFunction,NonConductor*%
%ADD32C,0.20000*%
%ADD40C,0.10000*%
%ADD42C,0.30000*%
%ADD43C,0.05000*%
G36*
X178557Y1108179D02*
Y600179D01*
X38857Y854179D01*
X178557Y1108179D01*
D02*
G37*
D32*
X633407Y1194184D02*
G03*
X633407Y1194184I-10008J0D01*
G01*
Y514175D02*
G03*
X633407Y514175I-10008J0D01*
G01*
D40*
X1793500Y1383280D02*
Y1573280D01*
X2143500Y1383280D02*
Y1573280D01*
X1793500D02*
X2143500D01*
X1793500Y1383280D02*
X2143500D01*
X1918500Y1478280D02*
X2018500D01*
X1968500Y1428280D02*
Y1528280D01*
X1848100Y157740D02*
X2038100D01*
X1848100Y507740D02*
X2038100D01*
X1848100Y157740D02*
Y507740D01*
X2038100Y157740D02*
Y507740D01*
X1943100Y282740D02*
Y382740D01*
X1893100Y332740D02*
X1993100D01*
X1550200Y566420D02*
X1650200D01*
X1600200Y516420D02*
Y616420D01*
D42*
X2394995Y607492D02*
G03*
X2394995Y607492I-15011J0D01*
G01*
D43*
X1760200Y294420D02*
Y838420D01*
X1440200Y294420D02*
Y838420D01*
X1760200D01*
X1440200Y294420D02*
X1760200D01*
%TF.MD5,a7ca416cdc20c4a63eccbdc29f85cec0*%
M02*
