%TF.GenerationSoftware,Altium Limited,Altium Designer,22.10.1 (41)*%
G04 Layer_Color=8421504*
%FSLAX45Y45*%
%MOMM*%
%TF.SameCoordinates,7C4CEE53-0205-4E42-98F0-91463D168F18*%
%TF.FilePolarity,Positive*%
%TF.FileFunction,Paste,Top*%
%TF.Part,Single*%
G01*
G75*
%TA.AperFunction,SMDPad,CuDef*%
%ADD10R,1.00000X0.30000*%
%TA.AperFunction,ConnectorPad*%
%ADD12R,0.80000X0.30000*%
%TA.AperFunction,SMDPad,CuDef*%
%ADD13R,1.20000X1.40000*%
%ADD14R,1.40000X1.20000*%
%ADD15R,2.03200X1.14300*%
%ADD16R,2.10000X1.27000*%
G36*
X366400Y1346109D02*
X369385Y1345885D01*
X372354Y1345512D01*
X375300Y1344994D01*
X378216Y1344328D01*
X381097Y1343518D01*
X383931Y1342563D01*
X386718Y1341471D01*
X389443Y1340241D01*
X392105Y1338875D01*
X394696Y1337379D01*
X397210Y1335756D01*
X399639Y1334011D01*
X401978Y1332146D01*
X404221Y1330165D01*
X406362Y1328077D01*
X408396Y1325883D01*
X410319Y1323591D01*
X412128Y1321206D01*
X413812Y1318735D01*
X415371Y1316182D01*
X416804Y1313556D01*
X418102Y1310858D01*
X419263Y1308103D01*
X420286Y1305291D01*
X421168Y1302433D01*
X421907Y1299533D01*
X422499Y1296601D01*
X422946Y1293642D01*
X423243Y1290665D01*
X423393Y1287678D01*
Y1284686D01*
X423243Y1281699D01*
X422946Y1278722D01*
X422499Y1275763D01*
X421907Y1272832D01*
X421168Y1269931D01*
X420286Y1267074D01*
X419263Y1264262D01*
X418102Y1261506D01*
X416804Y1258809D01*
X415371Y1256182D01*
X413812Y1253630D01*
X412128Y1251158D01*
X410319Y1248773D01*
X408396Y1246482D01*
X406362Y1244288D01*
X404221Y1242200D01*
X401978Y1240218D01*
X399639Y1238354D01*
X397210Y1236609D01*
X394696Y1234986D01*
X392105Y1233490D01*
X389443Y1232124D01*
X386718Y1230894D01*
X383931Y1229802D01*
X381097Y1228847D01*
X378216Y1228037D01*
X375300Y1227371D01*
X372354Y1226853D01*
X369385Y1226480D01*
X366400Y1226256D01*
X363410Y1226182D01*
X243411D01*
X240421Y1226256D01*
X237437Y1226480D01*
X234467Y1226853D01*
X231521Y1227371D01*
X228605Y1228037D01*
X225725Y1228847D01*
X222890Y1229802D01*
X220104Y1230894D01*
X217378Y1232124D01*
X214716Y1233490D01*
X212126Y1234986D01*
X209611Y1236609D01*
X207183Y1238354D01*
X204843Y1240218D01*
X202601Y1242200D01*
X200459Y1244288D01*
X198425Y1246482D01*
X196502Y1248773D01*
X194694Y1251158D01*
X193010Y1253630D01*
X191450Y1256182D01*
X190017Y1258809D01*
X188719Y1261506D01*
X187559Y1264262D01*
X186535Y1267074D01*
X185654Y1269931D01*
X184915Y1272832D01*
X184323Y1275763D01*
X183876Y1278722D01*
X183578Y1281699D01*
X183429Y1284686D01*
Y1287678D01*
X183578Y1290665D01*
X183876Y1293642D01*
X184323Y1296601D01*
X184915Y1299533D01*
X185654Y1302433D01*
X186535Y1305291D01*
X187559Y1308103D01*
X188719Y1310858D01*
X190017Y1313556D01*
X191450Y1316182D01*
X193010Y1318735D01*
X194694Y1321206D01*
X196502Y1323591D01*
X198425Y1325883D01*
X200459Y1328077D01*
X202601Y1330165D01*
X204843Y1332146D01*
X207183Y1334011D01*
X209611Y1335756D01*
X212126Y1337379D01*
X214716Y1338875D01*
X217378Y1340241D01*
X220104Y1341471D01*
X222890Y1342563D01*
X225725Y1343518D01*
X228605Y1344328D01*
X231521Y1344994D01*
X234467Y1345512D01*
X237437Y1345885D01*
X240421Y1346109D01*
X243411Y1346182D01*
X363410D01*
X366400Y1346109D01*
D02*
G37*
G36*
X2452247Y1302448D02*
X2454485Y1302281D01*
X2456712Y1302001D01*
X2458922Y1301613D01*
X2461109Y1301112D01*
X2463268Y1300505D01*
X2465396Y1299791D01*
X2467484Y1298971D01*
X2469529Y1298046D01*
X2471525Y1297023D01*
X2473469Y1295903D01*
X2475353Y1294683D01*
X2477177Y1293375D01*
X2478930Y1291976D01*
X2480614Y1290490D01*
X2482219Y1288925D01*
X2483745Y1287279D01*
X2485188Y1285560D01*
X2486542Y1283772D01*
X2487807Y1281917D01*
X2488975Y1280005D01*
X2490050Y1278034D01*
X2491022Y1276012D01*
X2491894Y1273944D01*
X2492661Y1271836D01*
X2493324Y1269690D01*
X2493877Y1267516D01*
X2494322Y1265319D01*
X2494657Y1263099D01*
X2494878Y1260866D01*
X2494990Y1258626D01*
Y1256380D01*
X2494878Y1254140D01*
X2494657Y1251907D01*
X2494322Y1249687D01*
X2493877Y1247490D01*
X2493324Y1245316D01*
X2492661Y1243170D01*
X2491894Y1241062D01*
X2491022Y1238994D01*
X2490050Y1236972D01*
X2488975Y1235004D01*
X2487807Y1233088D01*
X2486542Y1231234D01*
X2485188Y1229446D01*
X2483745Y1227727D01*
X2482219Y1226081D01*
X2480614Y1224516D01*
X2478930Y1223030D01*
X2477177Y1221631D01*
X2475353Y1220322D01*
X2473469Y1219103D01*
X2471525Y1217983D01*
X2469529Y1216959D01*
X2467484Y1216035D01*
X2465396Y1215214D01*
X2463268Y1214501D01*
X2461109Y1213894D01*
X2458922Y1213393D01*
X2456712Y1213005D01*
X2454485Y1212725D01*
X2452247Y1212558D01*
X2450004Y1212502D01*
X2360004D01*
X2357761Y1212558D01*
X2355524Y1212725D01*
X2353296Y1213005D01*
X2351086Y1213393D01*
X2348899Y1213894D01*
X2346740Y1214501D01*
X2344612Y1215214D01*
X2342524Y1216035D01*
X2340479Y1216959D01*
X2338483Y1217983D01*
X2336540Y1219103D01*
X2334655Y1220322D01*
X2332831Y1221631D01*
X2331079Y1223030D01*
X2329395Y1224516D01*
X2327789Y1226081D01*
X2326263Y1227727D01*
X2324820Y1229446D01*
X2323466Y1231234D01*
X2322201Y1233088D01*
X2321033Y1235004D01*
X2319959Y1236972D01*
X2318986Y1238994D01*
X2318114Y1241062D01*
X2317347Y1243170D01*
X2316684Y1245316D01*
X2316131Y1247490D01*
X2315686Y1249687D01*
X2315351Y1251907D01*
X2315130Y1254140D01*
X2315018Y1256380D01*
Y1258626D01*
X2315130Y1260866D01*
X2315351Y1263099D01*
X2315686Y1265319D01*
X2316131Y1267516D01*
X2316684Y1269690D01*
X2317347Y1271836D01*
X2318114Y1273944D01*
X2318986Y1276012D01*
X2319959Y1278034D01*
X2321033Y1280005D01*
X2322201Y1281917D01*
X2323466Y1283772D01*
X2324820Y1285560D01*
X2326263Y1287279D01*
X2327789Y1288925D01*
X2329395Y1290490D01*
X2331079Y1291976D01*
X2332831Y1293375D01*
X2334655Y1294683D01*
X2336540Y1295903D01*
X2338483Y1297023D01*
X2340479Y1298046D01*
X2342524Y1298971D01*
X2344612Y1299791D01*
X2346740Y1300505D01*
X2348899Y1301112D01*
X2351086Y1301613D01*
X2353296Y1302001D01*
X2355524Y1302281D01*
X2357761Y1302448D01*
X2360004Y1302504D01*
X2450004D01*
X2452247Y1302448D01*
D02*
G37*
G36*
X2038832Y1225219D02*
X2040239Y1223812D01*
X2041000Y1221974D01*
Y1220980D01*
Y1205980D01*
Y1204985D01*
X2040239Y1203148D01*
X2038832Y1201741D01*
X2036994Y1200980D01*
X2020005D01*
X2018168Y1201741D01*
X2016761Y1203148D01*
X2016000Y1204985D01*
Y1205980D01*
Y1220980D01*
Y1221974D01*
X2016761Y1223812D01*
X2018168Y1225219D01*
X2020005Y1225980D01*
X2036994D01*
X2038832Y1225219D01*
D02*
G37*
G36*
X1998832D02*
X2000239Y1223812D01*
X2001000Y1221974D01*
Y1220980D01*
Y1205980D01*
Y1204985D01*
X2000239Y1203148D01*
X1998832Y1201741D01*
X1996994Y1200980D01*
X1980005D01*
X1978168Y1201741D01*
X1976761Y1203148D01*
X1976000Y1204985D01*
Y1205980D01*
Y1220980D01*
Y1221974D01*
X1976761Y1223812D01*
X1978168Y1225219D01*
X1980005Y1225980D01*
X1996994D01*
X1998832Y1225219D01*
D02*
G37*
G36*
X1958832D02*
X1960239Y1223812D01*
X1961000Y1221974D01*
Y1220980D01*
Y1205980D01*
Y1204985D01*
X1960239Y1203148D01*
X1958832Y1201741D01*
X1956994Y1200980D01*
X1940005D01*
X1938168Y1201741D01*
X1936761Y1203148D01*
X1936000Y1204985D01*
Y1205980D01*
Y1220980D01*
Y1221974D01*
X1936761Y1223812D01*
X1938168Y1225219D01*
X1940005Y1225980D01*
X1956994D01*
X1958832Y1225219D01*
D02*
G37*
G36*
X1918832D02*
X1920239Y1223812D01*
X1921000Y1221974D01*
Y1220980D01*
Y1205980D01*
Y1204985D01*
X1920239Y1203148D01*
X1918832Y1201741D01*
X1916994Y1200980D01*
X1900005D01*
X1898168Y1201741D01*
X1896761Y1203148D01*
X1896000Y1204985D01*
Y1205980D01*
Y1220980D01*
Y1221974D01*
X1896761Y1223812D01*
X1898168Y1225219D01*
X1900005Y1225980D01*
X1916994D01*
X1918832Y1225219D01*
D02*
G37*
G36*
X780880Y1363167D02*
X785355Y1362832D01*
X789808Y1362273D01*
X794228Y1361493D01*
X798601Y1360495D01*
X802922Y1359281D01*
X807176Y1357851D01*
X811352Y1356213D01*
X815444Y1354366D01*
X819437Y1352319D01*
X823323Y1350076D01*
X827093Y1347640D01*
X830737Y1345021D01*
X834245Y1342222D01*
X837611Y1339253D01*
X840821Y1336121D01*
X843874Y1332832D01*
X846760Y1329393D01*
X849467Y1325816D01*
X851997Y1322108D01*
X854337Y1318278D01*
X856483Y1314338D01*
X858429Y1310295D01*
X860174Y1306159D01*
X861708Y1301943D01*
X863031Y1297656D01*
X864138Y1293307D01*
X865027Y1288908D01*
X865696Y1284470D01*
X866143Y1280005D01*
X866366Y1275522D01*
Y1271036D01*
X866143Y1266553D01*
X865696Y1262088D01*
X865027Y1257651D01*
X864138Y1253251D01*
X863031Y1248903D01*
X861708Y1244615D01*
X860174Y1240399D01*
X858429Y1236264D01*
X856483Y1232220D01*
X854337Y1228278D01*
X851997Y1224450D01*
X849467Y1220742D01*
X846760Y1217165D01*
X843874Y1213726D01*
X840821Y1210437D01*
X837611Y1207305D01*
X834245Y1204336D01*
X830737Y1201537D01*
X827093Y1198918D01*
X823323Y1196482D01*
X819437Y1194239D01*
X815444Y1192192D01*
X811352Y1190346D01*
X807176Y1188707D01*
X802922Y1187277D01*
X798601Y1186063D01*
X794228Y1185065D01*
X789808Y1184285D01*
X785355Y1183726D01*
X780880Y1183391D01*
X776394Y1183279D01*
X736394D01*
X731909Y1183391D01*
X727433Y1183726D01*
X722981Y1184285D01*
X718561Y1185065D01*
X714187Y1186063D01*
X709866Y1187277D01*
X705612Y1188707D01*
X701436Y1190346D01*
X697344Y1192192D01*
X693351Y1194239D01*
X689465Y1196482D01*
X685696Y1198918D01*
X682051Y1201537D01*
X678543Y1204336D01*
X675178Y1207305D01*
X671967Y1210437D01*
X668914Y1213726D01*
X666029Y1217165D01*
X663321Y1220742D01*
X660791Y1224450D01*
X658452Y1228278D01*
X656306Y1232220D01*
X654360Y1236264D01*
X652615Y1240399D01*
X651081Y1244615D01*
X649757Y1248903D01*
X648650Y1253251D01*
X647761Y1257651D01*
X647093Y1262088D01*
X646646Y1266553D01*
X646422Y1271036D01*
Y1275522D01*
X646646Y1280005D01*
X647093Y1284470D01*
X647761Y1288908D01*
X648650Y1293307D01*
X649757Y1297656D01*
X651081Y1301943D01*
X652615Y1306159D01*
X654360Y1310295D01*
X656306Y1314338D01*
X658452Y1318278D01*
X660791Y1322108D01*
X663321Y1325816D01*
X666029Y1329393D01*
X668914Y1332832D01*
X671967Y1336121D01*
X675178Y1339253D01*
X678543Y1342222D01*
X682051Y1345021D01*
X685696Y1347640D01*
X689465Y1350076D01*
X693351Y1352319D01*
X697344Y1354366D01*
X701436Y1356213D01*
X705612Y1357851D01*
X709866Y1359281D01*
X714187Y1360495D01*
X718561Y1361493D01*
X722981Y1362273D01*
X727433Y1362832D01*
X731909Y1363167D01*
X736394Y1363279D01*
X776394D01*
X780880Y1363167D01*
D02*
G37*
G36*
X2038832Y1185219D02*
X2040239Y1183812D01*
X2041000Y1181975D01*
Y1180980D01*
Y1165980D01*
Y1164985D01*
X2040239Y1163148D01*
X2038832Y1161741D01*
X2036994Y1160980D01*
X2020005D01*
X2018168Y1161741D01*
X2016761Y1163148D01*
X2016000Y1164985D01*
Y1165980D01*
Y1180980D01*
Y1181975D01*
X2016761Y1183812D01*
X2018168Y1185219D01*
X2020005Y1185980D01*
X2036994D01*
X2038832Y1185219D01*
D02*
G37*
G36*
X1998832D02*
X2000239Y1183812D01*
X2001000Y1181975D01*
Y1180980D01*
Y1165980D01*
Y1164985D01*
X2000239Y1163148D01*
X1998832Y1161741D01*
X1996994Y1160980D01*
X1980005D01*
X1978168Y1161741D01*
X1976761Y1163148D01*
X1976000Y1164985D01*
Y1165980D01*
Y1180980D01*
Y1181975D01*
X1976761Y1183812D01*
X1978168Y1185219D01*
X1980005Y1185980D01*
X1996994D01*
X1998832Y1185219D01*
D02*
G37*
G36*
X1958832D02*
X1960239Y1183812D01*
X1961000Y1181975D01*
Y1180980D01*
Y1165980D01*
Y1164985D01*
X1960239Y1163148D01*
X1958832Y1161741D01*
X1956994Y1160980D01*
X1940005D01*
X1938168Y1161741D01*
X1936761Y1163148D01*
X1936000Y1164985D01*
Y1165980D01*
Y1180980D01*
Y1181975D01*
X1936761Y1183812D01*
X1938168Y1185219D01*
X1940005Y1185980D01*
X1956994D01*
X1958832Y1185219D01*
D02*
G37*
G36*
X1918832D02*
X1920239Y1183812D01*
X1921000Y1181975D01*
Y1180980D01*
Y1165980D01*
Y1164985D01*
X1920239Y1163148D01*
X1918832Y1161741D01*
X1916994Y1160980D01*
X1900005D01*
X1898168Y1161741D01*
X1896761Y1163148D01*
X1896000Y1164985D01*
Y1165980D01*
Y1180980D01*
Y1181975D01*
X1896761Y1183812D01*
X1898168Y1185219D01*
X1900005Y1185980D01*
X1916994D01*
X1918832Y1185219D01*
D02*
G37*
G36*
X2465005Y1160008D02*
X2385005D01*
Y1190008D01*
X2465005D01*
Y1160008D01*
D02*
G37*
G36*
X2615000Y1135009D02*
X2535000D01*
Y1165009D01*
X2615000D01*
Y1135009D01*
D02*
G37*
G36*
X743420Y1126678D02*
X643420D01*
Y1156680D01*
X743420D01*
Y1126678D01*
D02*
G37*
G36*
X2038832Y1145219D02*
X2040239Y1143812D01*
X2041000Y1141974D01*
Y1140980D01*
Y1125980D01*
Y1124985D01*
X2040239Y1123148D01*
X2038832Y1121741D01*
X2036994Y1120980D01*
X2020005D01*
X2018168Y1121741D01*
X2016761Y1123148D01*
X2016000Y1124985D01*
Y1125980D01*
Y1140980D01*
Y1141974D01*
X2016761Y1143812D01*
X2018168Y1145219D01*
X2020005Y1145980D01*
X2036994D01*
X2038832Y1145219D01*
D02*
G37*
G36*
X1998832D02*
X2000239Y1143812D01*
X2001000Y1141974D01*
Y1140980D01*
Y1125980D01*
Y1124985D01*
X2000239Y1123148D01*
X1998832Y1121741D01*
X1996994Y1120980D01*
X1980005D01*
X1978168Y1121741D01*
X1976761Y1123148D01*
X1976000Y1124985D01*
Y1125980D01*
Y1140980D01*
Y1141974D01*
X1976761Y1143812D01*
X1978168Y1145219D01*
X1980005Y1145980D01*
X1996994D01*
X1998832Y1145219D01*
D02*
G37*
G36*
X1958832D02*
X1960239Y1143812D01*
X1961000Y1141974D01*
Y1140980D01*
Y1125980D01*
Y1124985D01*
X1960239Y1123148D01*
X1958832Y1121741D01*
X1956994Y1120980D01*
X1940005D01*
X1938168Y1121741D01*
X1936761Y1123148D01*
X1936000Y1124985D01*
Y1125980D01*
Y1140980D01*
Y1141974D01*
X1936761Y1143812D01*
X1938168Y1145219D01*
X1940005Y1145980D01*
X1956994D01*
X1958832Y1145219D01*
D02*
G37*
G36*
X1918832D02*
X1920239Y1143812D01*
X1921000Y1141974D01*
Y1140980D01*
Y1125980D01*
Y1124985D01*
X1920239Y1123148D01*
X1918832Y1121741D01*
X1916994Y1120980D01*
X1900005D01*
X1898168Y1121741D01*
X1896761Y1123148D01*
X1896000Y1124985D01*
Y1125980D01*
Y1140980D01*
Y1141974D01*
X1896761Y1143812D01*
X1898168Y1145219D01*
X1900005Y1145980D01*
X1916994D01*
X1918832Y1145219D01*
D02*
G37*
G36*
X2465005Y1109995D02*
X2385005D01*
Y1139995D01*
X2465005D01*
Y1109995D01*
D02*
G37*
G36*
X878413Y1101672D02*
X778413D01*
Y1131672D01*
X878413D01*
Y1101672D01*
D02*
G37*
G36*
X2614957Y1085022D02*
X2534957D01*
Y1115022D01*
X2614957D01*
Y1085022D01*
D02*
G37*
G36*
X743420Y1076678D02*
X643420D01*
Y1106681D01*
X743420D01*
Y1076678D01*
D02*
G37*
G36*
X2465005Y1060008D02*
X2385005D01*
Y1090008D01*
X2465005D01*
Y1060008D01*
D02*
G37*
G36*
X878413Y1051674D02*
X778413D01*
Y1081674D01*
X878413D01*
Y1051674D01*
D02*
G37*
G36*
X2614957Y1035009D02*
X2534957D01*
Y1065009D01*
X2614957D01*
Y1035009D01*
D02*
G37*
G36*
X743420Y1026683D02*
X643420D01*
Y1056686D01*
X743420D01*
Y1026683D01*
D02*
G37*
G36*
X2465005Y1009995D02*
X2385005D01*
Y1039995D01*
X2465005D01*
Y1009995D01*
D02*
G37*
G36*
X878413Y1001672D02*
X778413D01*
Y1031672D01*
X878413D01*
Y1001672D01*
D02*
G37*
G36*
X2614957Y985022D02*
X2534957D01*
Y1015022D01*
X2614957D01*
Y985022D01*
D02*
G37*
G36*
X743420Y976681D02*
X643420D01*
Y1006683D01*
X743420D01*
Y976681D01*
D02*
G37*
G36*
X2465005Y960008D02*
X2385005D01*
Y990008D01*
X2465005D01*
Y960008D01*
D02*
G37*
G36*
X878413Y951675D02*
X778413D01*
Y981674D01*
X878413D01*
Y951675D01*
D02*
G37*
G36*
X2614957Y935009D02*
X2534957D01*
Y965009D01*
X2614957D01*
Y935009D01*
D02*
G37*
G36*
X743420Y926681D02*
X643420D01*
Y956683D01*
X743420D01*
Y926681D01*
D02*
G37*
G36*
X2465005Y909995D02*
X2385005D01*
Y939995D01*
X2465005D01*
Y909995D01*
D02*
G37*
G36*
X878413Y901680D02*
X778413D01*
Y931680D01*
X878413D01*
Y901680D01*
D02*
G37*
G36*
X2614957Y885022D02*
X2534957D01*
Y915022D01*
X2614957D01*
Y885022D01*
D02*
G37*
G36*
X743420Y876686D02*
X643420D01*
Y906689D01*
X743420D01*
Y876686D01*
D02*
G37*
G36*
X2465005Y859983D02*
X2385005D01*
Y889983D01*
X2465005D01*
Y859983D01*
D02*
G37*
G36*
X878413Y851685D02*
X778413D01*
Y881685D01*
X878413D01*
Y851685D01*
D02*
G37*
G36*
X2614957Y835010D02*
X2534957D01*
Y865009D01*
X2614957D01*
Y835010D01*
D02*
G37*
G36*
X743420Y826684D02*
X643420D01*
Y856686D01*
X743420D01*
Y826684D01*
D02*
G37*
G36*
X2465005Y809996D02*
X2385005D01*
Y839996D01*
X2465005D01*
Y809996D01*
D02*
G37*
G36*
X878413Y801688D02*
X778413D01*
Y831687D01*
X878413D01*
Y801688D01*
D02*
G37*
G36*
X2614957Y785022D02*
X2534957D01*
Y815022D01*
X2614957D01*
Y785022D01*
D02*
G37*
G36*
X743420Y776679D02*
X643420D01*
Y806681D01*
X743420D01*
Y776679D01*
D02*
G37*
G36*
X2465005Y760008D02*
X2385005D01*
Y790008D01*
X2465005D01*
Y760008D01*
D02*
G37*
G36*
X878413Y751688D02*
X778413D01*
Y781688D01*
X878413D01*
Y751688D01*
D02*
G37*
G36*
X2614957Y735010D02*
X2534957D01*
Y765010D01*
X2614957D01*
Y735010D01*
D02*
G37*
G36*
X743420Y726676D02*
X643420D01*
Y756679D01*
X743420D01*
Y726676D01*
D02*
G37*
G36*
X2465005Y709996D02*
X2385005D01*
Y739996D01*
X2465005D01*
Y709996D01*
D02*
G37*
G36*
X878413Y701685D02*
X778413D01*
Y731685D01*
X878413D01*
Y701685D01*
D02*
G37*
G36*
X2614957Y685023D02*
X2534957D01*
Y715022D01*
X2614957D01*
Y685023D01*
D02*
G37*
G36*
X743420Y676679D02*
X643420D01*
Y706681D01*
X743420D01*
Y676679D01*
D02*
G37*
G36*
X2465005Y660009D02*
X2385005D01*
Y690009D01*
X2465005D01*
Y660009D01*
D02*
G37*
G36*
X878413Y651683D02*
X778413D01*
Y681685D01*
X878413D01*
Y651683D01*
D02*
G37*
G36*
X2614957Y635010D02*
X2534957D01*
Y665010D01*
X2614957D01*
Y635010D01*
D02*
G37*
G36*
X743420Y626681D02*
X643420D01*
Y656684D01*
X743420D01*
Y626681D01*
D02*
G37*
G36*
X2465005Y609996D02*
X2385005D01*
Y639996D01*
X2465005D01*
Y609996D01*
D02*
G37*
G36*
X878413Y601680D02*
X778413D01*
Y631680D01*
X878413D01*
Y601680D01*
D02*
G37*
G36*
X2614957Y585023D02*
X2534957D01*
Y615023D01*
X2614957D01*
Y585023D01*
D02*
G37*
G36*
X743420Y576679D02*
X643420D01*
Y606682D01*
X743420D01*
Y576679D01*
D02*
G37*
G36*
X878413Y551683D02*
X778413D01*
Y581683D01*
X878413D01*
Y551683D01*
D02*
G37*
G36*
X2452196Y562445D02*
X2454434Y562277D01*
X2456661Y561998D01*
X2458871Y561609D01*
X2461058Y561109D01*
X2463217Y560502D01*
X2465346Y559788D01*
X2467433Y558967D01*
X2469478Y558043D01*
X2471475Y557019D01*
X2473418Y555899D01*
X2475302Y554680D01*
X2477126Y553372D01*
X2478879Y551972D01*
X2480563Y550486D01*
X2482168Y548922D01*
X2483695Y547276D01*
X2485137Y545556D01*
X2486491Y543768D01*
X2487756Y541914D01*
X2488924Y540001D01*
X2489999Y538030D01*
X2490972Y536008D01*
X2491843Y533941D01*
X2492610Y531833D01*
X2493273Y529686D01*
X2493827Y527512D01*
X2494271Y525315D01*
X2494606Y523095D01*
X2494827Y520862D01*
X2494939Y518622D01*
Y516377D01*
X2494827Y514136D01*
X2494606Y511904D01*
X2494271Y509684D01*
X2493827Y507487D01*
X2493273Y505312D01*
X2492610Y503166D01*
X2491843Y501058D01*
X2490972Y498990D01*
X2489999Y496969D01*
X2488924Y495000D01*
X2487756Y493085D01*
X2486491Y491231D01*
X2485137Y489443D01*
X2483695Y487723D01*
X2482168Y486077D01*
X2480563Y484512D01*
X2478879Y483026D01*
X2477126Y481627D01*
X2475302Y480319D01*
X2473418Y479100D01*
X2471475Y477979D01*
X2469478Y476956D01*
X2467433Y476031D01*
X2465346Y475211D01*
X2463217Y474497D01*
X2461058Y473890D01*
X2458871Y473390D01*
X2456661Y473001D01*
X2454434Y472722D01*
X2452196Y472554D01*
X2449953Y472498D01*
X2359953D01*
X2357711Y472554D01*
X2355473Y472722D01*
X2353245Y473001D01*
X2351035Y473390D01*
X2348848Y473890D01*
X2346689Y474497D01*
X2344561Y475211D01*
X2342473Y476031D01*
X2340428Y476956D01*
X2338432Y477979D01*
X2336489Y479100D01*
X2334604Y480319D01*
X2332780Y481627D01*
X2331028Y483026D01*
X2329344Y484512D01*
X2327739Y486077D01*
X2326212Y487723D01*
X2324769Y489443D01*
X2323415Y491231D01*
X2322151Y493085D01*
X2320982Y495000D01*
X2319908Y496969D01*
X2318935Y498990D01*
X2318064Y501058D01*
X2317297Y503166D01*
X2316634Y505312D01*
X2316080Y507487D01*
X2315635Y509684D01*
X2315300Y511904D01*
X2315079Y514136D01*
X2314967Y516377D01*
Y518622D01*
X2315079Y520862D01*
X2315300Y523095D01*
X2315635Y525315D01*
X2316080Y527512D01*
X2316634Y529686D01*
X2317297Y531833D01*
X2318064Y533941D01*
X2318935Y536008D01*
X2319908Y538030D01*
X2320982Y540001D01*
X2322151Y541914D01*
X2323415Y543768D01*
X2324769Y545556D01*
X2326212Y547276D01*
X2327739Y548922D01*
X2329344Y550486D01*
X2331028Y551972D01*
X2332780Y553372D01*
X2334604Y554680D01*
X2336489Y555899D01*
X2338432Y557019D01*
X2340428Y558043D01*
X2342473Y558967D01*
X2344561Y559788D01*
X2346689Y560502D01*
X2348848Y561109D01*
X2351035Y561609D01*
X2353245Y561998D01*
X2355473Y562277D01*
X2357711Y562445D01*
X2359953Y562501D01*
X2449953D01*
X2452196Y562445D01*
D02*
G37*
G36*
X366400Y482102D02*
X369385Y481879D01*
X372354Y481505D01*
X375300Y480987D01*
X378216Y480322D01*
X381097Y479511D01*
X383931Y478556D01*
X386718Y477464D01*
X389443Y476235D01*
X392105Y474868D01*
X394696Y473372D01*
X397210Y471749D01*
X399639Y470004D01*
X401978Y468140D01*
X404221Y466159D01*
X406362Y464071D01*
X408396Y461876D01*
X410319Y459585D01*
X412128Y457200D01*
X413812Y454729D01*
X415371Y452176D01*
X416804Y449550D01*
X418102Y446852D01*
X419263Y444096D01*
X420286Y441284D01*
X421168Y438427D01*
X421907Y435526D01*
X422499Y432595D01*
X422946Y429636D01*
X423243Y426659D01*
X423393Y423672D01*
Y420680D01*
X423243Y417693D01*
X422946Y414716D01*
X422499Y411757D01*
X421907Y408826D01*
X421168Y405925D01*
X420286Y403068D01*
X419263Y400256D01*
X418102Y397500D01*
X416804Y394802D01*
X415371Y392176D01*
X413812Y389623D01*
X412128Y387152D01*
X410319Y384767D01*
X408396Y382476D01*
X406362Y380281D01*
X404221Y378193D01*
X401978Y376212D01*
X399639Y374348D01*
X397210Y372603D01*
X394696Y370980D01*
X392105Y369484D01*
X389443Y368117D01*
X386718Y366888D01*
X383931Y365796D01*
X381097Y364841D01*
X378216Y364030D01*
X375300Y363365D01*
X372354Y362847D01*
X369385Y362473D01*
X366400Y362250D01*
X363410Y362176D01*
X243411D01*
X240421Y362250D01*
X237437Y362473D01*
X234467Y362847D01*
X231521Y363365D01*
X228605Y364030D01*
X225725Y364841D01*
X222890Y365796D01*
X220104Y366888D01*
X217378Y368117D01*
X214716Y369484D01*
X212126Y370980D01*
X209611Y372603D01*
X207183Y374348D01*
X204843Y376212D01*
X202601Y378193D01*
X200459Y380281D01*
X198425Y382476D01*
X196502Y384767D01*
X194694Y387152D01*
X193010Y389623D01*
X191450Y392176D01*
X190017Y394802D01*
X188719Y397500D01*
X187559Y400256D01*
X186535Y403068D01*
X185654Y405925D01*
X184915Y408826D01*
X184323Y411757D01*
X183876Y414716D01*
X183578Y417693D01*
X183429Y420680D01*
Y423672D01*
X183578Y426659D01*
X183876Y429636D01*
X184323Y432595D01*
X184915Y435526D01*
X185654Y438427D01*
X186535Y441284D01*
X187559Y444096D01*
X188719Y446852D01*
X190017Y449550D01*
X191450Y452176D01*
X193010Y454729D01*
X194694Y457200D01*
X196502Y459585D01*
X198425Y461876D01*
X200459Y464071D01*
X202601Y466159D01*
X204843Y468140D01*
X207183Y470004D01*
X209611Y471749D01*
X212126Y473372D01*
X214716Y474868D01*
X217378Y476235D01*
X220104Y477464D01*
X222890Y478556D01*
X225725Y479511D01*
X228605Y480322D01*
X231521Y480987D01*
X234467Y481505D01*
X237437Y481879D01*
X240421Y482102D01*
X243411Y482176D01*
X363410D01*
X366400Y482102D01*
D02*
G37*
G36*
X780880Y524967D02*
X785355Y524632D01*
X789808Y524073D01*
X794228Y523293D01*
X798601Y522295D01*
X802922Y521081D01*
X807176Y519651D01*
X811352Y518013D01*
X815444Y516166D01*
X819437Y514119D01*
X823323Y511876D01*
X827093Y509440D01*
X830737Y506821D01*
X834245Y504022D01*
X837611Y501053D01*
X840821Y497921D01*
X843874Y494632D01*
X846760Y491193D01*
X849467Y487617D01*
X851997Y483908D01*
X854337Y480078D01*
X856483Y476138D01*
X858429Y472095D01*
X860174Y467959D01*
X861708Y463743D01*
X863031Y459456D01*
X864138Y455107D01*
X865027Y450708D01*
X865696Y446270D01*
X866143Y441805D01*
X866366Y437322D01*
Y432836D01*
X866143Y428353D01*
X865696Y423888D01*
X865027Y419451D01*
X864138Y415051D01*
X863031Y410703D01*
X861708Y406415D01*
X860174Y402199D01*
X858429Y398064D01*
X856483Y394020D01*
X854337Y390078D01*
X851997Y386250D01*
X849467Y382542D01*
X846760Y378965D01*
X843874Y375526D01*
X840821Y372237D01*
X837611Y369105D01*
X834245Y366136D01*
X830737Y363337D01*
X827093Y360718D01*
X823323Y358282D01*
X819437Y356039D01*
X815444Y353992D01*
X811352Y352146D01*
X807176Y350507D01*
X802922Y349077D01*
X798601Y347863D01*
X794228Y346865D01*
X789808Y346085D01*
X785355Y345526D01*
X780880Y345191D01*
X776394Y345079D01*
X736394D01*
X731909Y345191D01*
X727433Y345526D01*
X722981Y346085D01*
X718561Y346865D01*
X714187Y347863D01*
X709866Y349077D01*
X705612Y350507D01*
X701436Y352146D01*
X697344Y353992D01*
X693351Y356039D01*
X689465Y358282D01*
X685696Y360718D01*
X682051Y363337D01*
X678543Y366136D01*
X675178Y369105D01*
X671967Y372237D01*
X668914Y375526D01*
X666029Y378965D01*
X663321Y382542D01*
X660791Y386250D01*
X658452Y390078D01*
X656306Y394020D01*
X654360Y398064D01*
X652615Y402199D01*
X651081Y406415D01*
X649757Y410703D01*
X648650Y415051D01*
X647761Y419451D01*
X647093Y423888D01*
X646646Y428353D01*
X646422Y432836D01*
Y437322D01*
X646646Y441805D01*
X647093Y446270D01*
X647761Y450708D01*
X648650Y455107D01*
X649757Y459456D01*
X651081Y463743D01*
X652615Y467959D01*
X654360Y472095D01*
X656306Y476138D01*
X658452Y480078D01*
X660791Y483908D01*
X663321Y487617D01*
X666029Y491193D01*
X668914Y494632D01*
X671967Y497921D01*
X675178Y501053D01*
X678543Y504022D01*
X682051Y506821D01*
X685696Y509440D01*
X689465Y511876D01*
X693351Y514119D01*
X697344Y516166D01*
X701436Y518013D01*
X705612Y519651D01*
X709866Y521081D01*
X714187Y522295D01*
X718561Y523293D01*
X722981Y524073D01*
X727433Y524632D01*
X731909Y524967D01*
X736394Y525079D01*
X776394D01*
X780880Y524967D01*
D02*
G37*
D10*
X828416Y1116670D02*
D03*
Y1066673D02*
D03*
Y1016668D02*
D03*
Y966676D02*
D03*
Y916681D02*
D03*
Y866684D02*
D03*
Y816689D02*
D03*
Y766689D02*
D03*
Y716684D02*
D03*
Y666684D02*
D03*
Y616684D02*
D03*
Y566684D02*
D03*
X693420Y591680D02*
D03*
Y641683D02*
D03*
Y691678D02*
D03*
Y741680D02*
D03*
Y791680D02*
D03*
Y841685D02*
D03*
Y891687D02*
D03*
Y941682D02*
D03*
Y991682D02*
D03*
Y1041684D02*
D03*
Y1091679D02*
D03*
Y1141679D02*
D03*
D12*
X2574954Y600001D02*
D03*
Y650001D02*
D03*
Y700001D02*
D03*
Y750001D02*
D03*
Y800001D02*
D03*
Y850001D02*
D03*
Y900000D02*
D03*
Y950000D02*
D03*
Y1000000D02*
D03*
Y1050000D02*
D03*
Y1100000D02*
D03*
X2575000Y1150000D02*
D03*
X2425005Y1174994D02*
D03*
Y1124994D02*
D03*
Y1074994D02*
D03*
Y1024994D02*
D03*
Y974994D02*
D03*
Y924994D02*
D03*
Y874994D02*
D03*
Y824994D02*
D03*
Y774994D02*
D03*
Y724994D02*
D03*
Y674995D02*
D03*
Y624995D02*
D03*
D13*
X1878500Y1478280D02*
D03*
X2058500D02*
D03*
D14*
X1943100Y242740D02*
D03*
Y422740D02*
D03*
D15*
X1221740Y570230D02*
D03*
Y836930D02*
D03*
D16*
X1600200Y764920D02*
D03*
Y367920D02*
D03*
%TF.MD5,d62c7079c8f5be503fb85b7c67b4e2f6*%
M02*
