%TF.GenerationSoftware,Altium Limited,Altium Designer,22.10.1 (41)*%
G04 Layer_Physical_Order=2*
G04 Layer_Color=16711680*
%FSLAX45Y45*%
%MOMM*%
%TF.SameCoordinates,7C4CEE53-0205-4E42-98F0-91463D168F18*%
%TF.FilePolarity,Positive*%
%TF.FileFunction,Copper,L2,Bot,Signal*%
%TF.Part,Single*%
G01*
G75*
%TA.AperFunction,Conductor*%
%ADD17C,0.25400*%
%TA.AperFunction,ComponentPad*%
%ADD20O,2.20000X1.80000*%
%ADD21O,2.40000X1.20000*%
%ADD22C,0.50002*%
%ADD23O,1.80000X0.90000*%
%TA.AperFunction,ViaPad*%
%ADD24C,1.27000*%
G36*
X2263140Y1572260D02*
Y542522D01*
X2250440Y539939D01*
X2240298Y557506D01*
X2223746Y574058D01*
X2203474Y585762D01*
X2181860Y591553D01*
Y502920D01*
Y414287D01*
X2203474Y420078D01*
X2223746Y431782D01*
X2240298Y448334D01*
X2250440Y465901D01*
X2263140Y463318D01*
Y124460D01*
X492760D01*
X467360Y149860D01*
X474980Y157480D01*
Y1574800D01*
X2260600D01*
X2263140Y1572260D01*
D02*
G37*
%LPC*%
G36*
X1254760Y1401813D02*
Y1325880D01*
X1330693D01*
X1324902Y1347494D01*
X1313198Y1367766D01*
X1296646Y1384318D01*
X1276374Y1396022D01*
X1254760Y1401813D01*
D02*
G37*
G36*
X1229360D02*
X1207746Y1396022D01*
X1187474Y1384318D01*
X1170922Y1367766D01*
X1159218Y1347494D01*
X1153427Y1325880D01*
X1229360D01*
Y1401813D01*
D02*
G37*
G36*
X1330693Y1300480D02*
X1254760D01*
Y1224547D01*
X1276374Y1230338D01*
X1296646Y1242042D01*
X1313198Y1258594D01*
X1324902Y1278866D01*
X1330693Y1300480D01*
D02*
G37*
G36*
X1229360D02*
X1153427D01*
X1159218Y1278866D01*
X1170922Y1258594D01*
X1187474Y1242042D01*
X1207746Y1230338D01*
X1229360Y1224547D01*
Y1300480D01*
D02*
G37*
G36*
X776408Y1376169D02*
X736408D01*
X709781Y1372664D01*
X684968Y1362386D01*
X663661Y1346036D01*
X647312Y1324729D01*
X637034Y1299917D01*
X633528Y1273289D01*
X637034Y1246662D01*
X639199Y1241436D01*
X633752Y1234819D01*
X629698Y1231185D01*
X616040D01*
X602440Y1225552D01*
X592032Y1215143D01*
X586399Y1201543D01*
Y1186824D01*
X592032Y1173224D01*
X602440Y1162815D01*
X616040Y1157182D01*
X630760D01*
X644359Y1162815D01*
X654768Y1173224D01*
X660401Y1186824D01*
Y1187035D01*
X673101Y1193299D01*
X684968Y1184193D01*
X709781Y1173915D01*
X736408Y1170409D01*
X776408D01*
X803035Y1173915D01*
X827848Y1184193D01*
X849155Y1200542D01*
X865505Y1221849D01*
X875783Y1246662D01*
X879288Y1273289D01*
X875783Y1299917D01*
X865505Y1324729D01*
X849155Y1346036D01*
X827848Y1362386D01*
X803035Y1372664D01*
X776408Y1376169D01*
D02*
G37*
G36*
X1249460Y1167700D02*
X1229580D01*
X1210378Y1162555D01*
X1193162Y1152615D01*
X1179105Y1138558D01*
X1169165Y1121342D01*
X1164020Y1102140D01*
Y1082260D01*
X1169165Y1063058D01*
X1179105Y1045842D01*
X1193162Y1031785D01*
X1210378Y1021845D01*
X1229580Y1016700D01*
X1249460D01*
X1268662Y1021845D01*
X1285878Y1031785D01*
X1299935Y1045842D01*
X1309875Y1063058D01*
X1315020Y1082260D01*
Y1102140D01*
X1309875Y1121342D01*
X1299935Y1138558D01*
X1285878Y1152615D01*
X1268662Y1162555D01*
X1249460Y1167700D01*
D02*
G37*
G36*
X2179100Y799400D02*
X2159220D01*
X2140018Y794255D01*
X2122802Y784315D01*
X2108745Y770258D01*
X2098805Y753042D01*
X2093660Y733840D01*
Y713960D01*
X2098805Y694758D01*
X2108745Y677542D01*
X2122802Y663485D01*
X2140018Y653545D01*
X2159220Y648400D01*
X2179100D01*
X2198302Y653545D01*
X2215518Y663485D01*
X2229575Y677542D01*
X2239515Y694758D01*
X2244660Y713960D01*
Y733840D01*
X2239515Y753042D01*
X2229575Y770258D01*
X2215518Y784315D01*
X2198302Y794255D01*
X2179100Y799400D01*
D02*
G37*
G36*
X2156460Y591553D02*
X2134846Y585762D01*
X2114574Y574058D01*
X2098022Y557506D01*
X2086318Y537234D01*
X2080527Y515620D01*
X2156460D01*
Y591553D01*
D02*
G37*
G36*
Y490220D02*
X2080527D01*
X2086318Y468606D01*
X2098022Y448334D01*
X2114574Y431782D01*
X2134846Y420078D01*
X2156460Y414287D01*
Y490220D01*
D02*
G37*
G36*
X630760Y551176D02*
X616040D01*
X602440Y545543D01*
X592032Y535134D01*
X586399Y521535D01*
Y506815D01*
X592032Y493215D01*
X602440Y482807D01*
X616040Y477174D01*
X629700D01*
X633749Y473543D01*
X639201Y466923D01*
X637044Y461717D01*
X633538Y435089D01*
X637044Y408462D01*
X647322Y383649D01*
X663671Y362342D01*
X684978Y345993D01*
X709791Y335715D01*
X736418Y332209D01*
X776418D01*
X803046Y335715D01*
X827858Y345993D01*
X849165Y362342D01*
X865515Y383649D01*
X875793Y408462D01*
X879298Y435089D01*
X875793Y461717D01*
X865515Y486529D01*
X849165Y507836D01*
X827858Y524186D01*
X803046Y534464D01*
X776418Y537969D01*
X736418D01*
X709791Y534464D01*
X684978Y524186D01*
X673101Y515072D01*
X660401Y521335D01*
Y521535D01*
X654768Y535134D01*
X644359Y545543D01*
X630760Y551176D01*
D02*
G37*
%LPD*%
D17*
X1639130Y880550D02*
Y916110D01*
X1242060Y1313180D02*
X1639130Y916110D01*
Y880550D02*
X2016760Y502920D01*
X2169160D01*
D20*
X756418Y435089D02*
D03*
X756408Y1273289D02*
D03*
D21*
X303414Y1286200D02*
D03*
Y422173D02*
D03*
D22*
X623400Y514175D02*
D03*
Y1194184D02*
D03*
D23*
X2404956Y517502D02*
D03*
X2404999Y1257500D02*
D03*
D24*
X1242060Y1313180D02*
D03*
X1239520Y1092200D02*
D03*
X2169160Y502920D02*
D03*
Y723900D02*
D03*
%TF.MD5,e73feb68c10ba7eb46be05738c5e198d*%
M02*
