%TF.GenerationSoftware,Altium Limited,Altium Designer,22.10.1 (41)*%
G04 Layer_Physical_Order=1*
G04 Layer_Color=255*
%FSLAX45Y45*%
%MOMM*%
%TF.SameCoordinates,7C4CEE53-0205-4E42-98F0-91463D168F18*%
%TF.FilePolarity,Positive*%
%TF.FileFunction,Copper,L1,Top,Signal*%
%TF.Part,Single*%
G01*
G75*
%TA.AperFunction,SMDPad,CuDef*%
%ADD10R,1.00000X0.30000*%
%TA.AperFunction,BGAPad,SMDef*%
%ADD11C,0.22500*%
%TA.AperFunction,ConnectorPad*%
%ADD12R,0.80000X0.30000*%
%TA.AperFunction,SMDPad,CuDef*%
%ADD13R,1.20000X1.40000*%
%ADD14R,1.40000X1.20000*%
%ADD15R,2.03200X1.14300*%
%ADD16R,2.10000X1.27000*%
%TA.AperFunction,Conductor*%
%ADD17C,0.25400*%
%ADD18C,0.38100*%
%ADD19C,0.30000*%
%TA.AperFunction,ComponentPad*%
%ADD20O,2.20000X1.80000*%
%ADD21O,2.40000X1.20000*%
%ADD22C,0.50002*%
%ADD23O,1.80000X0.90000*%
%TA.AperFunction,ViaPad*%
%ADD24C,1.27000*%
G36*
X1806500Y1503464D02*
X1386840D01*
X1377203Y1501547D01*
X1369033Y1496088D01*
X1259591Y1386646D01*
X1252000Y1388680D01*
X1232120D01*
X1212918Y1383535D01*
X1195702Y1373595D01*
X1181645Y1359538D01*
X1171705Y1342322D01*
X1166560Y1323120D01*
Y1303240D01*
X1171705Y1284038D01*
X1173754Y1280489D01*
X1035119Y1141854D01*
X890416D01*
Y1143670D01*
X830849D01*
X828416Y1144154D01*
X791461D01*
X778428Y1157187D01*
X777173Y1158026D01*
X777156Y1158300D01*
X780661Y1170969D01*
X803035Y1173915D01*
X827848Y1184193D01*
X849155Y1200542D01*
X865505Y1221849D01*
X875783Y1246662D01*
X879288Y1273289D01*
X875783Y1299917D01*
X865505Y1324729D01*
X849155Y1346036D01*
X827848Y1362386D01*
X803035Y1372664D01*
X776408Y1376169D01*
X736408D01*
X709781Y1372664D01*
X684968Y1362386D01*
X663661Y1346036D01*
X647312Y1324729D01*
X637034Y1299917D01*
X633528Y1273289D01*
X637034Y1246662D01*
X639199Y1241436D01*
X633752Y1234819D01*
X629698Y1231185D01*
X616040D01*
X602440Y1225552D01*
X592032Y1215143D01*
X586399Y1201543D01*
Y1186824D01*
X592032Y1173224D01*
X602440Y1162815D01*
X616040Y1157182D01*
X630759D01*
X631420Y1156741D01*
Y1032082D01*
X618020D01*
Y1004382D01*
X693420D01*
Y978982D01*
X618020D01*
Y951282D01*
X631420D01*
Y864687D01*
Y782080D01*
X618020D01*
Y754380D01*
X693420D01*
Y728980D01*
X618020D01*
Y701280D01*
X631420D01*
Y564680D01*
X719805D01*
X733308Y551176D01*
X734317Y550502D01*
X731236Y537287D01*
X709791Y534464D01*
X684978Y524186D01*
X673101Y515072D01*
X660401Y521335D01*
Y521535D01*
X654768Y535134D01*
X644359Y545543D01*
X630760Y551176D01*
X616040D01*
X602440Y545543D01*
X592032Y535134D01*
X586399Y521535D01*
Y506815D01*
X592032Y493215D01*
X602440Y482807D01*
X616040Y477174D01*
X629700D01*
X633749Y473543D01*
X639201Y466923D01*
X637044Y461717D01*
X633538Y435089D01*
X637044Y408462D01*
X647322Y383649D01*
X663671Y362342D01*
X684978Y345993D01*
X709791Y335715D01*
X736418Y332209D01*
X776418D01*
X803046Y335715D01*
X827858Y345993D01*
X849165Y362342D01*
X865515Y383649D01*
X875793Y408462D01*
X879298Y435089D01*
X875793Y461717D01*
X865515Y486529D01*
X849165Y507836D01*
X827858Y524186D01*
X821103Y526984D01*
X823629Y539684D01*
X885201D01*
X1199952Y224932D01*
X1208123Y219473D01*
X1217760Y217556D01*
X1861100D01*
Y200660D01*
X505460D01*
Y1514276D01*
X510540Y1516380D01*
X1806500D01*
Y1503464D01*
D02*
G37*
G36*
X1575152Y1117192D02*
X1583322Y1111733D01*
X1592960Y1109816D01*
X1910080D01*
X1912162Y1110230D01*
X1913125D01*
X1914014Y1110599D01*
X1919718Y1111733D01*
X1927887Y1117192D01*
X1938611Y1110381D01*
X1938863Y1110213D01*
X1948500Y1108296D01*
X1963316D01*
Y774029D01*
X1963066Y773655D01*
X1962979Y773214D01*
X1787523Y597759D01*
X1575304D01*
X1570444Y609492D01*
X1619665Y658713D01*
X1619666Y658714D01*
X1625634Y667645D01*
X1627729Y678180D01*
X1631371Y689420D01*
X1717200D01*
Y840420D01*
X1483200D01*
Y689420D01*
X1555915D01*
X1560775Y677687D01*
X1480847Y597759D01*
X1335340D01*
Y639380D01*
X1108140D01*
Y501080D01*
X1335340D01*
Y542701D01*
X1795610D01*
X1806145Y544796D01*
X1815076Y550764D01*
X1821043Y559695D01*
X1821131Y560136D01*
X1949238Y688242D01*
X1960971Y683382D01*
Y494740D01*
X1861100D01*
Y350740D01*
X2025100D01*
Y494740D01*
X2016029D01*
Y578832D01*
X2028729Y582685D01*
X2029432Y581632D01*
X2094620Y516444D01*
X2093660Y512860D01*
Y492980D01*
X2098805Y473778D01*
X2108745Y456562D01*
X2122802Y442505D01*
X2140018Y432565D01*
X2143976Y431505D01*
Y366032D01*
X2045869Y267924D01*
X2025100D01*
Y314740D01*
X1861100D01*
Y267924D01*
X1427573D01*
X1422713Y279657D01*
X1470500Y327445D01*
X1483200Y322184D01*
Y292420D01*
X1717200D01*
Y443420D01*
X1483200D01*
Y389723D01*
X1471979D01*
X1462341Y387806D01*
X1454171Y382347D01*
X1339749Y267924D01*
X1228192D01*
X912964Y583151D01*
X904794Y588610D01*
X895157Y590527D01*
X890416D01*
Y676284D01*
X903816D01*
Y703984D01*
X828416D01*
Y729384D01*
X903816D01*
Y757084D01*
X890416D01*
Y839684D01*
Y926276D01*
X903816D01*
Y953976D01*
X828416D01*
Y979376D01*
X903816D01*
Y1007076D01*
X890416D01*
Y1091487D01*
X1045550D01*
X1055188Y1093403D01*
X1063358Y1098863D01*
X1209369Y1244874D01*
X1212918Y1242825D01*
X1232120Y1237680D01*
X1252000D01*
X1271202Y1242825D01*
X1288418Y1252765D01*
X1302475Y1266822D01*
X1312415Y1284038D01*
X1317560Y1303240D01*
Y1307436D01*
X1384908D01*
X1575152Y1117192D01*
D02*
G37*
%LPC*%
G36*
X1252220Y1180833D02*
Y1104900D01*
X1328153D01*
X1322362Y1126514D01*
X1310658Y1146786D01*
X1294106Y1163338D01*
X1273834Y1175042D01*
X1252220Y1180833D01*
D02*
G37*
G36*
X1226820D02*
X1205206Y1175042D01*
X1184934Y1163338D01*
X1168382Y1146786D01*
X1156678Y1126514D01*
X1150887Y1104900D01*
X1226820D01*
Y1180833D01*
D02*
G37*
G36*
X1328153Y1079500D02*
X1252220D01*
Y1003567D01*
X1273834Y1009358D01*
X1294106Y1021062D01*
X1310658Y1037614D01*
X1322362Y1057886D01*
X1328153Y1079500D01*
D02*
G37*
G36*
X1226820D02*
X1150887D01*
X1156678Y1057886D01*
X1168382Y1037614D01*
X1184934Y1021062D01*
X1205206Y1009358D01*
X1226820Y1003567D01*
Y1079500D01*
D02*
G37*
G36*
X1348740Y919480D02*
X1234440D01*
Y849630D01*
X1348740D01*
Y919480D01*
D02*
G37*
G36*
X1209040D02*
X1094740D01*
Y849630D01*
X1209040D01*
Y919480D01*
D02*
G37*
G36*
X1348740Y824230D02*
X1234440D01*
Y754380D01*
X1348740D01*
Y824230D01*
D02*
G37*
G36*
X1209040D02*
X1094740D01*
Y754380D01*
X1209040D01*
Y824230D01*
D02*
G37*
%LPD*%
D10*
X828416Y1116670D02*
D03*
Y1066673D02*
D03*
Y1016668D02*
D03*
Y966676D02*
D03*
Y916681D02*
D03*
Y866684D02*
D03*
Y816689D02*
D03*
Y766689D02*
D03*
Y716684D02*
D03*
Y666684D02*
D03*
Y616684D02*
D03*
Y566684D02*
D03*
X693420Y591680D02*
D03*
Y641683D02*
D03*
Y691678D02*
D03*
Y741680D02*
D03*
Y791680D02*
D03*
Y841685D02*
D03*
Y891687D02*
D03*
Y941682D02*
D03*
Y991682D02*
D03*
Y1041684D02*
D03*
Y1091679D02*
D03*
Y1141679D02*
D03*
D11*
X2028500Y1133480D02*
D03*
X1988500D02*
D03*
X1948500D02*
D03*
X1908500D02*
D03*
X2028500Y1173480D02*
D03*
X1988500D02*
D03*
X1948500D02*
D03*
X1908500D02*
D03*
X2028500Y1213480D02*
D03*
X1988500D02*
D03*
X1948500D02*
D03*
X1908500D02*
D03*
D12*
X2574954Y600001D02*
D03*
Y650001D02*
D03*
Y700001D02*
D03*
Y750001D02*
D03*
Y800001D02*
D03*
Y850001D02*
D03*
Y900000D02*
D03*
Y950000D02*
D03*
Y1000000D02*
D03*
Y1050000D02*
D03*
Y1100000D02*
D03*
X2575000Y1150000D02*
D03*
X2425005Y1174994D02*
D03*
Y1124994D02*
D03*
Y1074994D02*
D03*
Y1024994D02*
D03*
Y974994D02*
D03*
Y924994D02*
D03*
Y874994D02*
D03*
Y824994D02*
D03*
Y774994D02*
D03*
Y724994D02*
D03*
Y674995D02*
D03*
Y624995D02*
D03*
D13*
X1878500Y1478280D02*
D03*
X2058500D02*
D03*
D14*
X1943100Y242740D02*
D03*
Y422740D02*
D03*
D15*
X1221740Y570230D02*
D03*
Y836930D02*
D03*
D16*
X1600200Y764920D02*
D03*
Y367920D02*
D03*
D17*
X1261500Y1332620D02*
X1395340D01*
X1592960Y1135000D01*
X1242060Y1313180D02*
X1261500Y1332620D01*
X1242060Y1313180D02*
Y1333500D01*
X1386840Y1478280D01*
X828416Y1116670D02*
X1045550D01*
X1242060Y1313180D01*
X1592960Y1135000D02*
X1910080D01*
X1386840Y1478280D02*
X1878500D01*
X1350180Y242740D02*
X1943100D01*
X1350180D02*
X1471979Y364539D01*
X1596819D02*
X1600200Y367920D01*
X1217760Y242740D02*
X1350180D01*
X1471979Y364539D02*
X1596819D01*
X1943100Y242740D02*
X2056300D01*
X895157Y565344D02*
X1217760Y242740D01*
X2056300D02*
X2169160Y355600D01*
X1795610Y570230D02*
X1988500Y763120D01*
X2169160Y723900D02*
Y751393D01*
X2196812Y779045D02*
Y934432D01*
X2169160Y751393D02*
X2196812Y779045D01*
X2197100Y934720D02*
X2356826Y774994D01*
X2425005D01*
X1988500Y763120D02*
Y1133480D01*
Y1173480D01*
X1948500Y1133480D02*
X1988500D01*
X2169160Y502920D02*
X2291235Y624995D01*
X2047240Y599440D02*
X2143760Y502920D01*
X2169160D01*
X2047240Y599440D02*
Y1054651D01*
X2169160Y355600D02*
Y502920D01*
X829757Y565344D02*
X895157D01*
X826116Y568984D02*
X829757Y565344D01*
X2028500Y1073391D02*
X2047240Y1054651D01*
X2028500Y1073391D02*
Y1133480D01*
X1879941Y1476839D02*
X1898473Y1495371D01*
X781030Y1118970D02*
X828416D01*
X2197100Y1115060D02*
X2287166Y1024994D01*
X775200Y718984D02*
X828416D01*
Y966676D02*
X830716Y964376D01*
X826116Y968976D02*
X828416Y966676D01*
X2548309Y1151691D02*
X2573309D01*
X2289566Y1174994D02*
X2425005D01*
X2525006D01*
X2548309Y1151691D01*
X2260600Y1203960D02*
X2289566Y1174994D01*
X2260600Y1203960D02*
Y1516380D01*
X2425005Y772694D02*
X2486126D01*
X2021840Y1286820D02*
Y1441620D01*
X1948500Y1213480D02*
X2021840Y1286820D01*
X1948500Y1213480D02*
X1988500D01*
X2021840Y1441620D02*
X2058500Y1478280D01*
X1948500Y1173480D02*
Y1213480D01*
X2028500Y1133480D02*
Y1173480D01*
Y1213480D01*
X1879941Y1476839D02*
X1908500Y1448280D01*
Y1213480D02*
Y1448280D01*
X1927171Y1600200D02*
X2176780D01*
X1898473Y1495371D02*
Y1571501D01*
X1927171Y1600200D01*
X2176780D02*
X2260600Y1516380D01*
X2287166Y1024994D02*
X2425005D01*
X2485286D01*
X2291235Y624995D02*
X2425005D01*
X2489046D01*
X691120Y593980D02*
X693420Y591680D01*
X926744Y716684D02*
X1043560Y833500D01*
X830716Y964376D02*
X912684D01*
X1043560Y833500D01*
X828416Y716684D02*
X926744D01*
X2485286Y1024994D02*
X2510280Y1000000D01*
X2574954D01*
X2486126Y772694D02*
X2508819Y750001D01*
X2574954D01*
X2514039Y600001D02*
X2574954D01*
X2489046Y624995D02*
X2514039Y600001D01*
X775187Y968976D02*
X826116D01*
X754781Y989382D02*
X775187Y968976D01*
X693420Y991682D02*
X695720Y989382D01*
X754781D01*
X730720Y1139379D02*
X760621D01*
X781030Y1118970D01*
X728420Y1141679D02*
X730720Y1139379D01*
X754804Y739380D02*
X775200Y718984D01*
X695720Y739380D02*
X754804D01*
X693420Y741680D02*
X695720Y739380D01*
X693420Y591680D02*
X728420D01*
X751116Y568984D02*
X826116D01*
X728420Y591680D02*
X751116Y568984D01*
D18*
X1239520Y854710D02*
Y1092200D01*
X1221740Y836930D02*
X1239520Y854710D01*
X2197100Y934720D02*
Y1115060D01*
X1043560Y833500D02*
X1221740D01*
X2197100Y1115060D02*
Y1394460D01*
X2153201Y1438359D02*
X2197100Y1394460D01*
X2062313Y1475496D02*
Y1479211D01*
X2099450Y1438359D02*
X2153201D01*
X2062313Y1475496D02*
X2099450Y1438359D01*
D19*
X1943100Y422740D02*
X1943500D01*
X1988500Y467740D02*
Y763120D01*
X1943500Y422740D02*
X1988500Y467740D01*
X1492250Y570230D02*
X1795610D01*
X1221740D02*
X1492250D01*
X1600200Y678180D02*
Y764920D01*
X1492250Y570230D02*
X1600200Y678180D01*
D20*
X756418Y435089D02*
D03*
X756408Y1273289D02*
D03*
D21*
X303414Y1286200D02*
D03*
Y422173D02*
D03*
D22*
X623400Y514175D02*
D03*
Y1194184D02*
D03*
D23*
X2404956Y517502D02*
D03*
X2404999Y1257500D02*
D03*
D24*
X1242060Y1313180D02*
D03*
X1239520Y1092200D02*
D03*
X2169160Y502920D02*
D03*
Y723900D02*
D03*
%TF.MD5,bb51ab0f9a076c2214b95f5dc6b1ffc1*%
M02*
